<?xml version="1.0" encoding="UTF-8" standalone="no"?>
<!DOCTYPE svg PUBLIC "-//W3C//DTD SVG 1.1//EN" "http://www.w3.org/Graphics/SVG/1.1/DTD/svg11.dtd">
<svg width="100%" height="100%" viewBox="0 0 250 250" version="1.1" xmlns="http://www.w3.org/2000/svg" xmlns:xlink="http://www.w3.org/1999/xlink" xml:space="preserve" xmlns:serif="http://www.serif.com/" style="fill-rule:evenodd;clip-rule:evenodd;stroke-linejoin:round;stroke-miterlimit:2;">
    <g transform="matrix(1.2347,0,0,1.2347,-29.2875,-35.5107)">
        <g>
            <path d="M125,30L31.9,63.2L46.1,186.3L125,230L203.9,186.3L218.1,63.2L125,30Z" style="fill:rgb(221,0,49);fill-rule:nonzero;"/>
            <path d="M125,30L125,52.2L125,52.1L125,230L203.9,186.3L218.1,63.2L125,30Z" style="fill:rgb(195,0,47);fill-rule:nonzero;"/>
            <path d="M125,52.1L66.8,182.6L88.5,182.6L100.2,153.4L149.6,153.4L161.3,182.6L183,182.6L125,52.1ZM142,135.4L108,135.4L125,94.5L142,135.4Z" style="fill:white;fill-rule:nonzero;"/>
        </g>
    </g>
</svg>
