<svg xmlns="http://www.w3.org/2000/svg" viewBox="0 0 510.2 510.2"><path d="M391.2 331.7l-23 16.5 17.3 24.1-44.7-.1c-8 10.8-17.3 20.3-27.6 28.3l68.7.1-21.1 19.6 22.3 19.8 49.4-50.8-41.3-57.5z"></path><path d="M320.9 218.7a110 110 0 0 0-74.8-40.2A110.3 110.3 0 0 0 141 229.9a56.1 56.1 0 0 1 2.8-97.3 55.5 55.5 0 0 1 53-.2l-25.8 9.4 9.7 26.6L245 145l-14.8-73.1-27.8 5.6 5.8 28.9A84 84 0 0 0 89.5 158a84 84 0 0 0 39.6 97.9 112.6 112.6 0 0 0-3.8 49.3L103.1 289l-16.6 23 57.3 41.5 51-49.1-19.6-20.4-21.3 20.5a82.7 82.7 0 0 1 28.8-79.6 82 82 0 0 1 60.6-18.2 82.7 82.7 0 0 1-3.7 164.6l-153.2.5v-.1h-.1V400l164.6.3a114.4 114.4 0 0 0 57.8-28.2l.2-.3a108.6 108.6 0 0 0 36.4-71.8c3.1-29.4-5.6-58.3-24.4-81.3z"></path></svg>