<svg xmlns="http://www.w3.org/2000/svg" viewBox="0 0 510.2 510.2"><path d="M398.4 264.5a25.8 25.8 0 0 0-22.5 13.2l-53.3-.3a14.2 14.2 0 0 0-.2 28.3l55.6.4a25.8 25.8 0 1 0 20.4-41.6z"></path><path d="M398.4 192.7a25.8 25.8 0 0 0-22.2 12.6l-99.2.3v-24l29.1.6h.4a54 54 0 0 0 41.4-19.3l21-24.9 2 .1a25.8 25.8 0 1 0-24.4-17.5l-20.3 24a25.8 25.8 0 0 1-19.7 9.2l-29.5-.4v-8.2a60 60 0 0 0-60.2-59.6 60.6 60.6 0 0 0-51.2 28.3 70 70 0 0 0-49.9 66.7 69 69 0 0 0 1.1 12.4 79.2 79.2 0 0 0-7 121 63.5 63.5 0 0 0-4.3 23.3 65 65 0 0 0 62 64.6 60.8 60.8 0 0 0 49.2 25.3 60 60 0 0 0 60.2-59.6v-9.2l29.4-.5a25.8 25.8 0 0 1 19.7 9.3l20.3 24.1a25.4 25.4 0 0 0-1.3 8 25.8 25.8 0 1 0 25.8-25.8h-2.4L347.7 349a54 54 0 0 0-41.5-19.3l-29.2.4v-96l100.6-.3a25.8 25.8 0 1 0 20.8-41zm-150 174.8a31.5 31.5 0 0 1-31.7 31.3 31.9 31.9 0 0 1-28.3-17.6l-4.4-8.8-9.9 1-3.3.2a36.6 36.6 0 0 1-36.7-36.4A35.9 35.9 0 0 1 140 318l7.3-11.5-11.2-7.8a51.1 51.1 0 0 1 4.3-87l10.5-6-4-11.2a40.4 40.4 0 0 1-2.5-13.8 41.6 41.6 0 0 1 33.4-40.6l7.4-1.6 3-6.3a31.6 31.6 0 0 1 60.2 13.1z"></path><path d="M177.1 247a14.2 14.2 0 0 1-14.1-14 59.2 59.2 0 0 1 58.1-60.2 14.2 14.2 0 1 1 .5 28.3 30.9 30.9 0 0 0-30.3 31.4 14.2 14.2 0 0 1-13.9 14.5z"></path><path d="M177.1 347.8a14.2 14.2 0 0 1-.2-28.4 30.9 30.9 0 0 0 30.3-31.4 14.2 14.2 0 1 1 28.3-.5 59.3 59.3 0 0 1-58.1 60.3z"></path></svg>