<svg xmlns="http://www.w3.org/2000/svg" viewBox="0 0 510.2 510.2"><path d="M416.7 263.7l-1.5-1.5-119.6-61.9-.2-57.7v-17h-.1a39.6 39.6 0 0 0-79.2-.1h-.1v74.6L96.4 261.3l-1.5 1.5a32.3 32.3 0 0 0-9.6 24.8l.7 29.7 129.4-23.7-.2 56.1-13.3 8.1-1.2 1.2c-8.6 8.5-9.8 24.3-9.6 29.9l.5 34.4 61.8-12.6 66.3 13.2.5-34.3c.2-5.5-1-21.4-9.6-29.9l-1.2-1.2-13.4-8.2-.2-56.1 130 23.8.4-29.7c.5-9.2-3-18.2-9.5-24.6zm-149.3-3.5l.4 106.2 22.7 13.9c.8 2.2 1.5 6.1 1.4 8v1.5l-38.5-7.9-33.9 7.1v-1.5c-.1-1.9.6-5.8 1.4-8l22.7-13.8.3-106.2-127.1 23.3 127.7-65.5v-90.8l.1-.9c0-6.1 5.1-11.1 11.3-11.1 6.2 0 11.3 5 11.3 11.1h.1l.2 92 127.3 65.9-127.4-23.3z"></path></svg>