<svg xmlns="http://www.w3.org/2000/svg" viewBox="0 0 510.2 510.2"><path d="M373.6 337.7L351 319.6a28.2 28.2 0 0 1-10.6-21.6l-1.9-93.4A83.5 83.5 0 0 0 284 127a29.8 29.8 0 1 0-58.8-6.5 30 30 0 0 0 .8 6.6 83.6 83.6 0 0 0-54.4 77.4l-1.9 93.5a28.3 28.3 0 0 1-10.5 21.4L136.4 338a16 16 0 0 0 10.2 28.1h94.2v16.2h-19.5A33.7 33.7 0 0 0 255 416a33.7 33.7 0 0 0 33.7-33.7h-19.5V366h94.3a16 16 0 0 0 10-28.3zm-192.4 0a56.6 56.6 0 0 0 16.7-39l2-95.4a55.3 55.3 0 0 1 54.2-53H255.8a55.3 55.3 0 0 1 54.3 53l2 95.4a56.6 56.6 0 0 0 16.6 39z"></path></svg>