<svg xmlns="http://www.w3.org/2000/svg" viewBox="0 0 510.2 510.2"><path d="M349.4 298.5h28.3v127h-28.3z" transform="rotate(-45 363.53 362)"></path><path d="M220.5 332.7c-62.4 0-113.3-50.8-113.3-113.3 0-62.4 50.8-113.3 113.3-113.3 62.4 0 113.3 50.8 113.3 113.3S283 332.7 220.5 332.7zm0-198.2c-46.8 0-84.9 38.1-84.9 84.9 0 46.8 38.1 84.9 84.9 84.9 46.8 0 84.9-38.1 84.9-84.9 0-46.8-38.1-84.9-84.9-84.9z"></path><path d="M164.6 196.5V265c4.5 6.1 10 11.5 16.3 15.9v-84.4h-16.3z"></path><path d="M197.2 223.4v65.9c5.2 1.9 10.6 3.1 16.3 3.7v-69.5h-16.3z"></path><path d="M229.8 173.8v118.9c5.7-.8 11.1-2.2 16.3-4.3V173.8h-16.3z"></path><path d="M262.5 198.4v80.7c6.4-4.9 11.9-10.8 16.3-17.6v-63.2h-16.3z"></path></svg>