<svg xmlns="http://www.w3.org/2000/svg" viewBox="0 0 510.2 510.2"><path d="M396.2 253.3c-3.4-34.5-26.4-73.3-70.3-81.9a95.3 95.3 0 0 0-58.4 8.5v-45.7c0-11.8-5.2-22.9-14.2-30.5l-25-20.9-18.2 21.7 25 20.9c2.6 2.2 4.1 5.4 4.1 8.8v46.1c-14.8-7-36-13.3-59.1-8.8-43.9 8.6-66.9 47.4-70.3 81.9-3.5 35.8 7.8 81.2 29.4 118.7 26.9 46.2 53.1 53.6 66.2 53.9h1.1c9.7 0 18.5-3.5 27.2-6.9a62.7 62.7 0 0 1 19.3-5.5c5.5 0 12.5 2.8 19.3 5.5a74.3 74.3 0 0 0 27.1 6.9h1.1c13.2-.3 39.4-7.7 66.3-53.9 21.7-37.5 32.9-83 29.4-118.8zm-57.9 102.1c-17 29.3-32.2 37.4-38.6 37.5-3.3.1-9.6-2.4-15.2-4.6a87.2 87.2 0 0 0-30.9-7.8h-1.3a87.2 87.2 0 0 0-30.8 7.8c-5.6 2.2-11.9 4.7-15.3 4.6-6.3-.1-21.5-8.2-38.5-37.5-18.1-31.2-28-70-25.1-98.9 1.6-16.7 12.7-46.6 43.8-52.8 27.1-5.3 52.8 14.5 53.4 14.9 3.7 2.9 8.8 5 13.4 4.8 3.2.4 7.2-.9 13-4.8.3-.2 26.1-20.3 53.3-14.9 31.1 6.1 42.2 36 43.8 52.8 2.9 28.9-6.9 67.7-25 98.9z"></path></svg>