<svg xmlns="http://www.w3.org/2000/svg" viewBox="0 0 510.2 510.2"><path d="M266.4 325.9h21.3V425h-21.3z"></path><path d="M223.8 325.9h21.3V425h-21.3z"></path><path d="M294.3 238.1a31.8 31.8 0 0 1 7.2 20.2v67.4h21.3V286l45.8.2V160.9H333a77.5 77.5 0 0 0-153.6 0h-14.3v-42.7c5.3-1.5 9.2-6.4 9.2-12.2a12.8 12.8 0 0 0-25.6 0c0 5.8 3.9 10.7 9.2 12.2v42.7h-15.2v125.2l45.2-.2v39.7h21.3v-67.4c0-7.7 2.8-15.1 7.8-20.8a77.3 77.3 0 0 0 76.1 1.2m-105 19.6v6.4l-24 .1v-82.6h15.5c2.4 16 9.8 30.5 20.4 41.7l.4.4a53.2 53.2 0 0 0-12.3 34zm106.6-46.8a55.8 55.8 0 0 1-60.6 10.8 56 56 0 0 1 22.1-107.8 56.2 56.2 0 0 1 38.5 97zm52.6 53.3l-24.5-.1v-6.4c0-11.8-4-24.1-11.8-32.9a76.6 76.6 0 0 0 21.9-43.2h14.5v82.6z"></path><path d="M285.6 146.7h-58.8a6 6 0 0 0-5.9 5.9v40.9a6 6 0 0 0 5.9 5.9h58.8a6 6 0 0 0 5.9-5.9v-40.9a5.8 5.8 0 0 0-5.9-5.9zm0 46.8h-58.8v-40.9h58.8v40.9z"></path></svg>