<svg xmlns="http://www.w3.org/2000/svg" viewBox="0 0 510.2 510.2"><path d="M281.7 241.5a25.2 25.2 0 0 0-50.4 0v25.2a25.2 25.2 0 0 0 50.4 0v-25.2z"></path><path d="M428.4 252c-.4-2.9-1.8-5.6-4-7.9-55.2-55.2-114.2-82.1-175.3-79.9-96.1 3.4-161.3 77.5-164 80.6-3.4 3.9-4.2 9-2.8 13.6.4 2.9 1.8 5.6 4 7.8 53.1 53.1 109.8 80 168.4 80l6.9-.1c96.1-3.4 161.3-77.5 164-80.6 3.4-3.8 4.3-9 2.8-13.5zm-168 65.9c-49.8 1.7-98.6-19.5-145.2-63.2 19.3-18.4 69.7-59.8 135.1-62.1 49.8-1.8 98.7 19.5 145.5 63.1-19.6 18.5-70.2 59.9-135.4 62.2z"></path></svg>