<svg xmlns="http://www.w3.org/2000/svg" viewBox="0 0 510.2 510.2"><path d="M135 183.2a7.1 7.1 0 0 1 7-7H369a7.1 7.1 0 0 1 7 7v127.6h28.4V183.2a35.5 35.5 0 0 0-35.4-35.4H142.1a35.5 35.5 0 0 0-35.4 35.4v127.6H135z"></path><path d="M425.6 332H85.4v28.4h340.2zM298 349.7h-85v-7h85z"></path><path d="M317.9 237.5v-10.6h-12.8a28.7 28.7 0 0 0-4.5-10.9l9-9-7.5-7.5-9 9a28.7 28.7 0 0 0-11-4.5v-12.8h-10.5v12.7a28.6 28.6 0 0 0-11 4.6l-9-9-7.5 7.5 9 9a28.7 28.7 0 0 0-4.5 10.9h-12.8v10.6h12.8a28.6 28.6 0 0 0 4.5 11l-9 9 7.6 7.4 9-9a28.6 28.6 0 0 0 10.9 4.5v12.8h10.6v-12.8A28.7 28.7 0 0 0 293 256l9 9 7.5-7.5-9-9a28.6 28.6 0 0 0 4.5-10.9zm-22.9-5.3a18.1 18.1 0 1 1-18.1-18.1 18.1 18.1 0 0 1 18.1 18z"></path><path d="M249.6 280.5l-2.7-6.8-8.2 3.2a19.9 19.9 0 0 0-5.7-5.8l3.5-8.1-6.8-3-3.4 8.2a19.7 19.7 0 0 0-8.2-.1l-3.3-8.2-6.8 2.7 3.3 8.2a19.7 19.7 0 0 0-5.8 5.7l-8.2-3.5-2.8 6.7 8 3.5a19.8 19.8 0 0 0 0 8.2l-8.2 3.2 2.7 6.8 8.2-3.2a19.7 19.7 0 0 0 5.7 5.8l-3.5 8.1 6.7 3 3.5-8.2a19.7 19.7 0 0 0 8.2.1l3.2 8.2 6.8-2.7-3.2-8.2a19.7 19.7 0 0 0 5.8-5.7l8.1 3.5 3-6.8-8.2-3.4a19.8 19.8 0 0 0 .1-8.2zm-16 2.4a12.5 12.5 0 1 1-16.3-7 12.6 12.6 0 0 1 16.3 7"></path></svg>