<svg xmlns="http://www.w3.org/2000/svg" viewBox="0 0 510.2 510.2"><path d="M85 304.7v92.1a28.3 28.3 0 0 0 28.3 28.3h283.5a28.3 28.3 0 0 0 28.3-28.3v-92.1a28.3 28.3 0 0 0-28.3-28.3H113.4A28.4 28.4 0 0 0 85 304.7zm311.9 0v92.1H113.4v-92.1h283.5z"></path><path d="M188.3 371.4h-20l13.3-19.2c2.8-4.1 6.7-10 6.7-16.6 0-8.7-4.8-12.5-13.6-12.5-7.5 0-13.4 3.4-14.1 11.7l-.1 2.8h7.9l.2-3.2c.5-3.2 2.2-5.5 5.9-5.5 4.1 0 5.6 2.6 5.6 6.2 0 2.9-.9 6.3-2.9 9.3l-17.3 26v6.8h28.5v-5.8z"></path><path d="M209.3 378.4c13.2 0 14-10.4 14-23.1v-13.2c0-10.7-1.4-18.9-13.8-18.9-12.2 0-14.3 9.1-14.3 19.4v12.9c0 13.6 1.1 22.9 14.1 22.9zm-6.1-31.1c0-10.7.2-18.4 6.3-18.4 6.2 0 5.9 7.4 5.9 18.4v8.1c0 8.4.4 17.2-6.1 17.2-5.9 0-6.2-7.1-6.2-17.5v-7.8z"></path><path d="M137.6 262.1l20.7-19.4-53.3-53.4 65.1-65.2 7.4 7.4 40.2 40.2 89.2 89.2 19.6-20.5-107.9-107.8 73.2-26.6 56.8 156.2 26.9-8.8-57.2-157A28.2 28.2 0 0 0 282 79.5l-85.6 31.1-6.3-6.3a28 28 0 0 0-40 0L85 169.4a28 28 0 0 0 0 40l52.6 52.7z"></path></svg>