<svg xmlns="http://www.w3.org/2000/svg" viewBox="0 0 510.2 510.2"><circle cx="255.3" cy="254.6" r="22.7"></circle><path d="M211.7 254.6c0-24.1 19.6-43.6 43.6-43.6s43.6 19.6 43.6 43.6c0 19.1-12.3 35.3-29.3 41.2V324c32.2-6.6 56.6-35.2 56.6-69.4 0-39.1-31.8-70.9-70.9-70.9s-70.9 31.8-70.9 70.9c0 34.3 24.4 62.9 56.8 69.5v-28.2a43.63 43.63 0 0 1-29.5-41.3z"></path><path d="M162.7 254.6c0-51.1 41.6-92.7 92.7-92.7s92.7 41.6 92.7 92.7c0 46.2-34 84.7-78.4 91.6v28.1c59.7-7.1 106.2-58 106.2-119.6 0-66.4-54-120.5-120.5-120.5-66.4 0-120.5 54-120.5 120.5 0 61.7 46.6 112.7 106.4 119.6v-28a92.8 92.8 0 0 1-78.6-91.7z"></path><path d="M255.3 84.6c-93.8 0-170.1 76.3-170.1 170.1 0 89 68.8 162.3 156 169.5v-28.4c-71.6-7.1-127.7-67.6-127.7-141.1 0-78.2 63.6-141.8 141.8-141.8 78.2 0 141.8 63.6 141.8 141.8 0 73.4-56 133.9-127.5 141.1v28.4c87.1-7.3 155.8-80.5 155.8-169.5 0-93.8-76.3-170.1-170.1-170.1z"></path></svg>