<svg xmlns="http://www.w3.org/2000/svg" viewBox="0 0 510.2 510.2"><path d="M245.4 402c-6.7 0-12.5-4.7-13.9-11.4l-26.3-130.8-5.9 11.1c-2.5 4.6-7.3 7.5-12.5 7.5H98.2a14.19 14.19 0 1 1 0-28.4h80.1l20.5-38.3c2.8-5.3 8.7-8.2 14.6-7.3 5.9.9 10.6 5.4 11.8 11.2l16.1 80 19.4-176a14.16 14.16 0 0 1 28-1.1l25.9 134.1 12.8-17.4c2.7-3.6 6.9-5.8 11.4-5.8h73c7.8 0 14.2 6.3 14.2 14.2s-6.3 14.2-14.2 14.2H346l-27.7 37.8c-3.3 4.5-9 6.7-14.5 5.4-5.5-1.2-9.7-5.6-10.8-11.1L278.7 216l-19.1 173.4c-.8 6.9-6.5 12.3-13.5 12.6h-.7z"></path></svg>