<svg xmlns="http://www.w3.org/2000/svg" viewBox="0 0 510.2 510.2"><path d="M422.3 293c-8-28.4-38.3-56.2-90.2-82.8l-5.4-2.7v-7.8a70.8 70.8 0 0 0-34.3-60.6l1.8-18.3a9.6 9.6 0 0 1 4.1-6.9l11.7-8-16-23.4-11.7 8a38 38 0 0 0-16.4 27.5l-1.2 11.6a64 64 0 0 0-17.4-.1L246 117a37.6 37.6 0 0 0-16.5-27.4l-11.8-7.9-15.8 23.5 11.8 7.9a9.8 9.8 0 0 1 4.2 6.9l2 19a70.5 70.5 0 0 0-34.5 60.7v7l-6.9 3.5c-51.8 26.6-82.2 54.4-90.2 82.8-3.8 13.5-4.4 34.2 14.3 56.3l.9.9c.9.8 18.1 17.5 43.8 17.5 5 0 10.4-.6 16-2.2a70.3 70.3 0 0 0 20.2-9.2 72.3 72.3 0 0 0 144.2.4c6.3 4 12.9 6.9 19.6 8.8a62 62 0 0 0 59.8-15.3l.9-.9c18.7-22.1 18.1-42.8 14.3-56.3zM256 157.4a42.4 42.4 0 0 1 42 36.9c-17.9-7.6-31.8-12.5-36.6-14.2-1.9-.9-4-1.3-6.1-1.3-2.1 0-4.2.4-6.1 1.3-4.7 1.6-18 6.3-35.1 13.5a42.3 42.3 0 0 1 41.9-36.2zm-25.9 142.9h50.2c5.1 9.6 10.5 18.1 16 25.7h-82.2c5.6-7.5 10.9-16.1 16-25.7zm13.5-28.3c4-9.4 7.9-19.5 11.6-30.3 3.7 10.8 7.6 20.9 11.6 30.3h-23.2zm-87.4 66.1a36 36 0 0 1-32.6-7.8c-8.4-10.1-11-19.6-8.1-29.7 5.6-19.8 32.4-43 75.5-65.1a535 535 0 0 1 42.8-19.4c-15.8 49.7-42.2 112.1-77.6 122zm99.4 57.6a44 44 0 0 1-43.8-41.4h87.7a44.1 44.1 0 0 1-43.9 41.4zm131.2-65.3a36.4 36.4 0 0 1-32.3 7.8c-35.6-9.6-62.1-72.2-77.9-122a529 529 0 0 1 42.5 19.3c43.3 22.2 70.2 45.4 75.8 65.2 1.9 6.4 3 16.3-8.1 29.7z"></path></svg>