<svg xmlns="http://www.w3.org/2000/svg" viewBox="0 0 510.2 510.2"><path d="M432.3 180.3a43.9 43.9 0 0 0-78.5-26.7l-105.5-33.5a43.9 43.9 0 1 0-74 40.3L105 286.6a43.8 43.8 0 1 0 32.1 73.7l142.8 25.9a43.8 43.8 0 1 0 77.3-32.1L399 222.9a44 44 0 0 0 33.3-42.6zm-109 157.9c-2.4 0-4.8.2-7.1.6l-21.7-41.7a53 53 0 0 0 17.3-60.2l47.1-24.5a43.2 43.2 0 0 0 18.1 10.1l-37.8 118.7c-5-2-10.3-3-15.9-3zm-114.7-83c0 3.8.4 7.6 1.2 11.2l-71.2 35.9A43.2 43.2 0 0 0 126 292l66.2-120.3a42.9 42.9 0 0 0 21.2 1.4l20.3 37a53 53 0 0 0-25.1 45.1zm53.2-24.9a24.8 24.8 0 1 1 0 49.6 24.8 24.8 0 0 1 0-49.6zm126.8-65.4a15.4 15.4 0 1 1 0 30.8 15.4 15.4 0 0 1 0-30.8zm-41.4 29.8L300.6 219a53 53 0 0 0-47-16.4l-21-38.2a43.6 43.6 0 0 0 15.1-22.4l97.7 31a44 44 0 0 0 1.8 21.7zm-141.5-80.1a15.4 15.4 0 1 1 0 30.8 15.4 15.4 0 0 1 0-30.8zM105.1 345.8a15.4 15.4 0 1 1 0-30.8 15.4 15.4 0 0 1 0 30.8zm42.8-24.7l70.3-35.5a53.2 53.2 0 0 0 57.4 20.8l21.2 40.7a44 44 0 0 0-14 18.2l-135.2-24.5a45.7 45.7 0 0 0 .3-19.7zm175.4 76.2a15.4 15.4 0 1 1 0-30.8 15.4 15.4 0 0 1 0 30.8z"></path></svg>