<svg xmlns="http://www.w3.org/2000/svg" viewBox="0 0 510.2 510.2"><path d="M109.8 332.5c0-9.5 4.2-18.4 11.4-24.4l30.7-25.7a45.93 45.93 0 0 0 50.6 0l30.7 25.6c7.2 6.1 11.4 15 11.4 24.4v8.1h21.3v-8.1c0-9.5 4.2-18.4 11.4-24.4l30.7-25.7c7.3 4.8 15.9 7.6 25.3 7.6s18-2.8 25.3-7.6l30.7 25.6c7.2 6.1 11.4 15 11.4 24.4v8.1H422v-8.1c0-15.8-6.9-30.6-19-40.7L373 267a46 46 0 0 0 6.2-23v-28.3a46.1 46.1 0 1 0-92.2-.1V244a46 46 0 0 0 6.2 23l-29.7 24.8c-3.2 2.6-5.9 5.6-8.4 8.8-2.4-3.2-5.2-6.2-8.4-8.8L217.1 267a46 46 0 0 0 6.2-23v-28.3c0-25.4-20.7-46.1-46.1-46.1s-46.1 20.7-46.1 46.1V244a46 46 0 0 0 6.2 23l-29.7 24.9c-12.1 10.1-19 25-19 40.7v8.1h21.3v-8.2zm198.5-116.9a24.8 24.8 0 1 1 49.6 0V244a24.8 24.8 0 1 1-49.6 0v-28.4zm-155.9 0a24.8 24.8 0 1 1 49.6 0V244a24.8 24.8 0 1 1-49.6 0v-28.4z"></path></svg>