<svg xmlns="http://www.w3.org/2000/svg" viewBox="0 0 510.2 510.2"><path d="M190.7 239.9h85.7v7.1h-85.7z"></path><path d="M209.4 157.6h91.9v7.1h-91.9z"></path><path d="M209.9 175h91.9v7.1h-91.9z"></path><path d="M192.6 343.3h53.2v7.1h-53.2z"></path><path d="M294.2 239.9h25.7v7.1h-25.7z"></path><path d="M294.4 261.2h25.7v7.1h-25.7z"></path><path d="M294.4 282.4h25.7v7.1h-25.7z"></path><path d="M294.4 303.7h25.7v7.1h-25.7z"></path><path d="M294.4 341.7h25.7v7.1h-25.7z"></path><path d="M190.7 261.2h85.7v7.1h-85.7z"></path><path d="M190.7 282.4h85.7v7.1h-85.7z"></path><path d="M190.7 303.7h85.7v7.1h-85.7z"></path><path d="M176.9 114.4L163 100.2l-14 14.2h-.2v283l14.2 13.3 14.1-13.3v-283z"></path><path d="M223.3 114.1h-.2l-13.9-14.3-14 14.3h-.2z"></path><path d="M269.5 114.1h-.2l-13.9-14.3-14 14.3h-.3z"></path><path d="M315.6 114.1h-.2l-13.9-14.3-14 14.3h-.2z"></path><path d="M285.6 396.5h.3l13.9 14.2 14-14.2h.2z"></path><path d="M239.5 396.5h.2l13.9 14.2 14-14.2h.2z"></path><path d="M193.3 396.5h.2l13.9 14.2 14-14.2h.2z"></path><path d="M361.6 114.4l-13.9-14.2-14 14.2h-.2v283l14.2 13.3 14.1-13.3v-283z"></path></svg>