<svg xmlns="http://www.w3.org/2000/svg" viewBox="0 0 510.2 510.2"><path d="M101 332.8l.3.4.4.5.6.7c3.8 5 8.3 9.5 13.3 13.4l1.4 1.1.1.1c2.3 1.7 4.5 3.2 6.7 4.5l1.4.9a83 83 0 0 0 17.6 7.4l2.1.5c2.4.6 4.9 1.1 7.5 1.5h.2l.6.1 1.2.2h.3a78.7 78.7 0 0 0 87.6-69h26.5a76.6 76.6 0 0 0 14.8 37.4l.3.5.4.5.6.7c3.8 5 8.3 9.5 13.3 13.4l1.4 1.1.1.1c2.3 1.7 4.5 3.2 6.7 4.5l1.4.9a83 83 0 0 0 17.6 7.4l2.1.5c2.4.6 4.9 1.1 7.5 1.5h.2l.6.1 1.2.2h.3a78.7 78.7 0 0 0 88.2-78l-.1-2.2-.1-1a77.7 77.7 0 0 0-24-53.3 77.9 77.9 0 0 0-74.5-19.4c-12.1-8.6-23.8-8.7-39.3-5h-1.9a37.6 37.6 0 0 0 5.5-19.7l-.1-1.5v-.1a37.8 37.8 0 1 0-70.6 20.6l.1.1a42.1 42.1 0 0 0-40.9 4.5A78.7 78.7 0 0 0 101 332.8zm245.9-96.7a50 50 0 0 1 50 47.9l.1 1.7.1.8v.1a50.2 50.2 0 0 1-56.1 49.5l-.4-.1-1.4-.2c-1.6-.2-3.1-.6-4.5-.9l-1.5-.4a52.4 52.4 0 0 1-10.9-4.6l-1.1-.7c-1.4-.8-2.8-1.8-4.3-2.9l-.6-.4-.2-.2a54.4 54.4 0 0 1-8.6-8.7l-.3-.4-.6-.7-2.9-4.4a50.3 50.3 0 0 1 43.2-75.4zm-93.8-60c5.1 0 9.2 3.9 9.5 9l.1 1a9.6 9.6 0 0 1-9.6 9.2l-.9-.1-.6-.1-.7-.1-.5-.1-1.8-.8-.4-.3-.8-.6-.2-.1a12 12 0 0 1-1.6-1.6l-.1-.1-.2-.2-.5-.8a9.1 9.1 0 0 1-1.3-4.8 9.6 9.6 0 0 1 9.6-9.5zm37.3 55.8a78.8 78.8 0 0 0-19.6 35.1h-30.4a78.4 78.4 0 0 0-19.5-35.1h69.5zm-126.1 4.2a50 50 0 0 1 50 47.9l.1 1.7.1.8v.1a50.2 50.2 0 0 1-56.1 49.5l-.4-.1-1.4-.2c-1.6-.2-3.1-.6-4.5-.9l-1.5-.4a52.4 52.4 0 0 1-10.9-4.6l-1.1-.7c-1.4-.8-2.8-1.8-4.3-2.9l-.6-.4-.2-.2a54.4 54.4 0 0 1-8.6-8.7l-.3-.4-.6-.7-2.9-4.4a50.3 50.3 0 0 1 43.2-75.4z"></path></svg>