<svg xmlns="http://www.w3.org/2000/svg" viewBox="0 0 510.2 510.2"><path d="M416.8 181.4c10.1 0 18.2-8.5 18.2-19v-68c0-10.5-8.2-19-18.2-19h-69.6a18.6 18.6 0 0 0-18.2 19v28.4h-22.6V94.4c0-10.5-8.2-19-18.2-19h-69.6a18.6 18.6 0 0 0-18.2 19v28.4h-20V94.4c0-10.5-8.2-19-18.2-19H92.6a18.6 18.6 0 0 0-18.2 19v68c0 10.5 8.2 19 18.2 19h30.7v21H92.6a18.6 18.6 0 0 0-18.2 19v68c0 10.5 8.2 19 18.2 19h30.7v21H92.6a18.6 18.6 0 0 0-18.2 19v68c0 10.5 8.2 19 18.2 19h69.6c10.1 0 18.2-8.5 18.2-19V388h20v28.4c0 10.5 8.2 19 18.2 19h69.6c10.1 0 18.2-8.5 18.2-19v-28.2H329v28.2c0 10.5 8.2 19 18.2 19h69.6c10.1 0 18.2-8.5 18.2-19v-68c0-10.5-8.2-19-18.2-19h-30v-21h30c10.1 0 18.2-8.5 18.2-19v-68c0-10.5-8.2-19-18.2-19h-28.6v-21h28.6zm-66.8-85h64v64h-64v-64zm-128.7 0h64v64h-64v-64zm-126 0h64v64h-64v-64zm38 85h28.8c10.1 0 18.2-8.5 18.2-19v-29.6h20v29.6c0 10.5 8.2 19 18.2 19h29.7v21h-29.7a18.6 18.6 0 0 0-18.2 19v28.9h-20v-28.9c0-10.5-8.2-19-18.2-19h-28.8v-21zm88 106v-64h64v64h-64zm-126-64h64v64h-64v-64zm64.1 191h-64v-64h64v64zm40.9-66V378h-20v-29.7c0-10.5-8.2-19-18.2-19h-28.8v-21h28.8c10.1 0 18.2-8.5 18.2-19v-29.2h20v29.2c0 10.5 8.2 19 18.2 19h29.7v21h-29.7c-10 .1-18.2 8.6-18.2 19.1zm85.1 66h-64v-64h64v64zm128.7 0h-64v-64h64v64zm-37.2-85h-29.6a18.6 18.6 0 0 0-18.2 19v29.9h-22.6v-29.9c0-10.5-8.2-19-18.2-19h-29.9v-21h29.9c10.1 0 18.2-8.5 18.2-19v-29.2H329v29.2c0 10.5 8.2 19 18.2 19h29.6v21zm37.2-42h-64v-64h64v64zm-35.8-85h-31a18.6 18.6 0 0 0-18.2 19v28.9h-22.6v-28.9c0-10.5-8.2-19-18.2-19h-29.9v-21h29.9c10.1 0 18.2-8.5 18.2-19v-29.6H329v29.6c0 10.5 8.2 19 18.2 19h31v21z"></path></svg>