<svg xmlns="http://www.w3.org/2000/svg" viewBox="0 0 510.2 510.2"><path d="M416.7 135.6a28 28 0 0 0-20.6-8c-58.6 1.5-100.8 13.3-141 39.4-40.1-26.1-82.3-37.9-140.9-39.4a28.2 28.2 0 0 0-29.1 28.3v177a28.3 28.3 0 0 0 28.3 28.3h13.5l3.4.1h.5l3.7.1h.1c13.8.4 27.2 1.3 40.4 3.4l3.9.7h.1l3.8.7h.2l3.7.8.3.1 3.5.8.4.1 3.4.9.6.2 3.3.9.7.2 3.1 1 .8.3a35.2 35.2 0 0 1 4 1.3l2.8 1 1.1.4 2.7 1 1.2.5 2.5 1.1 1.4.6 2.4 1.1 1.5.7 2.2 1.1 1.6.8 2.1 1.1 1.7.9 2 1.1 1.8 1.1 1.9 1.1 1.9 1.2 2.1 1.3a28.5 28.5 0 0 0 29.6.7V191.5l1.3-.8c35.4-23 73.2-33.4 126.3-34.8v177c-36.2.1-71.8 1.6-106.6 14.7v30.7c33.5-15.4 68.5-17 106.7-17.1a28.4 28.4 0 0 0 28.3-28.3v-177a28.7 28.7 0 0 0-8.6-20.3zm-175.8 166v55.5c-41.5-21.9-84.1-24-127.6-24.2v-177c53 1.4 90.8 11.8 126.2 34.8l1.3.8v110.1z"></path></svg>