<svg xmlns="http://www.w3.org/2000/svg" viewBox="0 0 510.2 510.2"><path d="M411.6 153.8l-34.6 19a45.25 45.25 0 0 0-22.5 30.8l-1.3 6.5-136.6-.1v-90.9h-14.2c-64.3 0-116.6 52.3-116.6 116.6v1.1c0 36.1 16.5 68.4 42.3 89.8a51.23 51.23 0 0 0 49.5 64.3c23.4 0 43.2-15.8 49.3-37.4h22.5c6 21.5 25.8 37.4 49.3 37.4 28.2 0 51.2-22.9 51.2-51.2 0-6.6-1.3-12.9-3.6-18.7 22.1-21.2 35.9-51.1 35.9-84.1v-26.6l.2-1.2c1-4.9 4-9.1 8.4-11.5l34.6-19-13.8-24.8zM195.8 353.4c-4.2 5.6-10.8 9.2-18.3 9.2a22.89 22.89 0 0 1-22.8-22.8c0-9.6 5.9-17.8 14.3-21.1 2.6-1.1 5.5-1.7 8.5-1.7 6.9 0 13.1 3.1 17.2 7.9 3.5 4 5.6 9.2 5.6 14.9 0 5.1-1.6 9.8-4.5 13.6zm102.7 9.2c-7.8 0-14.7-3.9-18.8-9.9a22.9 22.9 0 0 1 2.8-29.2 22.6 22.6 0 0 1 19.5-6.3 22.73 22.73 0 0 1 19.3 22v.5c0 12.7-10.2 22.9-22.8 22.9zm30.1-64.1c-8.5-6.2-18.9-9.8-30.1-9.8-23.1 0-42.7 15.5-49 36.6h-23c-6.3-21.1-25.9-36.6-49-36.6a50.9 50.9 0 0 0-34.6 13.5 88.12 88.12 0 0 1-28.8-65.2v-1.1c0-43.9 32.2-80.4 74.1-87.2v89.7l165.5.1a87.9 87.9 0 0 1-25.1 60z"></path></svg>