<svg xmlns="http://www.w3.org/2000/svg" viewBox="0 0 510.2 510.2"><path d="M256.6 111.7a17 17 0 0 1 13.7-4.1l34.5 5.1 2.7.4-28.2 51.8a10.5 10.5 0 0 0 1.9 12.5l9.1 8.9-44.1 77.1a10.5 10.5 0 0 0 3 13.8L302 315c1.8 1.3 4 2 6.1 2 1.8 0 3.7-.5 5.4-1.5l120.2-71.3c5-3 6.6-9.4 3.7-14.4-3-5-9.4-6.6-14.4-3.7L308.7 294 269 265.7l43.4-75.9c2.4-4.1 1.6-9.4-1.8-12.7l-9.2-9.1 28.1-51.6 9.7 1.4a37.8 37.8 0 0 0 30.7-9.2L388.8 92l-13.9-15.7L356 93a17 17 0 0 1-13.7 4.1L307.8 92l-34.5-5.1a37.8 37.8 0 0 0-30.7 9.2l-18.8 16.7 13.9 15.7 18.9-16.8z"></path><path d="M81.2 254.1c23.8 20.5 38.6 16.1 52.9 9.4 9.2-4.3 14.8-6.9 30.2 6.4a44.9 44.9 0 0 0 31.3 10.3 39.6 39.6 0 0 0 2.2 34.7 60 60 0 0 1 9.2 27.5c.3 18.6 8 32.3 16.2 44.2.8 1.2 1.6 2.1 2.2 2.8l.7.9 2.9 3.7a21.6 21.6 0 0 0-11.2 9.8 22.6 22.6 0 0 0-3.2 12.8c-4.2 0-8.6-.5-13.2-1.1-3-.4-6.2-.8-9.4-1-5.8-1.5-41.8-13.9-73.6-25-5.5-1.9-11.5 1-13.4 6.4-1.9 5.5 1 11.5 6.4 13.4 73.5 25.7 76.6 25.9 78.3 26.1 2.9.2 5.9.6 9 1 5.1.6 10.3 1.3 15.7 1.3h1.1c3.1-.1 13.9-.7 21.4-7.1 11.6-9.9 18.6-15.9 19.5-25.1.9-9.1-4.4-15.8-14.1-28.1l-1.4-1.6-.8-.9a58.2 58.2 0 0 1-12.6-32.8 82.8 82.8 0 0 0-12.1-37.8c-3.1-5.3-3.1-10 0-18.4l.4-1c2.7-7.3 5-13.6.8-19.6-4.3-6.1-11.2-6.1-20-6-8.8 0-13.8-.7-19-5.2-23.8-20.6-38.6-16.3-52.9-9.6-9.2 4.3-14.8 7-30.3-6.3-4.4-3.8-11-3.3-14.8 1.1a11 11 0 0 0 1.6 14.8z"></path><path d="M365.7 163.5c-5.5-4-13.2-2.8-17.3 2.7l-7.3 10c-4 5.5-2.8 13.2 2.7 17.3 5.5 4 13.2 2.8 17.3-2.7l7.2-10c4.2-5.6 3-13.3-2.6-17.3z"></path><path d="M167 335l10.7.1a10.7 10.7 0 0 0 .2-21.4l-10.7-.1a10.7 10.7 0 0 0-.2 21.4z"></path></svg>