<svg xmlns="http://www.w3.org/2000/svg" viewBox="0 0 510.2 510.2"><path d="M399.2 398.6V294.1c0-17.8-16.8-32.3-37.5-32.3h-20.3V218c0-14-12.4-25.3-27.6-25.3h-44.2l-.2-35.7-28.4.1.2 35.6h-48.4c-15.3 0-27.7 11.4-27.7 25.3v44h-13.4c-20.7 0-37.5 14.4-37.5 32.2v104.4H84.8v28.3h341.6v-28.3zM193.5 221H313v40.7H193.5zm-41.8 69.2h210c6.1 0 9.2 3.2 9.2 4v37l-2.4-1.5a37.5 37.5 0 0 0-31.7-2.5l-28 10.4-28 10.4a9.3 9.3 0 0 1-7.8-.7l-17.7-10v-.2l-18.7-10.6A37.6 37.6 0 0 0 205 324L177 334.4 149 345a9.2 9.2 0 0 1-6.5 0v-50.7c0-.7 3-4 9.2-4zm-9.2 83.3l3.3.2a37.9 37.9 0 0 0 13.1-2.4l28-10.4 28-10.4a9.3 9.3 0 0 1 7.8.6l17.7 10.2 18.6 10.7a37.5 37.5 0 0 0 31.7 2.6l28-10.4 28-10.4a9.3 9.3 0 0 1 7.7.6L371 364v34.7H142.5z"></path><path d="M247.2 134.7a15.8 15.8 0 0 0 15.3 0 16 16 0 0 0 3.5-2.6 15.8 15.8 0 0 0 3-18.2L255 85.2l-14.2 28.7a15.8 15.8 0 0 0 6.5 20.8z"></path><path d="M215.6 232.4a6.5 6.5 0 1 0 6.5 6.5 6.5 6.5 0 0 0-6.5-6.5z"></path><path d="M256 233.5a6.5 6.5 0 1 0 6.6 6.5 6.5 6.5 0 0 0-6.5-6.5z"></path><path d="M296.5 233.5a6.5 6.5 0 1 0 6.6 6.5 6.5 6.5 0 0 0-6.6-6.5z"></path><circle cx="168.2" cy="312.6" r="8.6"></circle><path d="M214.4 368.1a8.6 8.6 0 1 0 8.6 8.6 8.6 8.6 0 0 0-8.6-8.6z"></path><circle cx="283.4" cy="312.6" r="8.6"></circle><path d="M345.8 368.1a8.6 8.6 0 1 0 8.6 8.6 8.6 8.6 0 0 0-8.6-8.6z"></path></svg>