<svg xmlns="http://www.w3.org/2000/svg" viewBox="0 0 510.2 510.2"><path d="M353.2 424.1H157.5a28.3 28.3 0 0 1-28.3-28.3V114.6a28.3 28.3 0 0 1 28.3-28.3h195.7a28.3 28.3 0 0 1 28.3 28.3v281.2a28.2 28.2 0 0 1-28.3 28.3zm0-309.5H157.5v281.2h195.7V114.6z"></path><circle cx="200.3" cy="355.7" r="17.3"></circle><circle cx="313.2" cy="355.7" r="17.3"></circle><circle cx="256.7" cy="355.7" r="17.3"></circle><circle cx="200.3" cy="299.4" r="17.3"></circle><circle cx="313.2" cy="299.4" r="17.3"></circle><circle cx="256.7" cy="299.4" r="17.3"></circle><g><circle cx="200.3" cy="243.3" r="17.3"></circle><circle cx="313.2" cy="243.3" r="17.3"></circle><circle cx="256.7" cy="243.3" r="17.3"></circle></g><path d="M331.3 204.9H182.6V133h148.7v71.9zm-138.5-11h128.3V144H192.8v49.9z"></path></svg>