<svg xmlns="http://www.w3.org/2000/svg" viewBox="0 0 510.2 510.2"><path d="M170.1 354.3a14.2 14.2 0 1 1 0-28.4 14.2 14.2 0 0 1 0 28.4zm0-42.5a14.2 14.2 0 1 1 0-28.4 14.2 14.2 0 0 1 0 28.4zm0-42.5a14.2 14.2 0 1 1 0-28.4 14.2 14.2 0 0 1 0 28.4zm42.5 85a14.2 14.2 0 1 1 0-28.4 14.2 14.2 0 0 1 0 28.4zm0-42.5a14.2 14.2 0 1 1 0-28.4 14.2 14.2 0 0 1 0 28.4zm127.6-113.4a14.2 14.2 0 1 1 0 28.4 14.2 14.2 0 0 1 0-28.4zm0 42.5a14.2 14.2 0 1 1 0 28.4 14.2 14.2 0 0 1 0-28.4zm0 42.6a14.2 14.2 0 1 1 0 28.4 14.2 14.2 0 0 1 0-28.4zm-42.6-85.1a14.2 14.2 0 1 1 0 28.4 14.2 14.2 0 0 1 0-28.4zm0 42.5a14.2 14.2 0 1 1 0 28.4 14.2 14.2 0 0 1 0-28.4zm0 42.6a14.2 14.2 0 1 1 0 28.4 14.2 14.2 0 0 1 0-28.4zm-42.5-85.1a14.2 14.2 0 1 1 0 28.4 14.2 14.2 0 0 1 0-28.4zm0 42.5a14.2 14.2 0 1 1 0 28.4 14.2 14.2 0 0 1 0-28.4zm0 42.6a14.2 14.2 0 1 1 0 28.4 14.2 14.2 0 0 1 0-28.4zm0 42.5a14.2 14.2 0 1 1 0 28.4 14.2 14.2 0 0 1 0-28.4zm-28.3-70.9a14.2 14.2 0 1 1-28.4 0 14.2 14.2 0 0 1 28.4 0z"></path><path d="M382.7 113.4h-28.3V85H326v28.3H212.6v28.3H326v28.3h28.3v-28.3h28.3c7.8 0 14.2 6.4 14.2 14.2v226.8c0 7.8-6.4 14.2-14.2 14.2h-255c-7.8 0-14.2-6.4-14.2-14.2V155.9c0-7.8 6.4-14.2 14.2-14.2h28.3V170h28.3V85h-28.3v28.3h-28.3a42.6 42.6 0 0 0-42.5 42.5v226.8a42.6 42.6 0 0 0 42.5 42.5h255.1a42.6 42.6 0 0 0 42.5-42.5V155.9a42.6 42.6 0 0 0-42.5-42.5z"></path><circle cx="255.1" cy="212.6" r="14.2"></circle><circle cx="297.6" cy="212.6" r="14.2"></circle><circle cx="170.1" cy="255.1" r="14.2"></circle><circle cx="212.6" cy="255.1" r="14.2"></circle><circle cx="255.1" cy="255.1" r="14.2"></circle><circle cx="297.6" cy="255.1" r="14.2"></circle><circle cx="340.2" cy="212.6" r="14.2"></circle><circle cx="340.2" cy="255.1" r="14.2"></circle><circle cx="297.6" cy="297.6" r="14.2"></circle><circle cx="340.2" cy="297.6" r="14.2"></circle><circle cx="170.1" cy="297.6" r="14.2"></circle><circle cx="212.6" cy="297.6" r="14.2"></circle><circle cx="255.1" cy="297.6" r="14.2"></circle><circle cx="170.1" cy="340.2" r="14.2"></circle><circle cx="212.6" cy="340.2" r="14.2"></circle><circle cx="255.1" cy="340.2" r="14.2"></circle></svg>