<svg xmlns="http://www.w3.org/2000/svg" viewBox="0 0 510.2 510.2"><path d="M396.9 396.4H113.4A28.4 28.4 0 0 1 85 368V186.6a28.3 28.3 0 0 1 28.3-28.3h39l12.8-14.5 15.2-18.1a32.9 32.9 0 0 1 25.2-11.8h94.6c9.8 0 19 4.3 25.2 11.8l15.3 18.3.4.5 10.6 13.9h45a28.3 28.3 0 0 1 28.3 28.3V368a28 28 0 0 1-28 28.4zM113.4 186.6V368h283.5V186.6h-52a14 14 0 0 1-11.2-5.6L319 161.8l-15.1-18.1c-.9-1-2.1-1.6-3.5-1.6h-94.6c-1.4 0-2.6.6-3.5 1.6L187 162l-.3.3-17.2 19.4c-2.7 3-6.5 4.8-10.6 4.8h-45.5z"></path><circle cx="361.7" cy="219.2" r="14.2"></circle><path d="M255.7 338.5a76.7 76.7 0 0 1-76.6-76.6c0-42.2 34.4-76.6 76.6-76.6s76.6 34.4 76.6 76.6a76.6 76.6 0 0 1-76.6 76.6zm0-124.8a48.2 48.2 0 1 0 0 96.5 48.2 48.2 0 0 0 0-96.5z"></path></svg>