<svg xmlns="http://www.w3.org/2000/svg" viewBox="0 0 510.2 510.2"><path d="M168.9 257h28.3v42h-28.3z" transform="rotate(-89.9 183 278)"></path><path d="M314.9 257h28.3v42h-28.3z" transform="rotate(-89.9 329 278)"></path><path d="M252.2 139.3h-.2l-56.9.1c-19 2.8-33 13.7-41.5 32.5l-21.8 47.3a22.5 22.5 0 0 0-18.2 22v96.3H143c-.8 3.3-1.3 6.7-1.3 10.2v22.9h29v-22.9c0-4.2 2.3-8.1 5.9-10.2h159.5c3.8 2 6.2 6 6.3 10.4l.2 22.4 29-.2-.2-22.4c0-3.5-.5-6.9-1.4-10.1h28.2v-96.3c0-10.9-7.8-20-18.2-22L358.2 172a52 52 0 0 0-41.5-32.5l-36.9-.1v-.1h-27.6zm-72.8 44.5v-.1c4.4-9.8 9.9-14.5 18.9-16l57.6-.5 57.6.5c9 1.6 14.5 6.3 18.9 16l16.2 35.1H163.3l16.1-35zm-37.3 63.4h227.7v61.9H142.1v-61.9z"></path></svg>