<svg xmlns="http://www.w3.org/2000/svg" viewBox="0 0 510.2 510.2"><path d="M336.5 110.3A56 56 0 0 0 291.2 98l-89.4 15.4a55.6 55.6 0 0 0-44.6 68.2l4.3 17.6 28.2-7-4.3-17.6a26.2 26.2 0 0 1 3.6-20.9c4-6.2 10.5-10.4 17.7-11.6l89.4-15.4a26.7 26.7 0 0 1 31.2 26.2v203.7a26.5 26.5 0 0 1-26.6 26.6l-2.8-.1-44.2-4.7a26.5 26.5 0 0 1-23-20.1l-2.2-9-28.2 7 2.2 9a55.7 55.7 0 0 0 48.2 42l44.2 4.7a56.3 56.3 0 0 0 43-14 55.7 55.7 0 0 0 18.4-41.4V152.8c0-16.4-7.2-31.9-19.8-42.5z"></path><path d="M195.6 216.8l-28.2 7 26.2 109.3 28.2-7-26.2-109.3zm10.3 102.7a8 8 0 0 1-9.6-5.7 8 8 0 0 1 5.7-9.6 8 8 0 0 1 9.6 5.7 7.8 7.8 0 0 1-5.7 9.6z"></path></svg>