<svg xmlns="http://www.w3.org/2000/svg" viewBox="0 0 510.2 510.2"><path d="M127.6 251.6H241v7.1H127.6z"></path><path d="M127.6 272.8h85v7.1h-85z"></path><path d="M127.6 368.5h255.1a42.6 42.6 0 0 0 42.5-42.5V184.3a42.6 42.6 0 0 0-42.5-42.5H127.6a42.6 42.6 0 0 0-42.5 42.5V326a42.5 42.5 0 0 0 42.5 42.5zm-14.2-184.2c0-7.8 6.4-14.2 14.2-14.2h35.9l30.5 36.4a56.5 56.5 0 0 0 43.4 20.3h39v-28.3h-39c-8.4 0-16.3-3.7-21.7-10.1l-15.3-18.2h182.3c7.8 0 14.2 6.4 14.2 14.2V326c0 7.8-6.4 14.2-14.2 14.2H127.6c-7.8 0-14.2-6.4-14.2-14.2V184.3z"></path></svg>