<svg xmlns="http://www.w3.org/2000/svg" viewBox="0 0 510.2 510.2"><path d="M159.8 377.4v-6.8l17.3-26c2-3 2.9-6.5 2.9-9.3 0-3.6-1.6-6.2-5.6-6.2-3.7 0-5.3 2.3-5.9 5.5-.2 1-.2 2.1-.2 3.2h-7.9l.1-2.8c.7-8.3 6.6-11.7 14.1-11.7 8.8 0 13.6 3.8 13.6 12.5a30 30 0 0 1-6.7 16.6l-13.3 19.2h20v6h-28.4z"></path><path d="M209.3 378.4c-13.1 0-14.1-9.3-14.1-23v-12.9c0-10.3 2.2-19.4 14.3-19.4 12.5 0 13.8 8.2 13.8 18.9v13.2c.1 12.8-.8 23.2-14 23.2zm6.1-31.1c0-11 .3-18.4-5.9-18.4-6.1 0-6.3 7.7-6.3 18.4v7.8c0 10.4.2 17.5 6.2 17.5 6.5 0 6.1-8.8 6.1-17.2v-8.1z"></path><path d="M396.9 276.4h-14.2v28.3h14.2v92.1H113.4v-92.1h85v-28.3h-85a28.3 28.3 0 0 0-28.3 28.3v92.1a28.3 28.3 0 0 0 28.3 28.3h283.5a28.3 28.3 0 0 0 28.3-28.3v-92.1a28.3 28.3 0 0 0-28.3-28.3z"></path><path d="M311 151.3a85 85 0 1 0-104.6 94.1A85 85 0 1 0 311 151.3zm-20.4 139.3a56.7 56.7 0 1 1 0-113.4 56.7 56.7 0 0 1 0 113.4zM170.1 163a56.7 56.7 0 0 1 111.7-13.7 85.2 85.2 0 0 0-74.4 67 56.9 56.9 0 0 1-37.3-53.3z"></path><g><path d="M289.9 262.4c-9.2 0-14-4.3-14-13.8h8.3c0 4.3 1.2 7.7 5.9 7.7 5.8 0 6.4-5.7 6.4-13.9 0-4.7-.4-11.1-6.1-11.1-3.4 0-5.6 2.4-6.1 5.5h-8l1-31.4h26v6.2h-18.2l-.8 17.7c2.5-2.6 4.7-3.9 8.8-3.9 10.1 0 11.8 8 11.8 16.9.3 11.6-1.9 20.1-15 20.1z"></path></g></svg>