<svg xmlns="http://www.w3.org/2000/svg" viewBox="0 0 510.2 510.2"><path d="M396.7 397.1l-283.5-.9a28.3 28.3 0 0 1-28.3-28.3v-46.8a28.3 28.3 0 0 1 28.3-28.3l283.5.9A28.3 28.3 0 0 1 425 322v46.8a28.3 28.3 0 0 1-28.3 28.3zm-283.5-75.9V368l283.5.9v-46.8l-283.5-.9z"></path><path d="M404.5 274.4h-28.3V146.8c0-3.9-3.2-7.1-7.1-7.1H142.3a7.1 7.1 0 0 0-7.1 7.1v127.6h-28.3V146.8a35.5 35.5 0 0 1 35.4-35.4H369a35.5 35.5 0 0 1 35.4 35.4v127.6z"></path><circle cx="257.8" cy="345.1" r="14.2"></circle><path d="M335.1 217.2v-18.7c0-1.5 1.2-2.7 2.7-2.7h13.6c1.5 0 2.7 1.2 2.7 2.7v18.7c0 1.5-1.2 2.7-2.7 2.7h-13.6c-1.5.1-2.7-1.2-2.7-2.7z"></path><path d="M308.8 217.2v-18.7c0-1.5 1.2-2.7 2.7-2.7H325c1.5 0 2.7 1.2 2.7 2.7v18.7c0 1.5-1.2 2.7-2.7 2.7h-13.6c-1.4.1-2.6-1.2-2.6-2.7z"></path><path d="M282.4 217.2v-18.7c0-1.5 1.2-2.7 2.7-2.7h13.6c1.5 0 2.7 1.2 2.7 2.7v18.7c0 1.5-1.2 2.7-2.7 2.7h-13.6c-1.5.1-2.7-1.2-2.7-2.7z"></path><path d="M335.1 185.4v-18.7c0-1.5 1.2-2.7 2.7-2.7h13.6c1.5 0 2.7 1.2 2.7 2.7v18.7c0 1.5-1.2 2.7-2.7 2.7h-13.6a2.7 2.7 0 0 1-2.7-2.7z"></path><path d="M308.8 185.4v-18.7c0-1.5 1.2-2.7 2.7-2.7H325c1.5 0 2.7 1.2 2.7 2.7v18.7c0 1.5-1.2 2.7-2.7 2.7h-13.6a2.7 2.7 0 0 1-2.6-2.7z"></path><path d="M282.4 185.4v-18.7c0-1.5 1.2-2.7 2.7-2.7h13.6c1.5 0 2.7 1.2 2.7 2.7v18.7c0 1.5-1.2 2.7-2.7 2.7h-13.6a2.7 2.7 0 0 1-2.7-2.7z"></path><path d="M283 249.4v-19.7c0-1.6 1.3-2.9 2.9-2.9h26.4c1.6 0 2.9 1.3 2.9 2.9v19.7c0 1.6-1.3 2.9-2.9 2.9h-26.4a2.9 2.9 0 0 1-2.9-2.9z"></path><path d="M322.4 249.4v-19.7c0-1.6 1.3-2.9 2.9-2.9h26.4c1.6 0 2.9 1.3 2.9 2.9v19.7c0 1.6-1.3 2.9-2.9 2.9h-26.4a2.9 2.9 0 0 1-2.9-2.9z"></path><path d="M269.7 255.5h-114v-96.4h113.9v96.4zm-103-11h91.9v-74.4h-91.9v74.4z"></path></svg>