<svg xmlns="http://www.w3.org/2000/svg" viewBox="0 0 510.2 510.2"><path d="M425.3 177.7a28.1 28.1 0 0 0-28.3-28.3h-.1l-283.5.6a28.4 28.4 0 0 0-28.3 28.5l.2 21.2a28.5 28.5 0 0 0 28.3 28.3h.1l32.4-.1v-28.3l-32.5.1-.2-21.3 54.9-.1v148.3a34.4 34.4 0 0 0 34.3 34.3H317a34.4 34.4 0 0 0 34.3-34.3V177.8l45.6-.1.2 21.3-26.3.1v28.3l26.3-.1a28.1 28.1 0 0 0 28.3-28.5l-.1-21.1zm-211.2.4v59.8c0 6.8-3 13.2-8.2 17.5l-14.7 12.3v-89.6h22.9zm114.3 148.4c0 6.3-5.1 11.4-11.4 11.4H202.6c-6.3 0-11.4-5.1-11.4-11.4v-29l29.4-24.6a45.5 45.5 0 0 0 16.3-35V178l91.5-.2v148.7z"></path><path d="M257 235h5.7v91.5H257z"></path><path d="M274.1 257.9h5.7v68.6h-5.7z"></path></svg>