<svg xmlns="http://www.w3.org/2000/svg" viewBox="0 0 510.2 510.2"><path d="M247.6 185.4c-4.7 0-5.9-3.4-5.9-7.7h-8.3c0 9.6 4.7 13.8 14 13.8 13.1 0 15.2-8.5 15.2-20.2 0-8.9-1.7-16.9-11.8-16.9-4.2 0-6.3 1.3-8.8 3.9l.8-17.7H261v-6.2h-26l-1 31.4h8c.5-3.2 2.7-5.5 6.1-5.5 5.7 0 6.1 6.5 6.1 11.1-.2 8.3-.7 14-6.6 14z"></path><path d="M218.2 242.6l23.3-23.3a56.7 56.7 0 1 1 62.8-62.8l23.3-23.3a85 85 0 1 0-109.4 109.4z"></path><path d="M308.6 281.3c2.8-4.1 6.7-10 6.7-16.6 0-8.7-4.8-12.5-13.6-12.5-7.5 0-13.4 3.4-14.1 11.7l-.1 2.8h7.9l.2-3.2c.5-3.2 2.2-5.5 5.9-5.5 4.1 0 5.6 2.6 5.6 6.2 0 2.9-.9 6.3-2.9 9.3l-17.3 26v6.8h28.5v-6h-20l13.2-19z"></path><path d="M336.6 252.3c-12.2 0-14.3 9.1-14.3 19.4v12.9c0 13.7 1.1 23 14.1 23 13.2 0 14-10.4 14-23.1v-13.2c0-10.8-1.3-19-13.8-19zm-.2 49.4c-5.9 0-6.2-7.1-6.2-17.5v-7.8c0-10.7.2-18.4 6.3-18.4 6.2 0 5.9 7.4 5.9 18.4v8.1c.1 8.5.5 17.2-6 17.2z"></path><path d="M102.1 428.1l73.8-73.8h220.9a28.3 28.3 0 0 0 28.3-28.3v-92.1a28.3 28.3 0 0 0-28.3-28.3h-72.1l103.4-103.4-20-20L164.2 326h-50.8v-92.1h42.5v-28.3h-42.5a28.3 28.3 0 0 0-28.3 28.3V326a28.3 28.3 0 0 0 28.3 28.3h22.5l-53.8 53.8 20 20zm194.3-194.2h100.4V326H204.3l92.1-92.1z"></path></svg>