<svg xmlns="http://www.w3.org/2000/svg" viewBox="0 0 510.2 510.2"><path d="M406 131l-15 45-26-41-12-19c-8-13-22-22-37-24l-27-4-3 16 28 4c10 2 20 8 25 17l12 19 26 41-47-7-2 17 71 9 22-68-15-5z"></path><path d="M184 399c-11-3-20-10-25-19l-10-20-22-43 46 10 4-16-70-16-28 67 15 6 18-44 22 43 10 20c8 14 20 24 36 28l27 6 3-16-26-6z"></path><path d="M318 213l-5 30a61 61 0 0 1-9 121c-31 0-56-22-60-52l-30 6a92 92 0 1 0 104-105z"></path><path d="M205 296a92 92 0 1 0 0-184 92 92 0 0 0 0 184zm0-153a61 61 0 0 1 0 122 61 61 0 0 1 0-122z"></path><path d="M176 226c4 0 7-1 9-3 2-3 3-6 3-10v-2h-7v2l-1 5c-1 2-2 2-4 2-3 0-4-1-5-3l-1-13 1-11c1-3 2-4 5-4s5 2 5 7h7c0-5-1-8-3-10s-5-3-9-3c-6 0-10 2-12 6l-2 15 2 16c2 4 6 6 12 6z"></path><path d="M202 206h10v19h8v-41h-8v17h-10v-17h-8v41h8z"></path><path d="M236 207h12v-6h-12v-11h12v-6h-20v41h8z"></path><path d="M323 287l-4-3-6-2-4 1-3 3-1 4-1 5h16l-1 6h-15v6h13l-1 7h-12l1 6 1 4c0 2 1 2 2 3l5 1 6-1 4-3v9l-4 2-6 1-9-2c-3-1-5-2-6-4l-3-6-1-10h-7l1-7h6v-6h-7l1-6h6l1-8 4-7 5-4 10-1a20 20 0 0 1 7 1 15 15 0 0 1 4 2l-2 9z"></path></svg>