<svg xmlns="http://www.w3.org/2000/svg" viewBox="0 0 510.2 510.2"><path d="M110.2 114v10.2l-.2 65.3a47 47 0 0 0 32.6 44.6v137.4c0 14 10.8 25.3 24 25.3h89.2v-28.3h-28.5V307H199v61.3h-28V234.3a47 47 0 0 0 18.7-11.3 46.8 46.8 0 0 0 65.6 0 46.8 46.8 0 0 0 65.7 0 47 47 0 0 0 19.6 11.5v29l28.3.2V234a47 47 0 0 0 31.8-44.4V114zm65.4 75.5a18.6 18.6 0 0 1-37.3 0l.2-47.1h37.3zm65.6 0h-.1a18.6 18.6 0 0 1-37.2.3l.3-47.5h37zm65.6.3a18.6 18.6 0 0 1-37.2-.3v-47.1H307l-.1 47zm65.5 1.3a18.6 18.6 0 0 1-37.1-1.6v-47.1h37.2l-.1 47z"></path><path d="M370.6 337.7l14-9.6A14.6 14.6 0 0 0 391 314v-.3a14.7 14.7 0 0 0-9.7-11.4l-86.1-29a14.7 14.7 0 0 0-14.3 2.8l-1 .8-.1.2a14.7 14.7 0 0 0-4 12.2l12.6 90a14.7 14.7 0 0 0 9.4 11.7l.3.1a14.5 14.5 0 0 0 15-3.5l12-12 17.7 20.7a14.4 14.4 0 0 0 11.1 5.1 13.6 13.6 0 0 0 2-.1 14.8 14.8 0 0 0 6.8-2.8l23.2-19.3.3-.3a14.8 14.8 0 0 0 4-6 14.6 14.6 0 0 0-2.4-13.9zm-7.3-19.8l-22.5 15.4 27.3 34-13.6 11.2-28.2-33-19.4 19.1-9.6-69z"></path></svg>