<svg xmlns="http://www.w3.org/2000/svg" viewBox="0 0 510.2 510.2"><path d="M179.4 114.3L165.5 100l-14 14.3h-.2v283l14.2 13.3 14.1-13.3v-283z"></path><path d="M225.8 113.9h-.2l-13.9-14.2-14 14.2h-.2z"></path><path d="M272 113.9h-.3l-13.8-14.2-14 14.2h-.3z"></path><path d="M318.1 113.9h-.2L304 99.7l-14 14.2h-.2z"></path><path d="M288.1 396.3h.3l13.8 14.3 14-14.3h.3z"></path><path d="M242 396.3h.2l13.9 14.3 14-14.3h.2z"></path><path d="M195.8 396.3h.2l13.9 14.3 14-14.3h.2z"></path><path d="M364.1 114.3L350.2 100l-14 14.3h-.2v283l14.2 13.3 14.1-13.3v-283z"></path><path d="M302.7 173.9a7 7 0 0 0-8.1-.4l-18.2 9.7-12.2-23.9a6.9 6.9 0 0 0-6.3-4 7.1 7.1 0 0 0-6.4 3.9l-13 24.1-17.7-9.5a7 7 0 0 0-8.1.1 7.2 7.2 0 0 0-2.4 8.1l15.1 42a7 7 0 0 0 6.5 4.6l50.4-.1a7 7 0 0 0 6.5-4.5l16-42a7 7 0 0 0-2.1-8.1zM280.5 219l-46.7.1-12.2-33.9 20.7 11.1 15.4-28.4 14.5 28.4 21.2-11.3-12.9 34z"></path><ellipse cx="257.6" cy="143.9" rx="6.9" ry="6.9" transform="rotate(-89.4 257.6 143.9) scale(.99996)"></ellipse><ellipse cx="308.9" cy="165.1" rx="6.9" ry="6.9" transform="rotate(-89.4 309 165) scale(.99996)"></ellipse><ellipse cx="206.4" cy="165.2" rx="6.9" ry="6.9" transform="rotate(-89.4 206.4 165.2) scale(.99996)"></ellipse><path d="M193.7 255.8h85.7v7.1h-85.7z"></path><path d="M193.7 359.2h53.2v7.1h-53.2z"></path><path d="M297.2 255.8h25.7v7.1h-25.7z"></path><path d="M297.4 277h25.7v7.1h-25.7z"></path><path d="M297.4 298.3h25.7v7.1h-25.7z"></path><path d="M297.4 319.5h25.7v7.1h-25.7z"></path><path d="M297.4 357.5h25.7v7.1h-25.7z"></path><path d="M193.7 277h85.7v7.1h-85.7z"></path><path d="M193.7 298.3h85.7v7.1h-85.7z"></path><path d="M193.7 319.5h85.7v7.1h-85.7z"></path></svg>