<svg id="Layer_1" enable-background="new 0 0 512 512" viewBox="0 0 512 512" xmlns="http://www.w3.org/2000/svg"><g><path d="m411.4478 0h-310.896c-55.4444 0-100.5518 45.1074-100.5518 100.5522v310.896c0 55.4444 45.1074 100.5518 100.5518 100.5518h310.896c55.4448 0 100.5522-45.1074 100.5522-100.5518v-310.896c0-55.4448-45.1074-100.5522-100.5522-100.5522zm-12.4341 415.5962h-24v-12c0-65.6245-53.3892-119.0137-119.0137-119.0137-65.6089 0-118.9858 53.3892-118.9858 119.0137v12h-24v-12c0-60.3486 37.5664-112.0861 90.538-133.049-26.7911-16.6031-44.6747-46.2638-44.6747-80.0258 0-51.8809 42.2212-94.0894 94.1177-94.0894 51.8809 0 94.0894 42.2085 94.0894 94.0894 0 32.811-16.886 61.7479-42.4201 78.5916 54.9721 19.9539 94.3493 72.7046 94.3493 134.4832v12z" /><path d="m252.9951 120.4321c-38.6631 0-70.1177 31.4419-70.1177 70.0894s31.4546 70.0894 70.1177 70.0894c38.6475 0 70.0894-31.4419 70.0894-70.0894s-31.4419-70.0894-70.0894-70.0894z" /></g></svg>