<svg xmlns="http://www.w3.org/2000/svg" viewBox="0 0 510.2 510.2"><path d="M277.6 257.5a28 28 0 0 1-8.3-20v-110H241v110c0 15.1 5.9 29.4 16.6 40.1l56.8 56.8a97.2 97.2 0 0 0 20-20l-56.8-56.9z"></path><path d="M255.1 85A170.3 170.3 0 0 0 85 255.1c0 93.8 76.3 170.1 170.1 170.1s170.1-76.3 170.1-170.1S348.9 85 255.1 85zm118.2 248.2a136.4 136.4 0 0 1-28.5 31.5 140.6 140.6 0 0 1-89.6 32A141.8 141.8 0 0 1 113.5 255c0-78.2 63.6-141.7 141.7-141.7S396.9 177 396.9 255.1c0 28.9-8.7 55.7-23.6 78.1z"></path></svg>