<svg xmlns="http://www.w3.org/2000/svg" viewBox="0 0 510.2 510.2"><path d="M236.7 370.7h-75.5c-18 0-35.4-6.2-49-17.5a73 73 0 0 1-11.4-100.5 74.8 74.8 0 0 1 42.6-27.2c-.4-38.3 17.7-67.4 50.7-80.8 31.9-12.9 64.2-5.1 91.8 21.9a63.2 63.2 0 0 1 66.5 4.9c20.5 14 30 34 27.9 58.5a76.2 76.2 0 0 1 31.7 26.5 70.1 70.1 0 0 1 12.2 46.8 74 74 0 0 1-66.1 66.8c-3.4.4-6.8.6-10.2.6H236.7zM224.3 167c-6.4 0-12.9 1.3-19.5 4-31.4 12.7-34.9 42.3-32.3 64.9l1.6 14.2-17.4 1.8a48.4 48.4 0 0 0-33.5 18.1 45 45 0 0 0-8.6 34.6 46.5 46.5 0 0 0 46.6 37.8H347.8c2.3 0 4.6-.1 6.9-.4a45.7 45.7 0 0 0 41.2-41.8c2.1-19.7-11.7-39.6-32.2-46.2l-3.1-1.1-1-.4-11.8-4.3 2.8-12.2c4.2-18.5-.3-31.6-14.3-41.1-14.5-9.9-29-9.5-45.4 1.3l-10.4 6.8-8.1-9.4c-15.3-17.7-31.5-26.6-48.1-26.6z"></path></svg>