<svg xmlns="http://www.w3.org/2000/svg" viewBox="0 0 510.2 510.2"><path d="M147.4 187.3h211.3v28.3H147.4z"></path><path d="M176 147.3h151.5v28.3H176z"></path><path d="M314.9 226.8l-18.7 166.1-.1.7a4.4 4.4 0 0 1-4.4 4.1h-72.6a4.4 4.4 0 0 1-4.4-4.2v-.4l-18.8-166.4h-28.5l19.1 169a32.9 32.9 0 0 0 32.7 30.3h72.6a32.9 32.9 0 0 0 32.7-30.3l19.1-169h-28.7z"></path><path d="M267.7 134.3l-9.9-1.1 1.8-17.2c.4-4.1-1-8.1-3.8-11.1L263 98a24 24 0 0 1 6.6 19.1l-1.9 17.2z"></path><path d="M244.3 116.7a24 24 0 0 1-7-18.8l1.4-25.7 10 .6-1.5 25.9a14 14 0 0 0 4 11l-6.9 7z"></path></svg>