<svg xmlns="http://www.w3.org/2000/svg" viewBox="0 0 510.2 510.2"><path d="M163 432.3a85 85 0 1 1 .1-170.1 85 85 0 0 1-.1 170.1zm0-141.8a56.7 56.7 0 1 0 0 113.4 56.7 56.7 0 0 0 0-113.4z"></path><path d="M360.4 171.1l-4.7 28a56.8 56.8 0 1 1-64.6 64.1l-27.9 5.3a85.1 85.1 0 1 0 97.2-97.4z"></path><path d="M255.1 78a85 85 0 1 0 .1 170.1 85 85 0 0 0-.1-170.1zm0 141.7a56.7 56.7 0 1 1 0-113.4 56.7 56.7 0 0 1 0 113.4z"></path><path d="M254.5 191.5c-9.2 0-14-4.3-14-13.8h8.3c0 4.3 1.2 7.7 5.9 7.7 5.8 0 6.4-5.7 6.4-13.9 0-4.7-.4-11.1-6.1-11.1-3.4 0-5.6 2.4-6.1 5.5h-8l1-31.4h26v6.2h-18.2l-.8 17.7c2.5-2.6 4.7-3.9 8.8-3.9 10.1 0 11.8 8 11.8 16.9.2 11.6-1.9 20.1-15 20.1z"></path></svg>