<svg viewBox="0 0 48 48" xmlns="http://www.w3.org/2000/svg"><g id="setting_manage" data-name="setting manage"><path d="m26 13c-.61 0-.29.13-7.42-7h-11.58a1 1 0 0 0 -1 1v34a1 1 0 0 0 1 1h34a1 1 0 0 0 1-1v-28zm-7-3a1 1 0 0 1 0 2 1 1 0 0 1 0-2zm-8 2a1 1 0 0 1 0-2 1 1 0 0 1 0 2zm3-1a1 1 0 0 1 2 0 1 1 0 0 1 -2 0zm19 15.67a2.57 2.57 0 0 1 .74 1.81c0 .88-.24 1.1-1.76 3.75a2.55 2.55 0 0 1 -2.88 1.2 8 8 0 0 1 -1.16.68 2.6 2.6 0 0 1 -2.52 1.89h-2.84a2.6 2.6 0 0 1 -2.49-1.89 8 8 0 0 1 -1.16-.68c-2.35.62-3.2-1.76-4.3-3.66a2.6 2.6 0 0 1 .4-3.1 7.5 7.5 0 0 1 0-1.34 2.59 2.59 0 0 1 -.4-3.1c1.13-2 2-4.27 4.3-3.66a8 8 0 0 1 1.16-.68 2.6 2.6 0 0 1 2.49-1.89h2.84a2.6 2.6 0 0 1 2.49 1.89 8 8 0 0 1 1.16.68 2.55 2.55 0 0 1 2.93 1.2c1.47 2.55 1.76 2.82 1.76 3.75a2.57 2.57 0 0 1 -.76 1.81 7.5 7.5 0 0 1 0 1.34z" /><path d="m41 6h-19.58c2.77 2.78-2.46-2.48 5 5h15.58v-4a1 1 0 0 0 -1-1z" /><path d="m27.93 25.23a4 4 0 1 0 -6.46 3.87 4 4 0 0 0 6.46-3.87z" /></g></svg>