<svg xmlns="http://www.w3.org/2000/svg" viewBox="0 0 510.2 510.2"><path d="M304.4 260.5H326a48.7 48.7 0 1 0 0-10h-21.7V140.3H326a48.7 48.7 0 1 0 0-10h-21.7V105a18 18 0 0 0-17.6-18.4h-63.2A18 18 0 0 0 206 105v23.7h-21.8v-24c0-10-7.8-18.1-17.5-18.1h-62.3c-9.6 0-17.4 8.1-17.4 18.1v61c0 10 7.8 18.1 17.4 18.1h62.4c9.6 0 17.4-8 17.4-18v-27H206V249h-21.8v-24c0-10-7.8-18.1-17.5-18.1h-62.3C94.9 206.9 87 215 87 225v61c0 10 7.8 18.1 17.4 18.1h62.4c9.6 0 17.4-8.1 17.4-18.1v-27H206v109.4h-21.8v-24c0-10-7.8-18.1-17.5-18.1h-62.3c-9.6 0-17.4 8.1-17.4 18.1v61c0 10 7.8 18.1 17.4 18.1h62.4c9.6 0 17.4-8.1 17.4-18.1v-27H206v26.8a18 18 0 0 0 17.5 18.4h63.2a18 18 0 0 0 17.6-18.4v-25.3H326a48.7 48.7 0 1 0 0-10h-21.7zm70.1-32.6a27.7 27.7 0 1 1-27.6 27.6 27.7 27.7 0 0 1 27.6-27.6zm0-120.3a27.7 27.7 0 1 1-27.6 27.7 27.7 27.7 0 0 1 27.6-27.7zM163.3 163H108v-55.3h55.3zm0 120.2H108v-55.2h55.3zm0 119.4H108v-55.2h55.3zm120 .1h-56.2v-295h56.3zm91.2-55.3a27.7 27.7 0 1 1-27.6 27.6 27.7 27.7 0 0 1 27.6-27.6z"></path></svg>