<svg xmlns="http://www.w3.org/2000/svg" viewBox="0 0 510.2 510.2"><path d="M303.4 438.4l-20-20A229.2 229.2 0 0 0 351 255.2c0-61.6-24-119.6-67.6-163.2l20-20c48.9 48.9 75.9 114 75.9 183.2s-27 134.2-75.9 183.2z"></path><path d="M249.2 389.5l-20-20a159.6 159.6 0 0 0 0-225.5l20-20a188 188 0 0 1 0 265.5z"></path><path d="M195 337.1l-20-20a87 87 0 0 0 0-123.8l20-20c21.9 21.9 34 51 34 82a115 115 0 0 1-34 81.8z"></path><path d="M140.8 291.7l-20-20a23.2 23.2 0 0 0 0-33l20-20a51.4 51.4 0 0 1 0 73z"></path></svg>