<svg xmlns="http://www.w3.org/2000/svg" viewBox="0 0 510.2 510.2"><path d="M142.4 455.9H355V238L248 115.7H142.4a42.6 42.6 0 0 0-42.5 42.5v255.1c0 23.5 19 42.6 42.5 42.6zm113.4-288.3l53.8 61.5h-53.8v-61.5zm-127.6-9.3c0-7.8 6.4-14.2 14.2-14.2h85v113.4h99.2v170.1H142.4c-7.8 0-14.2-6.4-14.2-14.2V158.3z" /><path d="M311.1 106.19999999999999l53.8 61.5h-53.8v-61.5zM183.5 132.4V96.9c0-7.8 6.4-14.2 14.2-14.2h85v113.4h99.2v170.1h-40.1v28.3h68.5V176.6l-107-122.3H197.7a42.6 42.6 0 0 0-42.5 42.5l.3 35.6h28z" /></svg>