<svg xmlns="http://www.w3.org/2000/svg" viewBox="0 0 510.2 510.2"><path d="M250.2 160.9a57 57 0 0 1 41.8-10.3c-1.7-7.2-5-13.8-9.8-19.4a42.3 42.3 0 0 0-24.7-14.4V109c0-8.1-3.6-15.8-9.8-21l-20.1-16.8-8.8 10.5 20.1 16.8c3.1 2.6 4.9 6.4 4.9 10.5v7.7a43.8 43.8 0 0 0-34.6 33.4 57.4 57.4 0 0 1 41 10.8z"></path><path d="M242.5 171.2c-7.6-5-16.6-7.9-26.2-7.9-27.5 0-49.9 23.9-49.9 53.2h57.5a64.4 64.4 0 0 1 18.6-45.3z"></path><path d="M336.4 216.5c0-29.3-22.4-53.2-49.9-53.2s-49.9 23.9-49.9 53.2h99.8z"></path><path d="M166.2 229.1h169.5l-72 195.8a10.6 10.6 0 0 1-9.7 6.9h-.1c-4.3 0-8.2-2.6-9.8-6.6l-77.9-196.1zm30.9 21.1l56.5 141.7L306 250.1l-108.9.1z"></path></svg>