<svg xmlns="http://www.w3.org/2000/svg" viewBox="0 0 510.2 510.2"><path d="M244.2 201.3c-9.2 0-14-4.3-14-13.8h8.3c0 4.3 1.2 7.7 5.9 7.7 5.8 0 6.4-5.7 6.4-13.9 0-4.7-.4-11.1-6.1-11.1-3.4 0-5.6 2.4-6.1 5.5h-8l1-31.4h26v6.2h-18.2l-.8 17.7c2.5-2.6 4.7-3.9 8.8-3.9 10.1 0 11.8 8 11.8 16.9.3 11.5-1.9 20.1-15 20.1z"></path><path d="M343.8 180.1c-.7 9.8-2.9 19.2-6.3 28.1 31 .3 56.2 25.6 56.2 56.7 0 31.3-25.4 56.7-56.7 56.7-31.1 0-56.4-25.1-56.7-56.2-8.8 3.4-18.2 5.6-28.1 6.3 3.5 43.7 40.1 78.2 84.7 78.2 46.9 0 85-38.1 85-85 .1-44.6-34.4-81.3-78.1-84.8z"></path><path d="M321 210.5a83.94 83.94 0 0 0 8.8-37.7c0-46.9-38.1-85-85-85s-85 38.1-85 85 38.1 85 85 85a83.94 83.94 0 0 0 37.7-8.8 85.9 85.9 0 0 0 38.5-38.5zm-60.2 16.6c-5.1 1.5-10.4 2.3-15.9 2.3-31.3 0-56.7-25.4-56.7-56.7s25.4-56.7 56.7-56.7c31.3 0 56.7 25.4 56.7 56.7 0 5.5-.8 10.9-2.3 15.9a57.2 57.2 0 0 1-38.5 38.5z"></path><path d="M247.6 164.2c-4.2 0-6.3 1.3-8.8 3.9l.8-17.7h18.2v-6.2h-26l-1 31.4h8c.5-3.2 2.7-5.5 6.1-5.5 5.7 0 6.1 6.5 6.1 11.1 0 8.2-.6 13.9-6.4 13.9-4.7 0-5.9-3.4-5.9-7.7h-8.3c0 9.6 4.7 13.8 14 13.8 13.1 0 15.2-8.5 15.2-20.2-.1-8.9-1.9-16.8-12-16.8z"></path><path d="M209 299.6l-.5 63.9-49.5-42 .1-.1-24.8-21.1a50.34 50.34 0 0 1-17.8-38.8l.3-40-28.3-.2-.3 40.1c-.1 23.4 10 45.4 27.8 60.6l24.4 20.7-.1.1 49.9 42.4-63 10.8 4.8 27.9L236.6 406l.8-106.1-28.4-.3z"></path></svg>