<svg xmlns="http://www.w3.org/2000/svg" viewBox="0 0 510.2 510.2"><path d="M425.6 186.9V178a28.3 28.3 0 0 0-28.3-28.3H113.8A28.3 28.3 0 0 0 85.5 178v8.9c7.8.6 14.1 7.1 14.1 15.1s-6.2 14.5-14.1 15.1h-.1v16.5h.1c7.8.6 14.1 7.1 14.1 15.1s-6.2 14.5-14.1 15.1h-.1l.1.6v14.9l-.1.9h.1c7.8.6 14.1 7.1 14.1 15.1s-6.2 14.5-14.1 15.1v8.9a28.3 28.3 0 0 0 28.3 28.3h283.5a28.3 28.3 0 0 0 28.3-28.3v-8.9a15.2 15.2 0 0 1 0-30.2v-16.5a15.2 15.2 0 0 1 0-30.2V217a15 15 0 1 1 0-30.1zM113.8 319.8V178h283.5v141.7l-283.5.1z"></path><circle cx="329.9" cy="194.7" r="5.1"></circle><circle cx="329.9" cy="216.4" r="5.1"></circle><circle cx="329.9" cy="238.1" r="5.1"></circle><circle cx="329.9" cy="259.7" r="5.1"></circle><circle cx="329.9" cy="281.4" r="5.1"></circle><circle cx="329.9" cy="303.1" r="5.1"></circle><path d="M193.9 244.6a32 32 0 0 0 5.1-19.1c0-7.8-1.6-14-4.9-18.6-3.8-5.2-9.5-7.7-17.1-7.7-7.7 0-13.6 2.6-17.5 7.7a30 30 0 0 0-5.2 18.8c0 7.8 1.7 14.1 5.1 18.8a20 20 0 0 0 17.2 8.1c7.7.1 13.5-2.6 17.3-8zm-17.3-1.7c-5.8 0-8.7-5.3-8.7-15.9 0-12 3-18 8.9-18 5.6 0 8.4 5.7 8.4 17.2 0 11.1-2.9 16.7-8.6 16.7z"></path><path d="M234 197.3l-54.9 104.3h12.3L246 197.3z"></path><path d="M249.3 245.5c-7.7 0-13.6 2.6-17.5 7.7a30 30 0 0 0-5.2 18.8c0 7.9 1.7 14.2 5.1 19 3.9 5.3 9.7 7.9 17.4 7.9 7.7 0 13.5-2.7 17.4-8a32.8 32.8 0 0 0 4.9-19.1c0-7.8-1.6-14-4.9-18.6-3.9-5.1-9.6-7.7-17.2-7.7zm-.3 43.7c-5.9 0-8.8-5.3-8.8-15.9 0-12 3-18 9.1-18 5.6 0 8.4 5.7 8.4 17.2 0 11.1-2.9 16.7-8.7 16.7z"></path></svg>