<svg xmlns="http://www.w3.org/2000/svg" viewBox="0 0 510.2 510.2"><path d="M254.3 161.3c-94.6 0-171.5 77-171.5 171.5a14.2 14.2 0 0 0 14.1 14.1c2.4 0 4.8-.6 7-1.9 49.2-28 99.4-42.2 149.2-42.2h.6c49.6.1 100.5 14.3 151.2 42.3a14.2 14.2 0 0 0 21-12.4c0-94.4-77-171.4-171.6-171.4zm-98.5 67.8l-.1.3a43.6 43.6 0 0 1 28.1 53.6c-23.6 5.6-47.2 14-70.5 25.4a142 142 0 0 1 42.5-79.3zm97.3 45.7a307 307 0 0 0-39.5 2.6 72 72 0 0 0-32.9-67.3 142.4 142.4 0 0 1 149 1.1 72 72 0 0 0-33.2 66.7c-14.5-2.1-29-3.1-43.4-3.1zm73.1 9a43.5 43.5 0 0 1 28.2-53.1 142.7 142.7 0 0 1 41 78c-23-11-46.1-19.3-69.2-24.9z"></path></svg>