<svg xmlns="http://www.w3.org/2000/svg" viewBox="0 0 510.2 510.2"><path d="M248.4 385.8L218.7 361a46 46 0 0 0 6.2-23v-28.3a46.2 46.2 0 0 0-92.2 0V338a46 46 0 0 0 6.2 23l-29.7 24.9a53 53 0 0 0-19 40.7v10.7h21.3v-10.7c0-9.5 4.2-18.4 11.4-24.4l30.7-25.7a45.7 45.7 0 0 0 50.6 0l30.7 25.6a32 32 0 0 1 11.4 24.4v10.7h21.3v-10.7a53.8 53.8 0 0 0-19.2-40.7zM154 338v-28.3a24.8 24.8 0 1 1 49.6 0V338a24.8 24.8 0 1 1-49.6 0z"></path><path d="M189.4 249.3v-7.1c0-9.5 4.2-18.4 11.4-24.4l35.7-29.9a45.8 45.8 0 0 0 40.5 0l35.7 29.8 2.6 2.4a32 32 0 0 1 8.8 22v7.1h21.3v-7.1a53.2 53.2 0 0 0-19-40.8l-32.7-27.4a45.6 45.6 0 0 0 9.2-27.6V118a46.2 46.2 0 0 0-92.2 0v28.3c0 10.3 3.4 19.9 9.2 27.6l-32.7 27.4a53 53 0 0 0-19 40.7v7.1h21.2zm42.6-131a24.8 24.8 0 1 1 49.6 0v28.3a24.8 24.8 0 1 1-49.6 0v-28.3z"></path><path d="M371.3 324.4l-3.1 18.7a37.9 37.9 0 0 1-5.6 75.2c-19 0-34.8-14.1-37.4-32.5l-18.6 3.5a56.8 56.8 0 1 0 64.7-64.9z"></path><path d="M301.1 262.2a56.8 56.8 0 0 0 0 113.4 56.8 56.8 0 0 0 0-113.4zm0 94.6a37.8 37.8 0 1 1 0-75.7 37.8 37.8 0 0 1 0 75.7z"></path><path d="M300.7 338c-6.2 0-9.3-2.8-9.3-9.2h5.5c0 2.8.8 5.1 4 5.1 3.9 0 4.3-3.8 4.3-9.3 0-3.1-.3-7.4-4.1-7.4-2.3 0-3.7 1.6-4.1 3.7h-5.3l.7-21h17.3v4.2h-12.1l-.5 11.8c1.7-1.7 3.1-2.6 5.9-2.6 6.7 0 7.9 5.3 7.9 11.3-.1 7.7-1.5 13.4-10.2 13.4z"></path></svg>