<svg xmlns="http://www.w3.org/2000/svg" viewBox="0 0 510.2 510.2"><path d="M389 227.8c-6.9-5.6-16.6-6-24-1.1l-53.6 28.6-35.9-70.3a20.4 20.4 0 0 0-18.5-11.8 20.3 20.3 0 0 0-18.7 11.3l-38.4 71-52-27.9c-7.2-5-16.7-4.9-23.9.4l-.1.1a21 21 0 0 0-7 23.9l44.5 123.6a20.5 20.5 0 0 0 19.1 13.6h.1L329 389h.1c8.5 0 16.2-5.3 19.2-13.4l47.1-123.8c3.3-8.6.6-18.4-6.4-24zm-65.4 132.7l-137.5.2-35.9-99.7 61.1 32.8 45.2-83.6 42.6 83.6 62.5-33.3-38 100z"></path><ellipse cx="256.3" cy="139.4" rx="20.4" ry="20.4" transform="rotate(-89.4 256.3 139.4) scale(.99996)"></ellipse><ellipse cx="407.4" cy="201.9" rx="20.4" ry="20.4" transform="rotate(-89.4 407.4 201.9) scale(.99996)"></ellipse><ellipse cx="105.4" cy="202.2" rx="20.4" ry="20.4" transform="rotate(-89.4 105.4 202.2) scale(.99996)"></ellipse></svg>