<svg xmlns="http://www.w3.org/2000/svg" viewBox="0 0 510.2 510.2"><path d="M307.8 344.6H200.4a73.2 73.2 0 0 0-43.6 14.6l-43 32.2 17 22.7 43-32.2a44.6 44.6 0 0 1 26.6-8.9h107.4a44.7 44.7 0 0 1 26.6 8.9l43 32.2 17-22.7-43-32.2a73.2 73.2 0 0 0-43.6-14.6z"></path><path d="M160.3 329a120.6 120.6 0 0 1-26.9-76.4 122 122 0 1 1 244 0c0 42.5-24 73-28.8 78.7l21.7 18.2c8.3-9.8 35.4-45.9 35.4-96.9 0-82.8-67.4-150.3-150.3-150.3S105 169.8 105 252.6a150.7 150.7 0 0 0 33.1 94.2z"></path><path d="M242.2 186.2a2.9 2.9 0 0 0-2.7-2h-18.9l-5.8-18a2.9 2.9 0 0 0-5.5 0l-5.8 18h-18.9a2.9 2.9 0 0 0-1.7 5.2l15.3 11-5.9 18a2.9 2.9 0 0 0 4.5 3.2l15.2-11 15.3 11a2.9 2.9 0 0 0 4.4-3.2l-5.8-18 15.2-11a2.9 2.9 0 0 0 1.1-3.2z"></path><path d="M275.7 204.9a1.4 1.4 0 0 0-1.4-1h-9.5l-3-9a1.5 1.5 0 0 0-1.3-1 1.4 1.4 0 0 0-1.4 1l-3 9h-9.5a1.5 1.5 0 0 0-.9 2.6l7.7 5.6-2.9 9a1.5 1.5 0 0 0 2.2 1.7l7.8-5.6 7.7 5.6a1.4 1.4 0 0 0 .8.3 1.4 1.4 0 0 0 .9-.3 1.4 1.4 0 0 0 .5-1.6l-3-9 7.8-5.7a1.4 1.4 0 0 0 .5-1.6z"></path><path d="M227.8 242.5a1.5 1.5 0 0 0-1.4-1H217l-3-9a1.5 1.5 0 0 0-2.7 0l-3 9h-9.5a1.5 1.5 0 0 0-.9 2.7l7.7 5.6-3 9a1.5 1.5 0 0 0 2.3 1.7l7.7-5.6 7.7 5.6a1.4 1.4 0 0 0 .9.2 1.4 1.4 0 0 0 .8-.2 1.4 1.4 0 0 0 .5-1.7l-3-9 7.8-5.6a1.5 1.5 0 0 0 .6-1.7z"></path></svg>