<svg xmlns="http://www.w3.org/2000/svg" viewBox="0 0 510.2 510.2"><path d="M91.1 170.1a57 57 0 0 0 56.2 57.3v-28.3a27.9 27.9 0 0 1-19.8-8.5 27.8 27.8 0 0 1-8-20.1c.1-7.5 3.1-14.6 8.5-19.8a26 26 0 0 1 19.3-8v-28.3a53.5 53.5 0 0 0-39 16 55.4 55.4 0 0 0-17.2 39.7z"></path><path d="M422.5 171.7a57 57 0 0 0-56.2-57.3v28.3c7.5.1 14.6 3.1 19.8 8.5a27.8 27.8 0 0 1 8 20.1c-.1 7.5-3.1 14.6-8.5 19.8s-11.7 8.1-19.3 8v28.3c15.1.2 28.2-5.5 39-16a56.2 56.2 0 0 0 17.2-39.7z"></path><path d="M328.8 338.4H271l.3-21.6a87.2 87.2 0 0 0 52.1-34.3 134.7 134.7 0 0 0 25.8-81.2l.3-101.4c0-3.8-1.5-7.4-4.1-10.1s-6.3-4.2-10-4.2H178.6c-7.8 0-14.2 6.3-14.2 14.2v101.4c0 30.5 9.2 59.4 25.8 81.2a86.3 86.3 0 0 0 52.7 34.4l-.3 21.5h-55.9a21.3 21.3 0 0 0-21.3 21.2V405c0 11.7 9.5 21.2 21.3 21.2h142c11.7 0 21.3-9.5 21.3-21.2v-45.5c0-11.6-9.5-21.1-21.2-21.1zm-116-73c-12.9-17-20-39.7-20-64.1v-87.2h128.3l-.3 87.2c0 24.4-7.1 47.1-20 64.1-12 15.8-27.7 24.5-44 24.5s-32-8.7-44-24.5zM321.7 398H193.8v-31.2h127.9V398z"></path></svg>