<svg xmlns="http://www.w3.org/2000/svg" viewBox="0 0 510.2 510.2"><path d="M385.4 246.2H127.6a14.2 14.2 0 1 0 0 28.4h5.7l17.8 122.9a31.3 31.3 0 0 0 31.2 28.7h152.6a31.4 31.4 0 0 0 31.2-28.7l17.8-122.9h1.7c7.8 0 14.2-6.3 14.2-14.2a14.6 14.6 0 0 0-14.4-14.2zm-114.9 28.4h32.1L285 397.8h-13l-1.5-123.2zm-26.8 123.2h-14.2l-17.6-123.2h30.2l1.6 123.2zm-64.4-2.8v-.6L162 274.5h23.9l17.6 123.2h-21.2a2.8 2.8 0 0 1-3-2.7zm158.6-1.1l-.1 1.1a3 3 0 0 1-2.9 2.7h-21.3l17.6-123.2h23.9l-17.2 119.4z"></path><circle cx="229.1" cy="187.3" r="6.5"></circle><circle cx="313.9" cy="218.2" r="6.5"></circle><circle cx="285.5" cy="187.5" r="6.5"></circle><circle cx="257.4" cy="218.2" r="6.5"></circle><circle cx="198.5" cy="218.2" r="6.5"></circle><path d="M257.6 159.4c45 0 82.7 31.4 92.5 73.4H379a123.7 123.7 0 0 0-79.6-94.5c-1.8-6.4-5-12.3-9.3-17.4a42.4 42.4 0 0 0-25.1-14.6v-7.9c0-8.2-3.6-16-9.9-21.3l-20.4-17-8.9 10.7 20.4 17c3.2 2.6 5 6.5 5 10.7v7.8a44.3 44.3 0 0 0-34.5 31.7 123.7 123.7 0 0 0-80.5 94.8h28.9a95.1 95.1 0 0 1 92.5-73.4z"></path></svg>