<svg xmlns="http://www.w3.org/2000/svg" viewBox="0 0 510.2 510.2"><path d="M396.9 376.4l-32.8-32.8c19.8-24.3 31.8-55.2 31.9-88.9v-.2-.2c-.1-33.5-11.9-64.3-31.6-88.5l31.9-31.9-20-20-31.9 31.9a140.46 140.46 0 0 0-89.6-32.2c-33.7 0-64.7 11.9-89.1 31.7l-31.4-31.4-20 20 31.4 31.4a140.81 140.81 0 0 0-32 89.1v.4c.1 33.9 12.2 65 32.2 89.3l-32.4 32.4 20 20 32.4-32.4c24.3 19.7 55.2 31.5 88.8 31.5 33.8 0 64.9-12 89.2-31.9l32.8 32.8 20.2-20.1zm-142-9.2c-62.2 0-112.7-50.5-112.8-112.6.1-62.1 50.7-112.6 112.8-112.6 62.2 0 112.7 50.5 112.8 112.6-.1 62.1-50.7 112.6-112.8 112.6z"></path></svg>