<svg xmlns="http://www.w3.org/2000/svg" viewBox="0 0 510.2 510.2"><path d="M134.7 184.1c0-3.9 3.2-7.1 7.1-7.1h226.8c3.9 0 7.1 3.2 7.1 7.1v127.6H404V184.1a35.5 35.5 0 0 0-35.4-35.4H141.8a35.5 35.5 0 0 0-35.4 35.4v127.6h28.3V184.1z"></path><path d="M425.2 332.9H85.1v28.3h340.2v-28.3zm-127.5 17.8h-85v-7.1h85v7.1z"></path><path d="M257.1 310.7c19.4-8.1 34.5-25.6 43.8-50.6 6.9-18.6 8.1-34.8 8.2-35.5v-.7-.2c0-1.3-.5-2.4-1.3-3.2a4.3 4.3 0 0 0-2.8-1.5l-.7-.1c-23.7 0-45.4-27.3-45.6-27.7a4.8 4.8 0 0 0-3.5-1.8c-1.7 0-3.5.3-4.6 1.8-.2.3-21.9 27.7-45.6 27.7a4.8 4.8 0 0 0-4.8 4.8V224.6a147 147 0 0 0 8.2 35.5c9.1 24.6 24.9 42.4 43.8 50.7l2.4.9 2.5-1zm-2.4-10.3a61.2 61.2 0 0 1-25.6-21l58.7-12.7a67 67 0 0 1-33.1 33.7zm-31.4-30.3a97.7 97.7 0 0 1-4.8-10.3l77.8-16.7a96 96 0 0 1-3.6 12l-69.4 15zm-8.5-20.5c-2.5-8.6-3.9-16.7-4.6-21.4 20.2-2.5 37.3-19 44.4-26.9 7.1 7.9 24.3 24.4 44.5 26.9l-.6 3.5-83.7 17.9z"></path></svg>