<svg xmlns="http://www.w3.org/2000/svg" viewBox="0 0 510.2 510.2"><path d="M338.9 180.5h69.6c10.1 0 18.2-8.5 18.2-19v-68c0-10.5-8.2-19-18.2-19h-69.6a18.6 18.6 0 0 0-18.2 19v24.2h-74.3v126.2h-53.2v-23.4c0-10.5-8.2-19-18.2-19h-69.6a18.6 18.6 0 0 0-18.2 19v68c0 10.5 8.2 19 18.2 19H175c10.1 0 18.2-8.5 18.2-19v-23.7h53.2v127.8h74.3v22.8c0 10.5 8.2 19 18.2 19h69.6c10.1 0 18.2-8.5 18.2-19v-68c0-10.5-8.2-19-18.2-19h-69.6a18.6 18.6 0 0 0-18.2 19v24.2h-53.3V264.8h53.3v23.7c0 10.5 8.2 19 18.2 19h69.6c10.1 0 18.2-8.5 18.2-19v-68c0-10.5-8.2-19-18.2-19h-69.6a18.6 18.6 0 0 0-18.2 19v23.4h-53.3V138.6h53.3v22.8c0 10.5 8.2 19.1 18.2 19.1zm2.8-85.1h64v64h-64v-64zM172.2 286.5h-64v-64h64v64zm169.5 62.9h64v64h-64v-64zm0-127h64v64h-64v-64z"></path></svg>