<svg xmlns="http://www.w3.org/2000/svg" viewBox="0 0 510.2 510.2"><path d="M262.2 333.1H124.5A39.5 39.5 0 0 1 85 293.6V167a39.5 39.5 0 0 1 39.5-39.5h137.7v28.3H124.5c-6.1 0-11.1 5-11.1 11.1v126.5c0 6.1 5 11.1 11.1 11.1h137.7v28.6z"></path><path d="M164.7 407.9L147 385.7l23.9-19c10-8 22.5-12.4 35.3-12.4h55.9v28.3h-55.9c-6.4 0-12.7 2.2-17.7 6.2l-23.8 19.1z"></path><path d="M382.7 425.2H326a42.6 42.6 0 0 1-42.5-42.5V127.6A42.6 42.6 0 0 1 326 85.1h56.7a42.6 42.6 0 0 1 42.5 42.5v255.1a42.6 42.6 0 0 1-42.5 42.5zM326 113.4c-7.8 0-14.2 6.4-14.2 14.2v255.1c0 7.8 6.4 14.2 14.2 14.2h56.7c7.8 0 14.2-6.4 14.2-14.2V127.6c0-7.8-6.4-14.2-14.2-14.2H326z"></path><path d="M326 138.2h56.7v7.1H326z"></path><path d="M326 159.4h56.7v7.1H326z"></path><circle cx="354.3" cy="354.3" r="14.2"></circle></svg>