<svg xmlns="http://www.w3.org/2000/svg" viewBox="0 0 510.2 510.2"><path d="M246.1 397.8c2.7 3.4 6.8 5.4 11.2 5.4h.1c4.4 0 8.5-2.1 11.2-5.6l142.8-188.7 4.3-5.7a14.3 14.3 0 0 0-.4-15.9l-54.8-73.9a14.2 14.2 0 0 0-11.4-5.7H163.7c-4.6 0-8.8 2.2-11.5 5.9l-53.2 74a58 58 0 0 0-2.5 4.3 14.2 14.2 0 0 0 1.1 16l148.5 189.9zm8.9-70.5l-37.1-117.5h78.3L255 327.3zm93.5-182.4l27.1 36.6h-39.7l12.6-36.6zm26.5 64.9l-89.3 118 40.5-118H375zm-53.4-73.9l-12.1 35.4-27.3-35.4h39.4zM258 151.1l23.5 30.4h-46.2l22.7-30.4zm-24.1-15.2l-27.5 36.7-11.3-36.7h38.8zm-66.8 5.4l12.4 40.2h-41.4l29-40.2zm21.2 68.5l39 117.8-92-117.8h53z"></path></svg>