<svg xmlns="http://www.w3.org/2000/svg" viewBox="0 0 510.2 510.2"><path d="M422.7 242.4c-3.7-10.7-12.4-19-23.3-22.3-11.6-3.5-24.6-.6-33.6 7.4-4.9 4.3-8.5 10-10.3 16.2l-45.8.9c-1.1-6-3.3-11.7-6.2-16.8l35.6-32.5c13.4 7 30.3 4.5 41-6.1a35.93 35.93 0 0 0 7.6-39.7 35.59 35.59 0 0 0-26.8-20.5 35.58 35.58 0 0 0-32.4 12.1 35.58 35.58 0 0 0-6.6 33.9c.6 1.8 1.3 3.6 2.2 5.2l-34.4 31.4c-6.6-5.3-14.5-9.1-23.1-10.8l-1-44.2a35.5 35.5 0 0 0 23.8-27.2c2.4-13-3-26.8-13.6-34.7a35.66 35.66 0 0 0-38.4-2.6 35.54 35.54 0 0 0-18.1 32.5 35.5 35.5 0 0 0 25 32.2l1 43.8c-9.8 1.8-18.7 6.2-25.9 12.5L188 180.7c6.6-12.3 5.2-27.6-3.4-38.5a35.76 35.76 0 0 0-33.9-13 35.6 35.6 0 0 0-27 22.6 35.6 35.6 0 0 0 7.8 36.9 35.77 35.77 0 0 0 41.4 6.9l33.2 34.5c-2.3 4.4-3.9 9.2-4.9 14.2l-45.7.3a35.67 35.67 0 0 0-23.9-23.4c-10-2.9-21.1-1.1-29.7 4.8-4.9 3.4-9 8-11.7 13.3a35.67 35.67 0 0 0 4.1 38.1c4.8 5.9 11.5 10.2 18.8 12 8.7 2.2 18 .9 25.8-3.4 7.9-4.3 13.8-11.7 16.5-20.2l45.7-.3c1 5.1 2.7 10 5 14.5l-35.8 37.2a35.81 35.81 0 0 0-38.3 4.1 35.6 35.6 0 0 0-11.9 36.2c3 11.4 11.6 20.8 22.8 24.6 12.2 4.2 26.1 1.3 35.6-7.5a35.7 35.7 0 0 0 9.3-37.4c-.6-1.8-1.4-3.5-2.2-5.1l33.9-35.1c7.2 6.2 16 10.6 25.7 12.5l1 46.8c-13.3 4-23.2 15.8-24.9 29.5-1.6 13.5 4.8 27 16.3 34.3 11.4 7.2 26.4 7.1 37.8-.2 11.5-7.4 17.9-21.1 16-34.6a35.69 35.69 0 0 0-19.9-27.1c-1.3-.6-2.6-1.2-4-1.6l-1-47.2c7.4-1.5 14.3-4.5 20.3-8.6l34.8 31.7a35.7 35.7 0 0 0 1.8 35.6 35.76 35.76 0 0 0 34.1 15.8 35.6 35.6 0 0 0 29.6-25.9c3.1-11.6 0-24.2-8-33a35.65 35.65 0 0 0-37.3-9.7c-1.7.6-3.4 1.3-5.1 2.2l-34.9-31.9c3.9-5.8 6.7-12.5 8.1-19.6l46.2-.9a35.6 35.6 0 0 0 33.5 24.3c13.6 0 26.2-8 32-20.3 3.6-8.4 4.1-18 1.1-26.7-3.1-8.9 3.1 8.9 0 0zm-71.1-91.9c5.5-1.5 11.6.6 15 5.2 3.8 5.1 3.7 12.2-.2 17.2-3.9 4.9-10.8 6.7-16.6 4.2-5.3-2.3-8.8-7.8-8.5-13.6.3-6.1 4.5-11.4 10.3-13 1.3-.4-7.5 2 0 0zm-181.4 18.2c-1.9 5.4-7 9.3-12.8 9.5-5.7.2-11.1-3.2-13.4-8.4-1.4-3.2-1.6-6.9-.4-10.3 1.9-5.4 7-9.3 12.8-9.5 5.7-.2 11.1 3.2 13.4 8.4 1.4 3.2 1.5 6.9.4 10.3zm-35.9 92.7c-3 6-10.2 9.1-16.7 7.2-5.6-1.7-9.6-6.7-10-12.5-.4-5.6 2.7-11.1 7.8-13.6s11.3-1.7 15.5 2c4.8 4.1 6.2 11.2 3.4 16.9-1.7 3.4 3.5-6.9 0 0zm32.6 93.5c-2.4 5-7.7 8.1-13.2 7.9-5.1-.2-9.8-3.2-12.1-7.8-2.8-5.5-1.5-12.4 3-16.6a14.3 14.3 0 0 1 17.2-1.5c6 3.8 8.2 11.7 5.1 18-1.7 3.4 1.6-3.4 0 0zm75-237.9c3.3-6.9 11.9-9.9 18.8-6.5 8.7 4.2 10.6 16.2 3.5 22.9-6.7 6.4-18 4.4-22.2-3.8-2-4-2-8.7-.1-12.6 1.6-3.4-3.4 7 0 0zm28.3 272.7c.2 6.4-4.2 12.3-10.4 14-5.4 1.4-11.2-.5-14.7-4.9-3.6-4.6-4.1-11.1-1-16.1 3.3-5.3 9.8-7.9 15.9-6.3 5.8 1.7 10 7.2 10.2 13.3.1 3.7-.2-7.7 0 0zm-14.9-100.6a34.3 34.3 0 0 1-31.9-22.3c-5-13.4-.7-28.9 10.3-38 11-9.1 27-10.3 39.2-2.9 12.2 7.4 18.6 22 15.8 36a34.44 34.44 0 0 1-28.1 26.8c-1.8.3-3.5.4-5.3.4zm83.8 55.9c1.5-5.6 6.5-9.7 12.2-10.3a14.13 14.13 0 0 1 15 17.8c-1.7 6.1-7.4 10.4-13.7 10.4-5.7-.1-10.9-3.6-13-8.9-1.1-2.9-1.3-6.1-.5-9 1.7-6.2-2 7.5 0 0zm62.9-84.9c-2.3 4.8-7.3 7.9-12.6 7.9-5.4.1-10.4-3.1-12.8-7.9-2.4-4.9-1.7-10.9 1.7-15.1 4.3-5.2 11.8-6.6 17.7-3.4 6.6 3.6 9.2 11.9 6 18.5z"></path></svg>