<svg xmlns="http://www.w3.org/2000/svg" viewBox="0 0 510.2 510.2"><path d="M247.5 366.5L225.4 348l-11.6 9.7a48.2 48.2 0 0 0-17.2 36.9v31.2h28.3v-31.2c0-5.9 2.6-11.4 7.1-15.2l9.9-8.3 5.6-4.6z"></path><path d="M298.4 187.6L232 132.1a19.8 19.8 0 0 1-7.1-15.2V85.7h-28.3v31.2c0 14.3 6.3 27.7 17.2 36.9l66.4 55.5c4.5 3.8 7.1 9.3 7.1 15.2V287c0 5.9-2.6 11.4-7.1 15.2l-9.9 8.3-5.6 4.7 22.1 18.5 11.7-9.8a48.2 48.2 0 0 0 17.2-36.9v-62.4a48.8 48.8 0 0 0-17.3-37z"></path><g><path d="M298.4 357.7L232 302.2a19.8 19.8 0 0 1-7.1-15.2v-62.4c0-5.9 2.6-11.4 7.1-15.2l9.9-8.3 5.5-4.6-22-18.5-11.6 9.7a48.2 48.2 0 0 0-17.2 36.9V287c0 14.3 6.3 27.7 17.2 36.9l66.4 55.5c4.5 3.8 7.1 9.3 7.1 15.2v31.2h28.3v-31.2c0-14.2-6.3-27.7-17.2-36.9z"></path><path d="M287.3 85.7v31.2c0 5.9-2.6 11.4-7.1 15.2l-9.9 8.3-5.6 4.6 22 18.5 11.7-9.8a48.2 48.2 0 0 0 17.2-36.9V85.7h-28.3z"></path></g></svg>