<svg xmlns="http://www.w3.org/2000/svg" viewBox="0 0 510.2 510.2"><path d="M235 201a21 21 0 1 0-42 0v21a21 21 0 1 0 42 0v-21c0 .1 0 0 0 0z"></path><path d="M320 201a21 21 0 1 0-42 0v21a21 21 0 1 0 42 0v-21c0 .1 0 0 0 0z"></path><path d="M425.7 214.3c-15.6-27.4-30.5-51.8-55.5-73.6-23.6-20.6-43.7-21.5-56.4-18.6-1.7.4-3.3.8-4.8 1.4a97 97 0 0 0-52.8-15.8H255.9h-.1a96 96 0 0 0-52.8 15.8l-4.8-1.4c-12.7-2.9-32.8-1.9-56.4 18.6-25 21.8-39.9 46.2-55.5 73.6-10.3 18.1-18.7 45.5-12.9 62.9a23 23 0 0 0 12.9 14.6c13.3 5.7 27.7-3.4 39.7-14.1a147 147 0 0 0 20.8 78.7 89.5 89.5 0 0 0 37 32.1 154.8 154.8 0 0 0 71.2 15h2.2c21.6-.1 45.1-2.2 71.2-15a89.5 89.5 0 0 0 37-32.1 147 147 0 0 0 20.8-78.7c12 10.7 26.3 19.8 39.7 14.1 4.2-1.8 9.9-5.8 12.9-14.6 5.6-17.4-2.8-44.8-13.1-62.9zm-44.1 17.4a14.2 14.2 0 0 0-25.2 9.7c1.1 16.2 2.1 45.3.5 54.4a122 122 0 0 1-15.5 45.2 62.4 62.4 0 0 1-25.6 22 117.8 117.8 0 0 1-45.6 11.7V325a94.1 94.1 0 0 0 19.1-14.9c13.2-13.2 20.2-27.1 20.2-34 0-6.2-1.1-6.6-5-8.2-11.2-4.7-33.1-5.2-48.6-5.2s-37.4.5-48.6 5.2c-3.9 1.6-5 2.1-5 8.2 0 6.9 6.9 20.8 20.2 34a94.8 94.8 0 0 0 19.3 15v49.7c-13.8-.9-29.2-3.6-45.7-11.7a61.7 61.7 0 0 1-25.6-22 120.8 120.8 0 0 1-15.5-45.2c-1.6-9.1-.5-38.2.5-54.4a14.2 14.2 0 0 0-25.2-9.7 176 176 0 0 1-30.6 30.7c.5-7.8 3.8-21.3 11.1-34.1 14.8-26 27.8-47.4 49.5-66.3 11.6-10.1 22.5-14.4 31.5-12.3 1.9.4 3.6 1.1 5.1 2 4.9 3 11.2 2.7 15.8-.7a69.8 69.8 0 0 1 86.4 0 14.2 14.2 0 0 0 15.8.7c1.5-.9 3.2-1.6 5.1-2 9.1-2 20 2.2 31.5 12.3 21.7 18.9 34.7 40.3 49.5 66.3a85.8 85.8 0 0 1 11.1 34.1 188.5 188.5 0 0 1-30.5-30.8z"></path></svg>