<svg xmlns="http://www.w3.org/2000/svg" viewBox="0 0 510.2 510.2"><circle cx="256" cy="256" r="256" opacity="0.2"></circle><circle cx="270.9" cy="102.4" r="13.3"></circle><circle cx="239.5" cy="134.5" r="13.3"></circle><path d="M330.5 54.6a14 14 0 0 0-4-8.1 12.7 12.7 0 0 0-8.8-3.7 126 126 0 0 0-50.8 4.8 126.8 126.8 0 0 0-77 67l-10.5-2c-10-1.9-19.7.9-26.4 7.5l-14 13.7 11.7 12 14-13.7a13 13 0 0 1 11.6-3l22.7 4.2.2-1 .7.3c15-35.7 39-58.8 71-68.8a111.1 111.1 0 0 1 43.3-4.5c.9 3.4 4.2 19.4-1.2 39.8a94.8 94.8 0 0 1-20.2 37.5 153.3 153.3 0 0 1-51.8 37.3l.1.2-1 .3 4.9 23.3c1 4.8 0 9.1-2.6 11.9l-13.7 14 12 11.7 13.7-14a29.3 29.3 0 0 0 7-27l-2.3-10.7c19-10.1 34.6-22.2 46.5-36a112.5 112.5 0 0 0 23.7-44.1c6.6-24.8 2.2-44.6 1.2-48.9z"></path><path d="M164.4 204.3l33.1-35.6 9 8.4-33 35.6z"></path><path d="M161.8 171.8l18-19.3 9.1 8.4-18 19.4z"></path><path d="M197.2 204.7l18-19.3 9 8.5-18 19.3z"></path><path d="M322.6 388h118.1V267l-59.4-68h-58.7a23.7 23.7 0 0 0-23.6 23.6v141.7a23.6 23.6 0 0 0 23.6 23.7zm63-160.2l29.9 34.2h-30zm-70.9-5.1a8 8 0 0 1 7.9-8h47.2v63H425v94.6H322.6a8 8 0 0 1-7.9-8V222.8zM123.6 326.2h93.1v3.9h-93.1zm0 11.6h93.1v3.9h-93.1z"></path><path d="M185 405.7h-61.4a7.8 7.8 0 0 1-7.8-7.7V258.3a7.8 7.8 0 0 1 7.8-7.8H170v62h54.3v41.6H240V302l-58.7-67h-57.7a23.3 23.3 0 0 0-23.3 23.3V398a23.3 23.3 0 0 0 23.3 23.3H185zm.6-142.3l29.5 33.7h-29.5z"></path><path d="M219.4 406.7a25.4 25.4 0 0 1-19-8.5v38.2l19-15 19 15v-38.2a25.4 25.4 0 0 1-19 8.5z"></path><path d="M219.4 399.6A18.5 18.5 0 1 0 201 381a18.5 18.5 0 0 0 18.4 18.4zM123.6 350h93.1v3.9h-93.1z"></path></svg>