<svg xmlns="http://www.w3.org/2000/svg" viewBox="0 0 510.2 510.2"><path d="M425.8 269.5v-28.3H383l.1-18.8a14.2 14.2 0 0 0-28-2.6v-17a14.2 14.2 0 0 0-14.2-14.2 14.2 14.2 0 0 0-14.2 14.2v38.4H184.1v-38.4a14.2 14.2 0 1 0-28.3 0v12a14.2 14.2 0 0 0-13.6-10.6 14.2 14.2 0 0 0-14.3 14l-.1 23.1H85.6v28.4h42.1V286a14.2 14.2 0 0 0 14 14.3h.1a14.2 14.2 0 0 0 13.9-11.3v16a14.2 14.2 0 0 0 14.1 14.3A14.2 14.2 0 0 0 184 305l.1-35.5h142.6l-.2 35.5a14.2 14.2 0 0 0 14.2 14.2 14.2 14.2 0 0 0 14.1-14.1v-11.8a14.2 14.2 0 0 0 13.8 10.9 14.2 14.2 0 0 0 14.2-14.1l.1-20.7z"></path></svg>