<svg xmlns="http://www.w3.org/2000/svg" viewBox="0 0 510.2 510.2"><path d="M300 209.9a30 30 0 0 0-31.4-2.3c-13-12.8-28.2-16.4-43.3-10.3-15.6 6.3-24.1 20-23.9 38.1a34.6 34.6 0 0 0-26.8 39.3 33.9 33.9 0 0 0 12 20.9 36.2 36.2 0 0 0 23.1 8.2h88.1l4.8-.3a34.9 34.9 0 0 0 31.2-31.5c.8-7.6-1.2-15.5-5.7-22.1a35.9 35.9 0 0 0-15-12.5c1.1-11.5-3.4-21-13.1-27.5zm20.6 60.7a21.6 21.6 0 0 1-19.4 19.7l-3.3.2h-88a22 22 0 0 1-22-17.8c-.9-5.9.5-11.7 4-16.3 3.7-4.8 9.3-7.8 15.8-8.5l8.2-.9-.8-6.7c-1.2-10.7.4-24.6 15.2-30.6 3.1-1.3 6.2-1.9 9.2-1.9 7.9 0 15.5 4.2 22.7 12.6l3.8 4.4 4.9-3.2c7.8-5.1 14.6-5.3 21.4-.6 6.6 4.5 8.7 10.7 6.7 19.4l-1.3 5.8 5.6 2 .5.2 1.5.5c9.8 3 16.3 12.4 15.3 21.7z"></path><path d="M135.4 183.7c0-3.9 3.2-7.1 7.1-7.1h226.8c3.9 0 7.1 3.2 7.1 7.1v127.6h28.3V183.7a35.5 35.5 0 0 0-35.4-35.4H142.5a35.5 35.5 0 0 0-35.4 35.4v127.6h28.3V183.7z"></path><path d="M425.9 332.5H85.8v28.3H426v-28.3zm-127.5 17.7h-85v-7.1h85v7.1z"></path></svg>