<svg xmlns="http://www.w3.org/2000/svg" viewBox="0 0 510.2 510.2"><path d="M373.8 196.7a111.6 111.6 0 0 0-223.4.3h28.3a83.2 83.2 0 0 1 166.6 0v.7c.6 15.6-6 59.1-35.6 112.2a962.1 962.1 0 0 1-51.5 78.9c-5 5.8-12.3 9-19.9 9h-37.2v28.3h37.2c16.2 0 31.5-7.1 41.9-19.5l.6-.8a962 962 0 0 0 53.6-82.3c40-71.3 39.6-121.4 39.4-126.8z"></path><path d="M275.2 244.6l-1.5 3.7c-5.7 13.9-23.9 47-24.1 47.3l24.8 13.7c.8-1.4 19.2-34.9 25.5-50.3l1.5-3.7c4.2-10.1 8.5-20.6 10.3-27.9 3.9-15.5 3.6-28.2 3.5-31a53.1 53.1 0 0 0-52.4-52.1 52.5 52.5 0 0 0-52.4 52.5h28.3a24 24 0 0 1 24-24.1c12.8 0 24 11.3 24 24.1v.8c0 .1.5 10.4-2.7 22.9-1.1 5.4-5.4 15.8-8.8 24.1z"></path></svg>