<svg xmlns="http://www.w3.org/2000/svg" viewBox="0 0 510.2 510.2"><circle cx="238.1" cy="363.7" r="23.4"></circle><circle cx="351.1" cy="363.7" r="23.4"></circle><path d="M426.2 178.7a14.2 14.2 0 0 0-11.3-5.7h-65.7v28.3H396l-9.1 31.6H220.4v28.3h158.1L367.8 296l-138.2.7c-17.2 0-23.2-4.4-28-16.5l-32.7-97.6-5-15.9c-9.9-39.4-28.6-42.1-41.7-43.1h-.5l-36.8.4v27.8l29.8.3c14 0 17 6.1 22.2 23.3l38 114.3.2.7c7.1 18.2 18.3 34.9 51.2 34.9 0 0 114.8-.1 143.1-.7a82 82 0 0 0 9.1-.5c3.1-.1 6.2-1.1 8.7-3 3.5-2.7 6.5-9.8 8.3-15.4 5.9-18.5 33.2-114.5 33.2-114.5 1-4.3.1-8.9-2.5-12.5z"></path><path d="M319.6 145.3c0 9.8-2.8 18.8-8.4 26.9-6.4 9.2-14.2 13.8-23.5 13.8-4.6 0-8.2-1.3-10.5-3.8-2.4-2.5-3.4-6-3.1-10.3-5 9.7-12.2 14.5-21.8 14.5-6.5 0-11.7-2.4-15.6-7.3a26.5 26.5 0 0 1-5.3-16.9c0-9.4 2.8-17.8 8.5-25.4a27.6 27.6 0 0 1 22.7-12.4c8.9 0 14.7 3.7 17.5 11l2.5-8.4h13.5a1441 1441 0 0 0-10.9 37.8c-.3 1.4-.4 2.7-.5 3.9-.3 5 1.6 7.4 5.9 7.4 5.8 0 10.7-4 14.7-11.9 3.3-6.8 5-13.4 5-19.6a34 34 0 0 0-13.2-28.3 47.5 47.5 0 0 0-30.5-9.4c-15 0-27.6 4.8-37.9 14.4a49.2 49.2 0 0 0-15.6 37.1c0 14.5 5.1 26.3 15.2 35.3 9.7 8.7 21.9 13 36.7 13a70 70 0 0 0 42.4-15.2l5 6.8a80.2 80.2 0 0 1-48 16.9 62 62 0 0 1-42.7-15.6 52.8 52.8 0 0 1-17.9-41.3c0-17.2 6.2-31.6 18.7-43.2a63 63 0 0 1 44.2-16.7c14.9 0 27.2 4.1 37 12.2a42.8 42.8 0 0 1 15.9 34.7zm-44.3-1.7c0-2.6-.9-4.7-2.7-6.5a8.9 8.9 0 0 0-6.6-2.6c-5.5 0-10.2 3.6-14 10.7a39 39 0 0 0-4.8 18.3c0 8.8 3.2 13.2 9.6 13.2 5.3 0 9.9-4.3 13.8-12.8 3.2-7.3 4.7-14 4.7-20.3z"></path></svg>