<svg xmlns="http://www.w3.org/2000/svg" viewBox="0 0 510.2 510.2"><path d="M147.5 82h28.3v193.8h-28.3z"></path><path d="M200.4 82h11v93.6h-11z"></path><path d="M224.6 82h11v93.6h-11z"></path><path d="M248.8 82h11v93.6h-11z"></path><path d="M272.9 82h11v93.6h-11z"></path><path d="M297.1 82h11v93.6h-11z"></path><path d="M334.3 82h28.3v193.8h-28.3z"></path><path d="M199.7 276.1h41.8l2 87c-.3 23.5 33.8 59.4 40.1 65.1l18.9-21.1a158.2 158.2 0 0 1-19.3-22.5c-9.1-12.6-11.3-19.5-11.4-21.2v-.3l-2-87.1h41.9v-28.3h-112v28.4z"></path></svg>