<svg xmlns="http://www.w3.org/2000/svg" viewBox="0 0 510.2 510.2"><path d="M406 131l-15 45-26-41-12-19c-8-13-22-22-37-24l-27-4-3 16 28 4c10 2 20 8 25 17l12 19 26 41-47-7-2 17 71 9 22-68-15-5z"></path><path d="M184 399c-11-3-20-10-25-19l-10-20-22-43 46 10 4-16-70-16-28 67 15 6 18-44 22 43 10 20c8 14 20 24 36 28l27 6 3-16-26-6z"></path><path d="M318 213l-5 30a61 61 0 0 1-9 121c-31 0-56-22-60-52l-30 6a92 92 0 1 0 104-105z"></path><path d="M205 296a92 92 0 1 0 0-184 92 92 0 0 0 0 184zm0-153a61 61 0 0 1 0 122 61 61 0 0 1 0-122z"></path><path d="M302 267v7l-6 2c-2 0-4 2-5 3-1 2-3 3-3 5l-1 7c0 5 1 9 4 12 1 2 5 4 10 7l1 1v19c-3-1-5-4-5-10v-1h-11v4c0 5 1 9 4 12 3 2 7 4 12 4v8h6v-8c11-1 16-7 16-18 0-4-1-8-4-11a36 36 0 0 0-11-8l-1-1v-19c3 1 5 4 5 8v2h10v-2c0-11-5-16-15-16v-7h-6zm0 30c-3-2-5-5-5-7 0-4 2-7 5-7v14zm9 20l1 1c2 1 2 3 2 5l-2 5-4 2v-15l3 2z"></path><path d="M217 186l-3-3-6-1-4 1c-2 0-3 1-3 2l-2 4v5h16l-1 7h-15v5h13l-1 7h-12v6l1 5 3 2 5 1 5-1 4-3v9l-4 2-6 1-9-1c-3-1-4-3-5-4l-4-7-1-10h-7l2-7h5v-5h-7l2-7h5l2-8 3-6 6-4 9-2 5 1 3 1a15 15 0 0 1 3 2l-2 8z"></path></svg>