<svg version="1.1" xmlns="http://www.w3.org/2000/svg" x="0px" y="0px" viewBox="0 0 510.24 510.24"><g><path d="M268.86,258.45l42.24-42.24l73.75-73.75l7.19,80.84l28.24-2.51L409.35,97.91L286.47,86.98l-2.51,28.24 l80.87,7.19l-73.76,73.76l-42.24,42.24c-13.05,13.05-31.08,19.62-49.45,18.01l-47.17-4.2l-2.51,28.23l47.19,4.2 C223.63,287,249.87,277.45,268.86,258.45z" /></g><g><polygon points="364.71,412.31 89.96,412.31 89.96,137.56 227.33,137.56 227.33,162.56 114.96,162.56 114.96,387.31 339.71,387.31 339.71,274.93 364.71,274.93 	" /></g></svg>