<svg xmlns="http://www.w3.org/2000/svg" viewBox="0 0 510.2 510.2"><path d="M390.3 86.1a25.7 25.7 0 0 0-22.1-4.3L316.3 95c-6.8 1.7-13 5.9-17.5 11.6l-23.8-.1v10.3h-87.4a56.5 56.5 0 0 0-43.4 20.3l-34.7 41.5 21.7 18.2 34.7-41.5a28.3 28.3 0 0 1 21.7-10.1h29.8v26.9a81.3 81.3 0 0 0-67.3 80.1v161.1c0 7.8 6.3 14.2 14.2 14.2h134.3c7.8 0 14.2-6.3 14.2-14.2V252.2a81.4 81.4 0 0 0-66.9-80v-27h29.3v10.4l21.8.1a32.7 32.7 0 0 0 19.4 14l51.7 12.7c2.2.5 4.4.8 6.6.8a24.7 24.7 0 0 0 25-25.6l.1-51c.1-8.3-3.4-15.7-9.5-20.5zM284.4 252.2v146.9H178.5V252.2a53 53 0 0 1 53-53 53.1 53.1 0 0 1 52.9 53zm38.9-129.7c14.9-4.4 48.2-12.3 48.2-12.3l-.1 43.7s-31.4-7.6-48.3-11.9c-8.9-2.1-11.3-16.1.2-19.5z"></path></svg>