<svg xmlns="http://www.w3.org/2000/svg" viewBox="0 0 510.2 510.2"><path d="M113.4 425.2h283.5a28.3 28.3 0 0 0 28.3-28.3V251.4a56.6 56.6 0 0 0-28.6-49.2l-77.8-44.5-14.1 24.6 77.8 44.5c8.8 5 14.3 14.5 14.3 24.6v145.4H184.3V333H156v63.8h-42.5V219.7H85v177.2a28.4 28.4 0 0 0 28.4 28.3z"></path><path d="M233.9 128.1h28.3v131.3h-28.3z" transform="rotate(-59.8 248 193.7)"></path><path d="M106.5 190.5l84.9 48.5 14.1-24.6-84.9-48.5a14.1 14.1 0 0 1-7.1-12.3V85H85v68.6c0 15.2 8.2 29.4 21.5 36.9z"></path></svg>