<svg xmlns="http://www.w3.org/2000/svg" viewBox="0 0 510.2 510.2"><path d="M200.5 151.5h113.4v7.1H200.5z"></path><path d="M200.5 134.2h113.4v7.1H200.5z"></path><path d="M200.5 116.9h113.4v7.1H200.5z"></path><path d="M397.2 170.2h-42.5v-68a28.3 28.3 0 0 0-28.3-28.3H184.6a28.3 28.3 0 0 0-28.3 28.3v68h-42.5a28.3 28.3 0 0 0-28.3 28.3v141.7a28.3 28.3 0 0 0 28.3 28.3h42.8V411a21 21 0 0 0 12.5 20.1 37.5 37.5 0 0 0 15.8 2.6h141.7a28.3 28.3 0 0 0 28.3-28.3v-36.8h42.2a28.3 28.3 0 0 0 28.3-28.3V198.6a28.2 28.2 0 0 0-28.2-28.4zm-212.6-68h141.7v68H184.6v-68zm142 238.1v65.1H184.9V283.6h141.7v56.7zm70.6 0H355v-56.7a28.3 28.3 0 0 0-28.3-28.3H184.9a28.3 28.3 0 0 0-28.3 28.3v56.7h-42.8V198.6h283.5v141.7z"></path><path d="M275.9 357.4h13.6c1.5 0 2.7-1.2 2.7-2.7V336c0-1.5-1.2-2.7-2.7-2.7h-13.6a2.7 2.7 0 0 0-2.7 2.7v18.7c0 1.4 1.2 2.7 2.7 2.7z"></path><path d="M249.6 357.4h13.6c1.5 0 2.7-1.2 2.7-2.7V336c0-1.5-1.2-2.7-2.7-2.7h-13.6a2.7 2.7 0 0 0-2.7 2.7v18.7c-.1 1.4 1.2 2.7 2.7 2.7z"></path><path d="M223.2 357.4h13.6c1.5 0 2.7-1.2 2.7-2.7V336c0-1.5-1.2-2.7-2.7-2.7h-13.6a2.7 2.7 0 0 0-2.7 2.7v18.7c0 1.4 1.2 2.7 2.7 2.7z"></path><path d="M275.9 323.8h13.6c1.5 0 2.7-1.2 2.7-2.7v-18.7c0-1.5-1.2-2.7-2.7-2.7h-13.6a2.7 2.7 0 0 0-2.7 2.7v18.7c0 1.5 1.2 2.7 2.7 2.7z"></path><path d="M249.6 323.8h13.6c1.5 0 2.7-1.2 2.7-2.7v-18.7c0-1.5-1.2-2.7-2.7-2.7h-13.6a2.7 2.7 0 0 0-2.7 2.7v18.7c-.1 1.5 1.2 2.7 2.7 2.7z"></path><path d="M223.2 323.8h13.6c1.5 0 2.7-1.2 2.7-2.7v-18.7c0-1.5-1.2-2.7-2.7-2.7h-13.6a2.7 2.7 0 0 0-2.7 2.7v18.7c0 1.5 1.2 2.7 2.7 2.7z"></path><path d="M250.4 365.3H224a2.9 2.9 0 0 0-2.9 2.9v19.7c0 1.6 1.3 2.9 2.9 2.9h26.4c1.6 0 2.9-1.3 2.9-2.9v-19.7c-.1-1.6-1.4-2.9-2.9-2.9z"></path><path d="M289.7 365.3h-26.4a2.9 2.9 0 0 0-2.9 2.9v19.7c0 1.6 1.3 2.9 2.9 2.9h26.4c1.6 0 2.9-1.3 2.9-2.9v-19.7c0-1.6-1.3-2.9-2.9-2.9z"></path></svg>