<svg xmlns="http://www.w3.org/2000/svg" viewBox="0 0 510.2 510.2"><path d="M351.3 176.1a14.2 14.2 0 0 1-12.9-8.1c-15.4-32.7-44.3-70.4-94.6-64.4-22 2.6-49 20.4-72 47.5a14.2 14.2 0 0 1-21.6-18.4C190 86 226.6 77.1 240.4 75.4c30.3-3.6 86.7 2 123.7 80.5a14.2 14.2 0 0 1-12.8 20.2z"></path><path d="M262 424.5c-27 0-52.6-8-74-23.7a151.4 151.4 0 0 1-55.4-91.2 14.2 14.2 0 0 1 28.2-2.8c.8 7 11.8 47.5 44 71.1 28 20.6 64.3 24 102.3 9.5a14.2 14.2 0 1 1 10.1 26.5 155.3 155.3 0 0 1-55.1 10.6z"></path><path d="M193.2 319.8A14.2 14.2 0 0 1 185 294c24-16.7 38.7-31.3 50.6-43 13.6-13.5 35.3-46.5 39.6-69.6 1.3-7.6.5-14.8-2.4-19.2a19.5 19.5 0 0 0-11.4-8c-8.2-1.2-24-1-38 14.9a620.4 620.4 0 0 1-66.4 64.4 14.2 14.2 0 1 1-17.9-22c.3-.3 33.3-27.3 63-61.1a69.2 69.2 0 0 1 63.7-24.2c11.8 1.9 23.8 10 30.7 20.6s9.2 25 6.5 39.7c-5.6 30-31.2 68.5-47.5 84.7a378 378 0 0 1-54.4 46.1 14 14 0 0 1-8 2.5z"></path><path d="M171.8 276.1a14.2 14.2 0 0 1-6.6-26.7 192 192 0 0 0 67.6-69.4 14.2 14.2 0 1 1 24.6 14 215.2 215.2 0 0 1-79.1 80.6 14.2 14.2 0 0 1-6.5 1.5z"></path><path d="M216.7 358.3a14.2 14.2 0 0 1-8-26c8.9-6 16-11 21.7-15 20.1-14.3 29-21.5 49.2-22 23.6-.4 44.4 7 79.8 32.4a14.2 14.2 0 0 1-16.6 23c-20.3-14.6-39.4-27.3-61.1-26.7l-2 .2c-12.7 1-14.3 3-33 16.2l-22 15.4a14 14 0 0 1-8 2.5z"></path><path d="M340.5 234.4l-2.5-.1c-10.2-.6-19.7-5-27.6-12.7a14.2 14.2 0 0 1 19.6-20.4c3 3 6.3 4.6 9.6 4.8 4 .2 8.6-1.2 14-3a14.2 14.2 0 0 1 9 26.9 68 68 0 0 1-22.1 4.5z"></path><path d="M262.4 378.2a14.2 14.2 0 0 1-6.2-26.9c9.5-4.6 18.9-9.4 30-9.6 12.4 0 24.3 3 35 11a14.2 14.2 0 0 1 2.8 19.9c-4.7 6.3-12.1 6.7-19.9 2.8a36 36 0 0 0-17.3-5.2c-6 .4-11 3.2-18.2 6.6a14 14 0 0 1-6.2 1.4z"></path><path d="M344.7 286.3l-4.4-.1a81.5 81.5 0 0 1-51.8-17.6 14.2 14.2 0 0 1 18.3-21.6 56.5 56.5 0 0 0 34.3 10.9 90.4 90.4 0 0 0 22-1.8 14.2 14.2 0 1 1 6 27.7 114.8 114.8 0 0 1-24.4 2.5z"></path></svg>