<svg xmlns="http://www.w3.org/2000/svg" viewBox="0 0 510.2 510.2"><path d="M336.4 87.7c-11.2 2.2-15 3.6-23.9 6-42.3 11.3-77.2 23-93.9 24-8.3.5-26.4-8.1-34-13.4-6.2-4.3-9.8-.5-9.7 4.9.9 48.9 1 105.6.3 154.5-.1 7.8 2.8 17.3 7 21.2 4.8 4.5 12 10.4 30.3 10.4 24.3-.1 77-24.6 119-33.6 3.1-.7 5.3-1.7 13.3-1.7 11.8-.1 20.2 5.4 33.5 14.1 4.8 3.1 9.3 6.8 10.7-6.6.8-48.9-.6-101.7 2.5-146.7 1.2-17.8-16.6-28.9-28.2-32.7-12.8-4.4-26.9-.4-26.9-.4zm27 42c-.2 12.5-.9 19.7-1.2 32.1-14.9-3.8-24.4-.8-39.5.3.2-12.5 1-27.9 1.2-40.4 16.1-1.2 23.5-4.5 39.7-.4l-.2 8.4zM198.8 177c14.2 3.7 24 4.2 38.6 2.9l.6-37.4c14.5-2 28.5-5.4 42.7-9l-.6 37.4a415.3 415.3 0 0 1-42.7 9l-.7 42.5c-9 .9-18.9 3.4-38.4-1.7l.5-43.7zm37.3 80.7l.6-35.4c14.4-2 28.3-5.3 42.4-8.9l-.6 35.4c-14.1 3.6-28.1 9.5-42.5 11.5l.1-2.6zm43.2-44.3l.7-42.5a363 363 0 0 1 42.7-8.7l-.7 42.5a367.1 367.1 0 0 0-42.7 8.7zm42.7-8.6c13.8-1 26.5-3.1 40 .3l-.6 35.9a71.7 71.7 0 0 0-40-.1l.6-36.1zm7.5 42.2"></path><path d="M127.9 84.2h28.3v339.6h-28.3z"></path></svg>