<svg xmlns="http://www.w3.org/2000/svg" viewBox="0 0 510.2 510.2"><path d="M166.1 248.8l4.6 29.6 171-30-4.7-29.5z"></path><path d="M197.7 405.7a28.6 28.6 0 0 1 17.2-10.4l.3-.1 112.5-25.6a16.3 16.3 0 0 0 12.4-16.4 16.2 16.2 0 0 0-12.9-15.9L257 323.8l84.8-15.5-4.9-29.5-155.4 28.4c-7.5 1.4-13 8.2-13 16.2s5.4 14.8 12.9 16.2l77.7 15-49.3 11.2a56.3 56.3 0 0 0-34.1 20.7l-25.5 32.1 21.9 19.2 25.6-32.1zm7.8-72.8l20.7-3.6 79 15.2-18.7 4-81-15.6z"></path><path d="M170.8 218.5L326.2 190c7.5-1.4 13-8.2 13-16.2s-5.4-14.8-12.9-16.2l-77.7-15 49.3-11.2a56.3 56.3 0 0 0 34.1-20.7l25.5-32.1-21.9-19.2-25.5 32.1a28.6 28.6 0 0 1-17.2 10.4l-.3.1-112.5 25.6a16.3 16.3 0 0 0-12.4 16.4c.1 7.9 5.6 14.5 12.9 15.9l70.2 13.5L166 189l4.8 29.5zm131.5-54.1l-20.7 3.6-79-15.2 18.7-4 81 15.6z"></path></svg>