<svg xmlns="http://www.w3.org/2000/svg" viewBox="0 0 510.2 510.2"><path d="M351 86.3H164.6a14.2 14.2 0 1 0 0 28.3h3.4v166.8c0 18.3 13 33.2 29 33.2h46v82.7h-34.7a14.2 14.2 0 0 0 0 28.4h97.9a14.2 14.2 0 1 0 0-28.4h-34.8v-82.7h46.9c16 0 29-14.9 29-33.2V114.6h3.7a14.2 14.2 0 0 0 0-28.4zm-154.7 200V114.6H319v171.7z"></path><path d="M215.4 142.6h84.2v7.1h-84.2z"></path><path d="M215.4 163.8h53.9v7.1h-53.9z"></path><path d="M215.4 206.3h53.9v7.1h-53.9z"></path><path d="M215.4 185h84.2v7.1h-84.2z"></path></svg>