<svg xmlns="http://www.w3.org/2000/svg" viewBox="0 0 510.2 510.2"><path d="M422.8 208.8a78.2 78.2 0 0 0-92-52c-3-41.1-33.6-71.4-73.6-71.4a73.3 73.3 0 0 0-54 23.1 79 79 0 0 0-20.9 48.4 78.2 78.2 0 0 0-92 52 80.8 80.8 0 0 0 44 98.1 78.2 78.2 0 0 0 21 103.6 76.1 76.1 0 0 0 44.8 14.9 72 72 0 0 0 11.9-1 75.8 75.8 0 0 0 45.3-26c11.9 14 27.5 23 44.6 26a74.2 74.2 0 0 0 56-14A78.2 78.2 0 0 0 379 307a80.7 80.7 0 0 0 44-98.2zm-165.6-95c26.4 0 45.6 21 45.6 49.8a57.5 57.5 0 0 1-.6 7.8l-23.5 35.3A55.4 55.4 0 0 0 237 205l-.6-.8-25.3-31.6a58.7 58.7 0 0 1-.7-9c0-28.4 20-49.8 46.8-49.8zm-.3 170.5a27.1 27.1 0 0 1-2.2-54.2h1a27.1 27.1 0 0 1 1.2 54.2zm-139.5-66.7a49.8 49.8 0 0 1 62.6-32 61.6 61.6 0 0 1 10.9 4.8 15.8 15.8 0 0 0 1.4.7l22.8 28.5a55.2 55.2 0 0 0-13.5 49.6l-41.8 15.5a61.3 61.3 0 0 1-10.5-2.3 51.8 51.8 0 0 1-32-64.8zm90 179a47 47 0 0 1-35.5-9 49.8 49.8 0 0 1-11-69.4 56.5 56.5 0 0 1 4.4-5.3l49.5-18.4a55.5 55.5 0 0 0 27.6 16.5v59.2a59 59 0 0 1-4 6.5 48.6 48.6 0 0 1-31 19.9zm153.8-41.4a49.5 49.5 0 0 1-19.9 32.5c-10.8 7.8-22.8 10.9-34.7 8.9s-22.7-9-30.6-20a59.9 59.9 0 0 1-5.2-8.8v-57.2a55.1 55.1 0 0 0 25.7-15.9l2.4-2.7a14 14 0 0 0 3.4 1.8l42.1 15.6a61 61 0 0 1 7.9 8.8 49.4 49.4 0 0 1 8.9 37zm2.7-72.8a58 58 0 0 1-6.3 1.6l-45.5-16.8a14 14 0 0 0-1.7-.5 55.8 55.8 0 0 0 .8-11.8 55.1 55.1 0 0 0-10.5-30.2l23.5-35.3a60 60 0 0 1 9-3.8 49.8 49.8 0 0 1 62.7 32c8.6 26.7-6 56.4-32 64.8z"></path></svg>