<svg xmlns="http://www.w3.org/2000/svg" viewBox="0 0 510.2 510.2"><path d="M323.8 269.2H361v-28.3h-37a70.3 70.3 0 0 0-53.5-54.6V149H242v36.7a70.3 70.3 0 0 0-55.7 55.1h-36.6v28.3h36.7a70.3 70.3 0 0 0 55.6 54.4v37h28.3v-37.4a70.3 70.3 0 0 0 53.5-53.9zm-110.5-14.6a41.8 41.8 0 1 1 83.7 0 41.8 41.8 0 0 1-83.7 0z"></path><path d="M113.9 113.9h97.8V85.5h-112c-7.8 0-14.2 6.3-14.2 14.2v112h28.3v-97.8z"></path><path d="M396.2 298.1v97.8h-97.8v28.3h112c7.8 0 14.2-6.3 14.2-14.2V298h-28.4z"></path><path d="M395.8 211.7h28.3v-112c0-7.8-6.3-14.2-14.2-14.2H298v28.3h97.8v97.9z"></path><path d="M114 298.1H85.6v112c0 7.8 6.3 14.2 14.2 14.2h112V396H114v-97.9z"></path></svg>