<svg xmlns="http://www.w3.org/2000/svg" viewBox="0 0 510.2 510.2"><path d="M405.5 131l-14.7 45-25.5-40.8-11.9-19a52.8 52.8 0 0 0-37.5-24.3l-27.4-3.8-2.3 16.4 27.4 3.8a36.3 36.3 0 0 1 25.8 16.7l11.7 18.7 25.7 41.1-46.9-6.5-2.3 16.4 71.3 9.8 22.3-68.4-15.7-5.1z"></path><path d="M183.5 398.6a36.2 36.2 0 0 1-24.2-18.9L149.2 360l-22.1-43.1 46.2 10.5 3.7-16.1-70.2-16-28.1 66.3 15.2 6.5 18.5-43.6 21.9 42.9 10.2 20c7.1 14 20 24 35.3 27.5l26.9 6.1 3.7-16.1-26.9-6.3z"></path><path d="M318.2 212.9l-5.1 30.1a61.1 61.1 0 1 1-69.5 68.9l-30 5.7a91.6 91.6 0 1 0 104.6-104.7z"></path><path d="M204.8 295.7a91.6 91.6 0 0 0 0-183 91.6 91.6 0 0 0 0 183zm0-152.5a61.1 61.1 0 0 1 0 122 61.1 61.1 0 0 1 0-122z"></path><path d="M175.7 225.7c4.4 0 7.6-1 9.7-3.1 2.1-2.1 3.1-5.4 3.1-9.9v-1.2h-7.6v1c0 2.3-.3 4.1-.8 5.3-.9 1.7-2.4 2.5-4.5 2.5-2.5 0-4-1.3-4.8-3.8-.6-2-.9-6.3-.9-12.7 0-5.4.3-9.1.9-11 .9-2.7 2.5-4 5-4 3.3 0 4.9 2.3 4.9 6.9v.7h7.4v-.9c0-4.2-1-7.3-2.9-9.3-1.9-2-5-3-9.3-3-6 0-9.9 2-11.8 6-1.3 2.8-2 7.9-2 15.2 0 7.6.7 12.8 2 15.6 1.9 3.8 5.8 5.7 11.6 5.7z"></path><path d="M201.6 206.4h10.8v18.5h7.6v-41h-7.6v16.9h-10.8v-16.9H194v41h7.6z"></path><path d="M235.6 206.5h12.2V201h-12.2v-11.4h12.8v-5.7h-20.3v41h7.5z"></path><path d="M302.3 266.9v7.1a16.1 16.1 0 0 0-11.5 5 16 16 0 0 0-3.1 5.2c-.7 2-1 4.2-1 6.5 0 5.1 1.4 9.1 4.2 12.2 1.6 1.8 5.1 4.3 10.3 7.5l1 .7v19.1c-3.6-.9-5.4-4.2-5.4-9.7v-1.6h-10.9v3.9c0 4.9 1.4 8.9 4.2 11.8 2.8 2.9 6.8 4.4 12.2 4.6v8h5.6V339c10.8-.8 16.2-6.7 16.2-17.8 0-4.4-1.3-8.2-3.9-11.4a36 36 0 0 0-11.1-8.2l-1.4-.8v-18.4c3.1.9 4.8 3.4 5.1 7.4l.1 1.3v.9h10.3v-2.3c0-10.3-5.2-15.6-15.5-15.8v-7.1h-5.4zm0 30.5c-3.5-2.6-5.3-5.1-5.3-7.7 0-4.1 1.8-6.5 5.3-7v14.7zm8.5 19.3c.8.6 1.3 1 1.6 1.4a7.3 7.3 0 0 1 1.6 5c0 2.1-.6 3.7-1.7 5a6.7 6.7 0 0 1-4.4 2.2v-15.7l2.9 2.1z"></path></svg>