<svg xmlns="http://www.w3.org/2000/svg" viewBox="0 0 510.2 510.2"><path d="M386.4 157a25.3 25.3 0 0 1 16.3 8.7 26.6 26.6 0 0 1 6.9 17.8v.7l-.1 2.6c-.2 1.8-3.5 45.8-22.2 96.2-25.6 69-67.7 117.4-121.9 140l-.5.2-11.3 4.1-12-4.3c-53.7-23.5-97-73.2-121.7-140-18.6-50.4-22.1-95.8-22.1-96.2l-.1-2.8v-.6a26.7 26.7 0 0 1 26.7-26.7c15.2 0 40.2-5.5 72.9-32.2A250.9 250.9 0 0 0 232 90.1c5.2-6.7 13-10 23.1-10h1a26.7 26.7 0 0 1 19.2 10.2 250 250 0 0 0 34.7 34.4c29 23.7 52 30.7 67.5 32zM252.6 396.8l1 .3 1.3-.4c46.5-19.5 83.1-62.2 105.8-123.6a358 358 0 0 0 20.5-87.9c-65-1.2-120.9-68.3-127.6-76.7a280.6 280.6 0 0 1-38 37.6c-31 25.4-61 38.5-89.5 39 .3 4 4 43.7 20.4 88 22 59.4 59.6 103.3 106 123.7zm.4-289z"></path><path d="M202.2 244.9H250v3h-47.8z"></path><path d="M202.2 253.9H238v3h-35.8z"></path><path d="M309.7 198.7H202.2a18 18 0 0 0-17.9 17.9v59.7a18 18 0 0 0 18 18h107.4a18 18 0 0 0 18-18v-59.7a18 18 0 0 0-18-18zm0 11.9a6 6 0 0 1 6 6v6h-67.2a12 12 0 0 1-9.1-4.3l-6.4-7.7zm0 71.7H202.2a6 6 0 0 1-6-6v-59.7a6 6 0 0 1 6-6h15.2l12.8 15.4a23.8 23.8 0 0 0 18.3 8.5h67.2v41.8a6 6 0 0 1-6 6z"></path></svg>