<svg xmlns="http://www.w3.org/2000/svg" viewBox="0 0 510.2 510.2"><path d="M111.5 276.3l124.3 111.1c3 2.7 4.7 6.5 4.7 10.6v36.9h28.3V398c0-12.1-5.2-23.6-14.2-31.7L131.1 255.7a14.1 14.1 0 0 1-3.9-9.8v-62H98.8v62c0 11.3 4.4 22 12.4 30l.3.4z"></path><path d="M289 372.2l108.6-95.6.7-.6c8-8 12.5-18.7 12.5-30.1v-62h-28.3v62c0 3.7-1.4 7.1-3.9 9.8l-108.2 95.2 18.6 21.3z"></path><path d="M268.8 153.3c0-20.9-9.2-40.5-25.2-54L217 77l-18.2 21.7 26.7 22.3c9.5 8 15 19.8 15 32.2l.1 78.9-39.7-33.1-18.2 21.7 72 60.2 72-60.2-18.1-21.7-39.6 33.2-.2-78.9z"></path></svg>