<svg xmlns="http://www.w3.org/2000/svg" viewBox="0 0 510.2 510.2"><path d="M226.5 140.1a137.4 137.4 0 0 0-55-12.7 81.3 81.3 0 0 0-47.8 16.6 76.8 76.8 0 0 0-26.4 37.5c-7.6 24.4-9.9 124.1-10.1 136.3-.2 4.4-.8 34.5 16 52.7a41.8 41.8 0 0 0 30.2 13.4h1.8c35.5 0 52-29.9 54.7-35.3l14.5-25c6.6-10.1 15.1-22.5 51.6-21.8h.4c36.6-.7 45 11.6 51.6 21.8l14.5 25c2.7 5.4 19.2 35.3 54.7 35.3h1.8c12-.3 22.4-5 30.2-13.4 16.9-18.2 16.2-48.3 16-52.7-.3-12.2-2.5-111.9-10.1-136.3a76.8 76.8 0 0 0-26.4-37.5 82 82 0 0 0-47.8-16.6 137 137 0 0 0-55 12.7h-59.4zm69.1 26.9c6.5-3.3 27.1-11.7 44.6-11.2a50 50 0 0 1 47.9 34.2c4.9 15.6 8 87.2 8.9 128.6v.4c.4 7.2-1.3 24.4-8.5 32.3a13.2 13.2 0 0 1-10.2 4.3c-20.1.6-29.6-18.1-30.3-19.5l-.2-.5-15.3-26.4-.4-.6c-8.2-12.6-23.4-35.9-75.8-34.9-52.4-.9-67.6 22.4-75.8 34.9L165.2 335l-.3.5-.3.7c-.7 1.4-10.2 20.1-30.3 19.6-4.4-.1-7.6-1.5-10.2-4.3-7.8-8.3-8.8-26.6-8.5-32.3v-.4c.8-41.5 4-113.1 8.9-128.6a50 50 0 0 1 47.9-34.2 111 111 0 0 1 44.6 11.2h78.6z"></path><path d="M218 211.7h-20v-20h-26.8v20h-20v26.8h20v20H198v-20h20z"></path><path d="M329.2 214.1a12.4 12.4 0 0 0 9.8.6c3.2-1.1 5.8-3.4 7.3-6.5a12.6 12.6 0 0 0-5.9-17c-6.3-3.1-14-.4-17 5.9a12.6 12.6 0 0 0 5.8 17z"></path><path d="M329.2 264.7a12.4 12.4 0 0 0 9.8.6c3.2-1.1 5.8-3.4 7.3-6.5a12.6 12.6 0 0 0-5.9-17c-6.3-3.1-14-.4-17 5.9a12.6 12.6 0 0 0 5.8 17z"></path><path d="M301.3 239.5a12.4 12.4 0 0 0 9.8.6c3.2-1.1 5.8-3.4 7.3-6.5a12.6 12.6 0 0 0-5.9-17c-6.3-3.1-14-.4-17 5.9a12.6 12.6 0 0 0 5.8 17z"></path><path d="M357.6 239.5a12.4 12.4 0 0 0 9.8.6c3.2-1.1 5.8-3.4 7.3-6.5a12.6 12.6 0 0 0-5.9-17 12.7 12.7 0 1 0-11.2 22.9z"></path></svg>