<svg xmlns="http://www.w3.org/2000/svg" viewBox="0 0 510.2 510.2"><path d="M281.3 425.2h-39c-22.3-.2-39-15-40.8-36.2-27.3.2-48.3.1-72.5.1h-28.7a14.2 14.2 0 1 1 0-28.3H129c24.2 0 45.1 0 72.4-.2 10 0 26.8 3.2 28.4 25.7.3 4.7 2.7 10.4 12.6 10.4 30.3.2 58.3.2 85.7 0a27.3 27.3 0 0 0 9.2-1.7c6-2.3 7.4-8.5 6.6-13.5-1-6-6-10-12.9-10-21.7-.4-42.8-.2-68.2 0h-.2c-14 0-23.4-7.8-25.8-21.2-1-6.4-2.6-10.4-4.6-12s-6.4-2.6-12.9-2.6c-15.9-.2-60.1-.1-92.4-.1H99.4a14.2 14.2 0 0 1 0-28.4h27.4l92.7.1c25.9.2 39.8 11.2 44.8 35.8 24.8-.2 45.6-.3 67.2 0 20.7.3 37.3 14.3 40.4 34s-6.8 37.7-24.5 44.5a55.3 55.3 0 0 1-19 3.4c-15.5.2-31 .2-47.1.2zm-77.2-36zm-2.9-2.7zM265 346zm-59.6-157.2h-105a14.2 14.2 0 0 1 0-28.3h139c6.5 0 8.9-2.3 10.4-4.6 2-3 3.9-7.3.6-14.3-.9-1.8-2.6-5.4-10.9-5.6-13-.2-26.4-.1-39.3 0H189a24 24 0 0 1-11.6-2.6c-3.6-1.9-8.2-5.8-9.9-13.8a35.8 35.8 0 0 0-1.2-4.6 38.1 38.1 0 0 0-5.3-.2H99.3a14.2 14.2 0 0 1 0-28.3h61.6c8 0 16.2.7 23 6 5.2 4 8 9.5 9.6 15h6.5c13 0 26.6-.1 40 .2 16.7.3 29.4 8 36 21.7 6.8 14.5 5.8 29.5-2.7 42.3a39 39 0 0 1-33.9 17.1h-34.1z"></path><path d="M292.5 294.7l-47-.2a55.1 55.1 0 0 1-19-3.5c-17.8-6.8-27.6-24.6-24.5-44.4s19.7-33.7 40.4-34c23.2-.4 46.5-.2 67.2-.1 5-24.5 18.9-35.5 44.8-35.8H411.6a14.2 14.2 0 0 1 0 28.3H392l-37.5.1c-6.6 0-10.9 1-12.9 2.6s-3.6 5.7-4.7 12c-2.3 13.5-11.7 21.2-25.7 21.2h-.3c-21-.2-44.7-.4-68.2 0C236 241 231 245 230 251c-.8 5 .5 11.2 6.6 13.6a26.8 26.8 0 0 0 9.2 1.6c27.3.2 55.3.2 85.7 0 9.8 0 12.3-5.6 12.6-10.3.7-9.7 5.2-25.7 28-25.7h39.2a14.2 14.2 0 1 1 0 28.4H391l-18.8-.1c-1.8 21.2-18.4 36-40.7 36l-39 .2zm80.2-38.8zM309 215.4z"></path><path d="M411.6 114.6h-116a14.2 14.2 0 1 1 0-28.4h116a14.2 14.2 0 1 1 0 28.4z"></path><path d="M159.6 265.9H99.3a14.2 14.2 0 1 1 0-28.4h60.3a14.2 14.2 0 0 1 0 28.4z"></path></svg>