<svg xmlns="http://www.w3.org/2000/svg" viewBox="0 0 510.2 510.2"><path d="M249.8 226.9c1.2-3.4 10-3.1 11.2-.7s-4.2 19.4-5.6 19.4-6.7-15.4-5.6-18.7z"></path><path d="M186 426.9l22-48.4a44 44 0 0 0 .8-37.2c-2.4-5-8-15.6-12-23.4l-2.6-4.7a72 72 0 0 1-27 5.3c-18.2-.2-34.6-15.6-35-33a35 35 0 0 1 9.9-25.4c6.7-7 16.2-10.8 26.6-10.8 17.8 0 83.6.5 86.7.6s69.3-.6 87.1-.6c10.5 0 20 3.9 26.7 10.8a35 35 0 0 1 9.9 25.5c-.4 17.3-16.8 32.7-35 32.9a76 76 0 0 1-29.3-6.2c-8 21-27.2 50.4-39.4 62.9a166.7 166.7 0 0 1-56.4 38.3zm34.9-124l1 1.9a625 625 0 0 1 13 25.4l.3 1a77 77 0 0 1 5 37.6 149 149 0 0 0 15-13.4 200 200 0 0 0 33.2-53.3l-19.6-7.6c-6.6-2.5-7.8-3-9-3.6l-4-1.5-3 1.1-6.7 2.6-3.7 1.4-20.7 8zm-52.1-25.2c-2 0-4.7.4-6.4 2.2a6.8 6.8 0 0 0-1.8 5c.1 1.6 3.7 5.2 7 5.3 7.4 0 13.9-2.4 22-5.6l2.2-.8 15.1-6-38.1-.1zm135.6.2l15 5.9 2.3.8c8.2 3.2 14.6 5.7 22 5.6 3.3 0 6.9-3.7 7-5.3a6.8 6.8 0 0 0-1.8-5c-1.7-1.8-4.4-2.2-6.4-2.2-7.1 0-22.4 0-38.1.2z"></path><path d="M307.7 218c-2.6 7.6-8.8 10-16 10.7-13.3 1.1-23.6-2.4-36.3-12.2a42.4 42.4 0 0 1-24.9 11.7 65.7 65.7 0 0 1-18.2-1.2 12.1 12.1 0 0 1-9.2-8.5c3 1 6 3 9 2.7 3-.3 6-2.8 8.8-4.5 5-3 9.8-6.6 15.2-8.7s11.2-.4 16.7 1.9a6.9 6.9 0 0 0 5 .1 24.9 24.9 0 0 1 27.2 3l7 5c6.6 4.9 9.1 4.8 15.7 0z"></path><path d="M233.8 189.2a6.8 6.8 0 0 0 13.7 0v-6.8a6.8 6.8 0 0 0-13.7 0v6.8z"></path><path d="M269 196.2a6.8 6.8 0 0 0 6.8-6.8v-6.8a6.8 6.8 0 0 0-13.7 0v6.8a6.8 6.8 0 0 0 6.8 6.8z"></path><path d="M277.6 134.7l-15 19.2 64.8 50.5a80.8 80.8 0 0 0 8.5-24.1z"></path><path d="M193.3 218.7l98.8-126.4a81.1 81.1 0 0 0-24-7.7L180 197.2a81.7 81.7 0 0 0 13.3 21.5z"></path><path d="M286.2 123.7l51 39.9a81.7 81.7 0 0 0-32.5-63.5z"></path><path d="M250 83.9a81.7 81.7 0 0 0-75 96z"></path></svg>