<svg viewBox="-16 0 512 512" xmlns="http://www.w3.org/2000/svg"><path d="m44.996094 94.265625c-8.285156 0-15-6.714844-15-15v-64.265625c0-8.285156 6.714844-15 15-15s15 6.714844 15 15v64.265625c0 8.285156-6.714844 15-15 15zm0 0" /><path d="m174.703125 94.265625c-8.28125 0-15-6.714844-15-15v-64.265625c0-8.285156 6.71875-15 15-15 8.285156 0 15 6.714844 15 15v64.265625c0 8.285156-6.714844 15-15 15zm0 0" /><path d="m304.410156 94.265625c-8.28125 0-15-6.714844-15-15v-64.265625c0-8.285156 6.71875-15 15-15 8.285156 0 15 6.714844 15 15v64.265625c0 8.285156-6.714844 15-15 15zm0 0" /><path d="m434.121094 94.265625c-8.285156 0-15-6.714844-15-15v-64.265625c0-8.285156 6.714844-15 15-15 8.28125 0 15 6.714844 15 15v64.265625c0 8.285156-6.71875 15-15 15zm0 0" /><path d="m434.121094 124.269531c-24.8125 0-45-20.191406-45-45v-47.140625h-39.710938v47.140625c0 24.808594-20.179687 45-45 45-24.808594 0-45-20.191406-45-45v-47.140625h-39.710937v47.140625c0 24.808594-20.179688 45-45 45-24.808594 0-45-20.191406-45-45v-47.140625h-39.699219v47.140625c0 24.808594-20.191406 45-45 45h-45v324.53125c0 34.847657 28.351562 63.199219 63.199219 63.199219h353.460937c34.851563 0 63.199219-28.351562 63.199219-63.199219v-324.53125zm-214.269532 32.128907h5.078126v-17.128907c0-8.289062 6.71875-15 15-15s15 6.710938 15 15v17.128907h17.128906c8.292968 0 15 6.722656 15 15 0 8.28125-6.707032 15-15 15h-52.207032c-7.242187 0-13.121093 5.882812-13.121093 13.121093 0 7.230469 5.878906 13.109375 13.121093 13.109375h40.160157c23.777343 0 43.117187 19.351563 43.117187 43.121094s-19.339844 43.121094-43.117187 43.121094h-5.082031v17.128906c0 8.28125-6.71875 15-15 15s-15-6.71875-15-15v-17.128906h-17.128907c-8.289062 0-15-6.722656-15-15 0-8.292969 6.710938-15 15-15h52.210938c7.238281 0 13.117187-5.890625 13.117187-13.121094s-5.878906-13.121094-13.117187-13.121094h-40.160157c-23.78125 0-43.121093-19.339844-43.121093-43.109375 0-23.78125 19.339843-43.121093 43.121093-43.121093zm108.449219 303.132812h-192.800781c-8.289062 0-15-6.710938-15-15 0-8.28125 6.710938-15 15-15h192.800781c8.277344 0 15 6.71875 15 15 0 8.289062-6.722656 15-15 15zm64.257813-64.261719h-305.257813c-8.289062 0-15-6.71875-15-15 0-8.289062 6.710938-15 15-15h305.257813c8.292968 0 15 6.710938 15 15 0 8.28125-6.707032 15-15 15zm0 0" /></svg>