<svg version="1.1" id="Capa_1" xmlns="http://www.w3.org/2000/svg" x="0px" y="0px" viewBox="0 0 512 512"><g><path d="M185.7,416.1v20.2h-30v-20.1c-21.5-3.1-38.2-21.7-38.2-44.1h30c0,8,6.5,14.6,14.6,14.6h16.8c8.3,0,15.1-6.8,15.1-15.1 s-6.8-15.1-15.1-15.1h-16.5c-24.9,0-45.1-20.2-45.1-45.1c0-22.6,16.7-41.4,38.4-44.6v-20.2h30v20.2c21.5,3.4,38,22.1,38,44.6h-30 c0-8.3-6.8-15.1-15.1-15.1h-16.2c-8.3,0-15.1,6.8-15.1,15.1s6.8,15.1,15.1,15.1h16.5c24.9,0,45.1,20.2,45.1,45.1 C224.1,394,207.4,412.8,185.7,416.1L185.7,416.1z" /><path d="M0,341.3v70.1C0,466.9,45.1,512,100.6,512h70.1C76.4,512,0,435.5,0,341.3z" /><path d="M512,100.6c0-42.6-26.6-79-64-93.7v77.7h32v24.6l-64,63.9l-64-64V84.6h32V0H100.6C45.1,0,0,45.1,0,100.6v240.7 c0-94.2,76.4-170.6,170.6-170.7c94.3,0,170.7,76.4,170.7,170.7S264.9,512,170.7,512h105.5c17.3-10.5,34.8-25.8,47.1-40.4H492 c6.7-9,11.9-19.1,15.4-30H344.5c7.9-13.6,14.4-29,18.4-42.6H512v-30H369.4c1.3-9.1,1.9-18.4,1.9-27.7c0-5-0.2-9.9-0.5-14.9H512v-30 H366.3c-3.1-13.6-8.6-29-14-40.4H512V100.6z" /></g></svg>