<svg id="Capa_1" enable-background="new 0 0 512 512" viewBox="0 0 512 512" xmlns="http://www.w3.org/2000/svg"><g><g><path d="m361 0h-305c-30.327 0-55 24.673-55 55v5h360z" /><path d="m456 0h-65v60h120v-5c0-30.327-24.673-55-55-55z" /></g><path d="m456 332h-400c-30.327 0-55 24.673-55 55v70c0 30.327 24.673 55 55 55h400c30.327 0 55-24.673 55-55v-70c0-30.327-24.673-55-55-55zm-200 45c8.284 0 15 6.716 15 15s-6.716 15-15 15-15-6.716-15-15 6.716-15 15-15zm-60 0c8.284 0 15 6.716 15 15s-6.716 15-15 15-15-6.716-15-15 6.716-15 15-15zm-120 90c-8.284 0-15-6.716-15-15s6.716-15 15-15 15 6.716 15 15-6.716 15-15 15zm0-60c-8.284 0-15-6.716-15-15s6.716-15 15-15 15 6.716 15 15-6.716 15-15 15zm60 60c-8.284 0-15-6.716-15-15s6.716-15 15-15 15 6.716 15 15-6.716 15-15 15zm0-60c-8.284 0-15-6.716-15-15s6.716-15 15-15 15 6.716 15 15-6.716 15-15 15zm180 60h-120c-8.284 0-15-6.716-15-15s6.716-15 15-15h120c8.284 0 15 6.716 15 15s-6.716 15-15 15zm0-60c-8.284 0-15-6.716-15-15s6.716-15 15-15 15 6.716 15 15-6.716 15-15 15zm60 60c-8.284 0-15-6.716-15-15s6.716-15 15-15 15 6.716 15 15-6.716 15-15 15zm60 0c-8.284 0-15-6.716-15-15s6.716-15 15-15 15 6.716 15 15-6.716 15-15 15zm0-60h-60c-8.284 0-15-6.716-15-15s6.716-15 15-15h60c8.284 0 15 6.716 15 15s-6.716 15-15 15z" /><g><path d="m91 151h120v30h-120z" /><path d="m1 90v232.269c14.837-12.626 34.038-20.269 55-20.269h400c20.962 0 40.163 7.643 55 20.269v-232.269zm225 181h-150c-8.284 0-15-6.716-15-15s6.716-15 15-15h150c8.284 0 15 6.716 15 15s-6.716 15-15 15zm15-75c0 8.284-6.716 15-15 15h-150c-8.284 0-15-6.716-15-15v-60c0-8.284 6.716-15 15-15h150c8.284 0 15 6.716 15 15zm195 75h-90c-8.284 0-15-6.716-15-15s6.716-15 15-15h90c8.284 0 15 6.716 15 15s-6.716 15-15 15zm0-60h-150c-8.284 0-15-6.716-15-15s6.716-15 15-15h150c8.284 0 15 6.716 15 15s-6.716 15-15 15zm0-60h-150c-8.284 0-15-6.716-15-15s6.716-15 15-15h150c8.284 0 15 6.716 15 15s-6.716 15-15 15z" /></g></g></svg>