<svg xmlns="http://www.w3.org/2000/svg" viewBox="0 0 510.2 510.2"><path d="M291.7 427.4a53 53 0 0 1-36.2-14.2 53.1 53.1 0 0 1-71.4-78.6l60-60a16.3 16.3 0 0 1 22.8 0l60 60a53.1 53.1 0 0 1-35.2 92.8zm-36.2-51.3l9.1 14.7a32 32 0 1 0 48.1-40.7l-.5-.5-56.6-56.6-57 57-.3.2a32 32 0 1 0 48.1 40.7l9.1-14.8z"></path><path d="M255.5 240.7c-4.3 0-8.3-1.7-11.4-4.7l-60-60a53.1 53.1 0 1 1 71.4-78.6 53.1 53.1 0 0 1 71.4 78.6l-60 60a15.9 15.9 0 0 1-11.4 4.7zm-36.2-136.3a32 32 0 0 0-21 55.9l.5.5 56.6 56.6 56.8-56.8.3-.2a32 32 0 1 0-48.1-40.7l-9.1 14.7-9.1-14.7a31 31 0 0 0-26.9-15.3z"></path><path d="M382.8 344.9a52.8 52.8 0 0 1-39.7-17.9l-60-60a16.3 16.3 0 0 1 0-22.8l60-60a53.1 53.1 0 1 1 78.6 71.4 53.1 53.1 0 0 1-38.9 89.3zm-81-89.3l56.8 56.8.2.3a32 32 0 1 0 40.7-48.1l-14.7-9.1 14.7-9.1a32 32 0 1 0-40.7-48.1l-.5.5-56.5 56.8z"></path><path d="M129.9 344.9A53.1 53.1 0 0 1 91 255.6a53.1 53.1 0 0 1 78.6-71.4l60 60a16.3 16.3 0 0 1 0 22.8l-60 60a52.8 52.8 0 0 1-39.7 17.9zm0-157.3a32 32 0 0 0-16.7 59l14.7 9.1-14.7 9.1a32 32 0 1 0 40.7 48.1l.5-.5 56.6-56.6-56.8-56.8-.2-.3a31.9 31.9 0 0 0-24.1-11.1z"></path></svg>