<svg xmlns="http://www.w3.org/2000/svg" viewBox="0 0 510.2 510.2"><path d="M382 141.2H126.9a42.6 42.6 0 0 0-42.5 42.5v141.7a42.6 42.6 0 0 0 42.5 42.5H382a42.6 42.6 0 0 0 42.5-42.5V183.7c0-23.5-19-42.5-42.5-42.5zm-255.1 28.3H382c7.8 0 14.2 6.4 14.2 14.2v48.9H356c3.8-3.9 6.4-8.3 7.7-13 1.8-6.7.9-13.7-2.5-19.8a31.5 31.5 0 0 0-40.1-12.2c-9.8 3.2-18.5 12.3-26 27-7.5-14.7-16.2-23.8-26-27a31.6 31.6 0 0 0-40.1 12.2 25.5 25.5 0 0 0-2.5 19.8c1.3 4.7 3.9 9.1 7.7 13H112.7v-48.9c0-7.8 6.4-14.2 14.2-14.2zm210.9 51.1a81.2 81.2 0 0 1-25.4 11.9h-1l-1.2.1h-.4c4.8-11.8 11.5-23.2 17.8-25.1l.6-.2.6-.3a14 14 0 0 1 5.4-1.2c4.1 0 7.3 2.2 8.6 4.4 2.5 4.2-2.1 8.3-5 10.4zm-57.6 12h-2.4c-7.7-2.2-17-5.8-25.6-12-2.9-2.1-7.4-6.2-5.1-10.4a10 10 0 0 1 8.6-4.4c1.7 0 3.5.4 5.4 1.2l.6.3.6.2c6.4 1.9 13.1 13.3 17.9 25.1zm101.8 107H126.9c-7.8 0-14.2-6.4-14.2-14.2v-71.8H268l.4 30.7c.1 5.8 4.8 10.4 10.5 10.4h.1c5.8-.1 10.4-4.8 10.4-10.6l-.4-30.4h12l.2 59.2a10.5 10.5 0 1 0 21 0l-.2-59.1h74.2v71.8c0 7.6-6.4 14-14.2 14z"></path></svg>