<svg xmlns="http://www.w3.org/2000/svg" viewBox="0 0 510.2 510.2"><path d="M435.7 397.7l-41.8 11.7-25.9-92.8a63.7 63.7 0 0 0 31.3-73.6l-24.9-89.2-27.3 7.6 24.9 89.2a35.8 35.8 0 1 1-69 19.2l-24.2-86.7 12.8-28.2-25.8-11.7-38.3 84.3a35.8 35.8 0 1 1-65.2-29.6l38.3-84.3-25.8-11.7-38.3 84.3a64.3 64.3 0 0 0 19.6 77.6l-39.8 87.7-38-17.5-11.7 25.8 100.8 45.8 11.7-25.8-36.8-16.7 39.8-87.6a64.2 64.2 0 0 0 71.3-36.3l7.2-15.9 15.1 54.1a63.7 63.7 0 0 0 61.7 46.9l3.3-.1 25.9 92.8-37.5 10.5 7.6 27.3L443.4 425l-7.7-27.3z"></path><ellipse cx="205.5" cy="193.2" rx="14.2" ry="14.2" transform="rotate(-65.6 205.5 193.2)"></ellipse><ellipse cx="221.5" cy="130.5" rx="14.2" ry="14.2" transform="rotate(-65.6 221.5 130.5)"></ellipse><ellipse cx="315" cy="145" rx="14.2" ry="14.2" transform="rotate(-65.6 315 145)"></ellipse><ellipse cx="310.5" cy="204.5" rx="14.2" ry="14.2" transform="rotate(-60.6 310.5 204.5)"></ellipse><ellipse cx="346.6" cy="259.9" rx="14.2" ry="14.2" transform="rotate(-60.6 346.6 260)"></ellipse><ellipse cx="241.4" cy="68.9" rx="14.2" ry="14.2" transform="rotate(-65.6 241.4 68.9)"></ellipse><ellipse cx="255.6" cy="109.4" rx="14.2" ry="14.2" transform="rotate(-65.6 255.6 109.4)"></ellipse></svg>