<svg xmlns="http://www.w3.org/2000/svg" viewBox="0 0 510.2 510.2"><path d="M255.1 432.3c97.7 0 177.2-79.5 177.2-177.2 0-97.7-79.5-177.2-177.2-177.2A177.4 177.4 0 0 0 78 255.1c0 97.7 79.4 177.2 177.1 177.2zm148.8-180.7h-71.2a329 329 0 0 0-8.9-74.4h58a146.4 146.4 0 0 1 22.1 74.4zM255.1 403.9c-9.6 0-18.9-.9-28-2.7a110.8 110.8 0 0 1-21.2-32.4c-4-8.8-7.5-18.4-10.4-28.7h119.1c-2.9 10.3-6.4 20-10.4 28.7a108.9 108.9 0 0 1-21.2 32.4 142 142 0 0 1-27.9 2.7zm61.5-70.8H193.7a321.8 321.8 0 0 1-9.1-74.4h141c-.2 26.4-3.4 51.8-9 74.4zm13.9-37.7l.4-3.9.7-7.9.5-8 .4-8.1.2-8.8h71.2c-.6 27.2-8.6 52.7-22.1 74.4h-58a290 290 0 0 0 6.7-37.7zm-4.9-43.8h-141c.3-26.5 3.4-51.9 9.1-74.4h122.9a316 316 0 0 1 9 74.4zm-148.1 0h-71.2c.6-27.2 8.6-52.7 22.1-74.4h58a329 329 0 0 0-8.9 74.4zm0 7.1l.2 8.8.4 8.1.5 8 .7 7.9.4 3.9a308 308 0 0 0 6.6 37.7h-58a148.7 148.7 0 0 1-22.1-74.4h71.3zm-44.4 81.5h55.1c3.1 11.4 6.9 22 11.3 31.7a133.5 133.5 0 0 0 15.8 26.7 149.8 149.8 0 0 1-82.2-58.4zm161.8 58.3c5.7-7.3 11-16.2 15.8-26.7 4.4-9.7 8.2-20.3 11.3-31.7h55.1a148.5 148.5 0 0 1-82.2 58.4zm82.3-228.4H322c-3.1-11.4-6.9-22-11.3-31.7a133.5 133.5 0 0 0-15.8-26.7 149.5 149.5 0 0 1 82.3 58.4zm-94.1-61.2c7.7 7.7 14.9 18.6 21.2 32.4 4 8.8 7.5 18.4 10.4 28.7H195.6c2.9-10.3 6.4-20 10.4-28.7a108.9 108.9 0 0 1 21.2-32.4 151.9 151.9 0 0 1 55.9 0zm-67.8 2.8c-5.7 7.3-11 16.2-15.8 26.7-4.4 9.7-8.2 20.3-11.3 31.7h-55.1c19.5-28 48.5-49 82.2-58.4z"></path></svg>