<svg xmlns="http://www.w3.org/2000/svg" viewBox="0 0 510.2 510.2"><path d="M180.5 154.9v-1.2c0-7.9-3.1-11.8-9.3-11.8-4.8 0-7.9 2.3-9.4 7a67.3 67.3 0 0 0-1.7 18.2c0 12.1.7 20 2.1 23.9 1.5 4.3 4.5 6.4 9.2 6.4 3.5 0 6.5-.5 9.1-1.6v-18.4H171v-9.8h22.7v36.2a74.6 74.6 0 0 1-22 3.4c-11.1 0-18.4-3.5-21.7-10.4-2.3-4.6-3.4-13.9-3.4-27.8 0-12.8 1.1-21.5 3.3-26.1 3.4-7.2 10.5-10.8 21.3-10.8 7.7 0 13.4 1.7 17.1 5.1 3.7 3.4 5.6 8.9 5.6 16.6v1.1h-13.4z"></path><path d="M249.2 154.1c0 8.8-2.3 14.8-6.8 17.9-3.3 2.3-9.2 3.5-17.5 3.5h-6.2v30.3h-13.4v-72.3h21.5c7.7 0 13.4 1.5 16.9 4.4 3.6 3.1 5.5 8.5 5.5 16.2zm-13.4.1c0-4.2-1-7.1-3.1-8.8-1.8-1.4-4.9-2.1-9.2-2.1h-4.8v22.4h4.4c2.3 0 4.2-.2 5.8-.5a9 9 0 0 0 3.9-1.9c1-.9 1.8-2.1 2.2-3.6.5-1.4.8-3.3.8-5.5z"></path><path d="M289.3 205.8c-.3-1.3-.4-2.9-.6-4.6s-.2-3.6-.2-5.6l-.2-6.9-.1-3.4c-.3-4.2-1.1-7-2.5-8.4-1.3-1.4-4.1-2.1-8.3-2.1H272v31h-13.4v-72.3h22.7c7.2 0 12.4 1.1 15.5 3.3 4.1 2.8 6.1 7.9 6.1 15.4 0 10.1-4.1 15.9-12.3 17.6 4.5.3 7.5 1.8 9 4.7a30 30 0 0 1 2.2 13.3l.3 9c.2 3.5.6 6.5 1.2 9h-14zm-.1-52.4c0-3.7-.9-6.3-2.6-7.8-1.8-1.5-4.5-2.3-8.2-2.3H272V165h5.2c2.2 0 4.1-.2 5.6-.6a9 9 0 0 0 3.8-1.9 8 8 0 0 0 2.1-3.6c.3-1.4.5-3.3.5-5.5z"></path><path d="M356.1 187.2c0 13.3-7.5 20-22.6 20-8.3 0-14-1.7-17.3-5.1-3.3-3.5-5-9.2-5-17.3v-.8h13.6v.9c0 3.9.5 6.7 1.4 8.6 1.3 2.6 3.7 3.9 7.4 3.9 6 0 9-3 9-9.1 0-3.1-1.4-5.9-4.1-8.2-.7-.5-3.8-2.6-9.4-6.1a98.6 98.6 0 0 1-11.9-8.7 20 20 0 0 1-5-13.8c0-12.9 7.5-19.4 22.4-19.4 6.8 0 11.9 1.4 15.2 4.1 3.6 3 5.4 7.8 5.4 14.4v2.8h-13.3v-1.8c0-6.5-2.6-9.7-7.9-9.7-5.5 0-8.3 2.8-8.3 8.5 0 3.2 1.6 6.1 4.9 8.7l5.1 3.2 5.1 3.2c5.8 3.7 9.5 6.5 11.1 8.4a20 20 0 0 1 4.2 13.3z"></path><g><path d="M177.7 376.8v-72.3h13.4v62.3h22.5v10h-35.9z"></path><path d="M258.8 376.8l-4.3-16.6h-21.8l-4.3 16.6h-13.2l20.2-72.3h17.3l19.8 72.3h-13.7zm-15.2-61.6l-8.2 35.2h16.4l-8.2-35.2z"></path><path d="M308.5 376.8l-17.2-60.6v60.6h-11.8v-72.3h20.1l17.2 60.6v-60.6h11.8v72.3h-20.1z"></path></g><path d="M113.7 241.7h283.5V270H113.7z"></path></svg>