<svg xmlns="http://www.w3.org/2000/svg" viewBox="0 0 510.2 510.2"><path d="M255.8 173.5a39 39 0 0 0-15.5 75v180.9h28.3V249.5a39.1 39.1 0 0 0-12.8-76z"></path><path d="M161.1 99.8l-20-20a186.4 186.4 0 0 0-55 132.8c0 50.2 19.5 97.3 55 132.8l20-20c-30.1-30.1-46.7-70.2-46.7-112.8s16.5-82.7 46.7-112.8z"></path><path d="M182.2 130.6c-21.9 21.9-34 51-34 82s12.1 60.1 34 82l20-20a87 87 0 0 1 0-123.8l-20-20.2z"></path><path d="M370.9 79.8l-20 20c30.1 30.1 46.7 70.2 46.7 112.8s-16.6 82.6-46.7 112.8l20 20c35.5-35.5 55-82.6 55-132.8 0-50.2-19.5-97.4-55-132.8z"></path><path d="M329.7 130.6l-20 20a87.6 87.6 0 0 1 0 123.9l20 20a116 116 0 0 0 0-163.9z"></path></svg>