<svg xmlns="http://www.w3.org/2000/svg" viewBox="0 0 510.2 510.2"><circle cx="207" cy="369.1" r="14.1"></circle><path d="M174.3 244.3h7.1v44.5h-7.1z"></path><path d="M401.1 244.3h7.1v44.5h-7.1z"></path><path d="M306 157.6v-43.7a28.3 28.3 0 0 0-28.3-28.3H136.2a28.3 28.3 0 0 0-28.3 28.3v282.9a28.3 28.3 0 0 0 28.3 28.3h141.5a28.3 28.3 0 0 0 28.3-28.3V179a58.7 58.7 0 0 1 45.1 56.9h-7.9v62.3h44.9v-62.3h-16a79.8 79.8 0 0 0-66.1-78.3zm-169.8-43.8h141.5v43.6a79.7 79.7 0 0 0-67.1 78.5h-16.3v62.3h44.9v-62.3h-7.6c.1-28 19.8-51.4 46.1-57.1v157.9H136.2V113.8zm141.5 283H136.2v-53.1h141.5v53.1z"></path></svg>