<svg xmlns="http://www.w3.org/2000/svg" viewBox="0 0 510.2 510.2"><path d="M234.2 195.1c.1-.1.1-.2 0 0z"></path><path d="M234.2 195.3v.2c-.1-.1 0-.2 0-.2z"></path><path d="M161.5 177.6c.1 11.7 7.1 18.7 16.2 24.3 19.8 12.2 38.4-.3 56.6-6.6-18.2-10.6-36-22.2-54.9-31.6-9.7-4.8-18 2.9-17.9 13.9z"></path><path d="M234.1 195.5c0 .1 0 .1 0 0z"></path><path d="M234.2 195.3v-.2.2z"></path><path d="M262 195.3v-.2.2z"></path><path d="M262.1 195.5v-.2.2z"></path><path d="M262.1 195.5c0 .1 0 .1 0 0z"></path><path d="M262 195.1c-.1-.2 0-.1 0 0z"></path><path d="M318.6 201.9c9.1-5.6 16.1-12.6 16.2-24.3.1-11-8.3-18.7-17.9-13.9-18.8 9.4-36.6 20.9-54.9 31.6 18.2 6.3 36.8 18.8 56.6 6.6z"></path><path d="M144.4 239.4c-1.8-25.6-1.1-100.9 23-125.7 10.8 2.6 37.5 16.5 65.4 35.8 6.1 4.2 10.7 6 15.3 5.9 3.9-.1 8.3-1.6 13-4.5l1.2-.8c16.9-12.8 52.8-35.4 70.7-38.1 11 11.4 18.8 36.1 22 70.5 3 31.1 1.1 59.2 1.1 59.4l28.3 1.9c.1-1.2 2-30.3-1.1-63.6-4.4-47.4-16.8-78.9-36.7-93.9a14.7 14.7 0 0 0-7.6-2.8c-14.2-.9-33.9 6.1-60.2 21.7-13.5 8-25.4 16.3-30.9 20.3a555.6 555.6 0 0 0-32.3-20.3c-33.8-19.5-47-21-54.8-20.1a14 14 0 0 0-6.8 2.7c-19.9 14.9-32.2 45.8-36.7 91.8-3.1 32.4-1.2 60.5-1.2 61.7l28.3-1.9z"></path><path d="M299 360.9a216.6 216.6 0 0 1-35.2 30.8c-12.1 8.5-21.9 8.4-34 0-32.5-23-57.6-47.7-74.3-93.5l-2.2-8.5c3.5 0 7 0 10.8.2a72 72 0 0 0 56.5-23.5 35.6 35.6 0 0 1 50.1-2.2l4 3.8a64.6 64.6 0 0 0 28.5-12.7 40.5 40.5 0 0 1-6.5-5.4l-.7-.7c-2.2-2.2-4.4-4.5-7.1-6.7a63.7 63.7 0 0 0-88.8 4.2 43.5 43.5 0 0 1-35 14.9c-7.5-.3-14-.2-20.8-.2l-9.5.1h-18.3l11.7 45.1.2.6a206.6 206.6 0 0 0 34.2 62c13 15.9 29 30.4 50.6 45.6a57.4 57.4 0 0 0 33.3 11.5c11.2 0 22.3-3.8 33.2-11.4a238 238 0 0 0 41.4-36.6 93.5 93.5 0 0 1-22.1-17.4z"></path><path d="M392.7 282.7v-.7-.2c0-1.2-.5-2.4-1.3-3.2a4.3 4.3 0 0 0-2.8-1.5l-.7-.1c-23.6 0-45.1-27.2-45.4-27.5a4.8 4.8 0 0 0-3.4-1.8c-1.7 0-3.5.3-4.6 1.8-.2.3-21.8 27.5-45.4 27.5a4.8 4.8 0 0 0-4.8 4.8V282.7c.1 1.8 1.6 17.7 8.2 35.3 9.1 24.5 24.8 42.2 43.6 50.4l2.4.9 2.5-.9c19.3-8 34.3-25.4 43.6-50.4 6.8-18.5 8.1-34.6 8.1-35.3zm-54.2 75.4a59.1 59.1 0 0 1-25.4-20.9l58.4-12.6a65.7 65.7 0 0 1-33 33.5zm37.9-45L307.3 328c-1.7-3.2-3.3-6.6-4.8-10.3l77.5-16.6c-1 3.9-2.2 8-3.6 12zm5.8-23.3l-83.3 17.8c-2.5-8.5-3.9-16.6-4.6-21.3 20.1-2.5 37.1-18.9 44.2-26.7 7.1 7.8 24.2 24.3 44.3 26.8l-.6 3.4z"></path></svg>