<svg xmlns="http://www.w3.org/2000/svg" viewBox="0 0 510.2 510.2"><path d="M419.3 249.7l-35.7-29.3c-8.6-7-21.6-4.8-29.7 5l-2.3 2.8-50.6-38a62 62 0 0 0-60.3-4.6l-66.2 2c-8.5.1-16.6 6.2-19.1 14.2-4.1 13.5 8 23.3 13.4 26.9 26.2 17.5 61.9 16.4 63.4 16.3l-.8-21c-.3 0-30.5.9-51-12.8a37 37 0 0 1-3.5-2.7l68.7-2.1 2-1c22.5-10.8 39.6.8 40.8 1.6l49.8 37.4-32.2 39.3-21.6-16.2-.4-.3a32.1 32.1 0 0 0-26.6-4.4l.8 2.8-1-2.7-38.5 13.7c-.9.3-16.8 5.2-35.9-8.2-8.4-5.9-30.5-23.7-84.8-76.7l-1.3-1.3c-.2-.8.1-2.6 1-3.5.9-.8 3.5-.3 6.5 1.2l35.1 15.6 8.5-19.2-34.4-15.3C97.7 161.4 86 167 80.3 175c-6.8 9.5-6.2 22.7 1.4 30.1l1.6 1.5c41.6 40.6 71.8 67.8 87.4 78.8a67.3 67.3 0 0 0 39.3 13.1c9.2 0 15.1-2.1 15.6-2.3l38.1-13.6c2.8-.6 5.8-.1 8.2 1.5l20.7 15.5-8.4 10.2a24.3 24.3 0 0 0-5.7 14.6 18.8 18.8 0 0 0 6.6 15.4l35.7 29.3c3.2 2.7 7.3 4.1 11.6 4.1 1.6 0 3.2-.2 4.8-.6 5-1.2 9.7-4.2 13.2-8.5l69.6-84.8c8.3-9.4 7.9-22.6-.7-29.6zM404 266.4l-69.6 84.8a4 4 0 0 1-1.3 1.1l-33.4-27.4c.1-.4.4-.9.9-1.5l69.6-84.8a4 4 0 0 1 1.3-1.1l33.4 27.4-.9 1.5z"></path><path d="M332.7 309.1c-18.8-2.4-25 21-7.5 28.2 18.8 2.5 25-20.9 7.5-28.2z"></path></svg>