<svg xmlns="http://www.w3.org/2000/svg" viewBox="0 0 510.2 510.2"><path d="M265.4 341.4a22.5 22.5 0 0 0-13.5-6.2 22.3 22.3 0 0 0-24.6-25.6 22.4 22.4 0 0 0-25.4-21.5 22.3 22.3 0 0 0-37.8-14L146.8 291a22.2 22.2 0 0 0-.5 31.6c2.9 3 6.4 4.9 10.1 6a22.5 22.5 0 0 0 3.7 29.2c4.1 3.7 9.3 5.6 14.8 5.6h1.4l1.1-.1v.7a22.3 22.3 0 0 0 22.3 21h1.4c3.8-.2 7.4-1.4 10.6-3.4a22.5 22.5 0 0 0 21.4 15.8h.4a22 22 0 0 0 15.7-6.8l16.8-17.3a22.8 22.8 0 0 0-.6-31.9zm-112.8-34.5c0-2.6 1.1-5.1 3-6.9l17.3-16.8a9.7 9.7 0 0 1 13.8.2 9.9 9.9 0 0 1 .6 13l-18 17.7-.1-.1a9.7 9.7 0 0 1-13.8-.2 9.4 9.4 0 0 1-2.8-6.9zm29.7 40.6a9.6 9.6 0 0 1-6.7 3.3c-2.6.1-5.1-.7-7.1-2.4a9.8 9.8 0 0 1-.8-13.8l29.7-30.3.3-.3a9.8 9.8 0 0 1 14.6 13l-30 30.5zm24.8 21.5a9.6 9.6 0 0 1-6.7 3.3c-2.6.1-5.1-.7-7.1-2.4a9.8 9.8 0 0 1-.9-13.8l29.7-30.3.3-.3a9.8 9.8 0 0 1 14.7 13l-30 30.5zm36.6-19.1a9.8 9.8 0 0 1 6.1-2.1 9.7 9.7 0 0 1 7 16.5L240 381.6a10 10 0 0 1-6.9 3c-2.6.1-5.1-.9-7-2.8-3.9-3.8-4-10-.2-13.8l.1-.1 17.7-18z"></path><path d="M123.7 246c-.5 7 2.2 13.8 7.2 18.7l12.3 12.4 9.1-8.7-12.5-12.6-.1-.1a11.2 11.2 0 0 1-3.4-8.8l1.3-18.7 55.3-56.9 17.9-2a11 11 0 0 1 8.9 3l16.2 15.9 9.1-8.7-16.6-16.2c-5.1-4.9-12-7.2-19-6.5l-7.1.8c1-4.7-.1-9.3-3.5-12.6L171 118c-2.9-2.8-7-4-11.4-3.4-3.7.6-7.4 2.5-10.2 5.4l-64.1 66c-6.5 6.6-7.1 16.2-1.4 21.6l27.8 27a13 13 0 0 0 11.4 3.4l1.2-.2-.6 8.2zm-2.3-19.5L92 197.8l69.2-72 30 29.1-69.8 71.6z"></path><circle cx="120.4" cy="197.7" r="9.7"></circle><path d="M424.8 178l-67.1-63c-3-2.8-6.7-4.6-10.5-5-4.3-.5-8.4 1-11.2 3.9l-26.6 28.3a13.2 13.2 0 0 0-3.2 11.4l.3 1.2-8.3-.4a24 24 0 0 0-18.6 7.5l-18 19-24.9 23.8-8.7 8.4a22.3 22.3 0 0 0 15.1 38.5c6 .1 11.6-2.1 15.9-6.2l18.4-17.3 84.7 81.1a9.6 9.6 0 0 1 2.5 6.8c-.1 2.6-1.2 5-3.1 6.8a9.8 9.8 0 0 1-13.8-.5l-45.5-38.2-8.1 9.6 43.6 36.8a8.6 8.6 0 0 1 2.2 7c-.2 2.8-1.5 5.6-3.5 7.5a9.9 9.9 0 0 1-12.7.6L293.2 319l-8.3 9.5 29.7 26.2a9.8 9.8 0 0 1-1.2 13 9.8 9.8 0 0 1-13.8-.5l-12.9-11.1-8.2 9.6 11.5 9.8-.1.1c3.6 3.8 3.2 10-.8 13.8a9.7 9.7 0 0 1-13.8-.5l-3.8-3.1-8.8 9 3.7 3a22.4 22.4 0 0 0 38.5-15l1.1.1h.8a22.3 22.3 0 0 0 22.4-22.4h.6c5.5 0 11-2 15.3-6a23.9 23.9 0 0 0 7.5-16.3l1.5.1h.8a22.3 22.3 0 0 0 16.4-37.6L320 253l-42.2-42.2-27.3 25.7a9.8 9.8 0 0 1-13.5-14.1l8.7-8.3 25-23.9 18.4-19.4c2.3-2.4 5.5-3.7 8.7-3.6l18.8 1 49 45.9 3.5 19.5a11 11 0 0 1-2.5 9.2L350 262.9l9.2 8.7 17.1-20.7a24 24 0 0 0 5.2-19.4l-.5-3c3.2 2.4 6.9 3.7 10.4 3.7a13 13 0 0 0 9.6-4l26.6-28.3c5-6.1 4-15.6-2.8-21.9zm-33.3 41.3L318 151.4l28-30.2 73.8 67.3-28.3 30.8z"></path><circle cx="390.3" cy="188.8" r="9.7"></circle></svg>