<svg xmlns="http://www.w3.org/2000/svg" viewBox="0 0 510.2 510.2"><path d="M405.2 342.7L363.7 308 338 286.6l-18.1 21.8 25.9 21.7 41.2 34.4a28.3 28.3 0 0 1 10.1 21.7v39h28.3v-39a56.4 56.4 0 0 0-20.2-43.5z"></path><path d="M340.4 163a85 85 0 0 0-170 0v56.7h.1a92 92 0 0 0 18.7 53.2l-10.9 9.1-31.2 26-41.5 34.7a56.5 56.5 0 0 0-20.3 43.4v39h28.3v-39c0-8.4 3.7-16.3 10.1-21.7l41.5-34.7 33.9-28.4 11.4-9.5a85 85 0 0 0 129.9-72.2V163zm-28.3 56.7a56.7 56.7 0 0 1-56.7 56.7c-30.3 0-55.1-26.6-56.6-56.7l-.1-2.8V163a56.7 56.7 0 0 1 113.4 0v56.7z"></path><path d="M393.1 179h7.1v35.4h-7.1z"></path><path d="M156.8 171.7H153v-7.1c0-56.4 46-104 102.4-104.1 56.1 0 101.8 48.3 102.2 104.3v7.1h-3.7v49.6h28.3v-49.6h-17.5v-6.3c0-60.3-49-112.1-109.3-112.2-60.3 0-109.4 50.9-109.4 111.2v7.1h-17.4v49.6h28.3v-49.6z"></path><path d="M111.2 178.8h7.1v35.4h-7.1z"></path></svg>