<svg xmlns="http://www.w3.org/2000/svg" viewBox="0 0 510.2 510.2"><path d="M310.9 284.3l-16.3 19.2 21.9 18.3 36.9 30.8c5.7 4.8 9 11.8 9 19.3v34.7h25.2v-34.7c0-14.9-6.6-29-18-38.6l-36.9-30.8-21.8-18.2z"></path><path d="M110.5 371.9c0-7.5 3.3-14.5 9-19.3l36.9-30.8 40.2-33.6a75.6 75.6 0 0 0 115.3-63.9v-50.6a75.6 75.6 0 0 0-151 0v50.5a75.7 75.7 0 0 0 16.6 47l-37.3 31.2-36.9 30.8a50.5 50.5 0 0 0-18 38.6v34.7h25.2v-34.6zM186 224v-50.4a50.4 50.4 0 0 1 100.8 0v50.6A50.4 50.4 0 0 1 186 224z"></path><path d="M223.3 400.3l12.6 18.9 12.6-18.9v-81.8h-25.2z"></path><path d="M254.8 439.4z"></path><path d="M426 170.9a39.4 39.4 0 0 0-78.8 0v.1c.1 19.2 14 35.3 32.3 38.6V299h15.8v-17H410v-25.7h-14.6v-47a39.4 39.4 0 0 0 30.6-38.2v-.2c0 .1 0 0 0 0zm-39.4 23.6a23.5 23.5 0 1 1 0-47 23.5 23.5 0 0 1 0 47z"></path></svg>