<svg xmlns="http://www.w3.org/2000/svg" viewBox="0 0 510.2 510.2"><path d="M254.1 76.9A177.4 177.4 0 0 0 76.9 254.1c0 97.7 79.5 177.2 177.2 177.2S431.2 351.7 431.2 254c0-97.7-79.4-177.1-177.1-177.1zm28 323.3a151.9 151.9 0 0 1-56 0 110.8 110.8 0 0 1-21.2-32.4c-4-8.8-7.5-18.4-10.4-28.7h89.2a31 31 0 0 0 22.1 22.6l-2.6 6.1a108.8 108.8 0 0 1-21.1 32.4zM105.3 257.6h38.3a31.2 31.2 0 0 0 34.3 29.5c1.5 15.7 3.9 30.8 7.4 44.9h-58a147.9 147.9 0 0 1-22-74.4zm120.8-149.7a151.9 151.9 0 0 1 56 .1c7.7 7.7 14.9 18.6 21.2 32.4.9 2.1 1.9 4.2 2.7 6.4a31.3 31.3 0 0 0-22.2 22.4h-89.3c2.9-10.3 6.4-20 10.4-28.7 6.3-14.1 13.5-25 21.2-32.6zm-41.2 177.7c5.3-1.8 10-5.1 13.6-9.3l86.2 44.6c-1.2 3.3-1.9 7-1.9 10.7v.4h-90.2a312 312 0 0 1-7.7-46.4zM314 300.4a31.2 31.2 0 0 0-26.1 14.1l-85.4-44.2c2-3.9 3.2-8.2 3.4-12.8h118.7c-.1 15-1.2 29.7-3.2 43.7a35 35 0 0 0-7.4-.8zm-108.6-49.9c-.9-4.8-2.8-9.2-5.7-13l91.4-39.5a31.2 31.2 0 0 0 30.3 9.1c1.9 13.9 3 28.5 3.1 43.4H205.4zm77.5-74.4v.7a31 31 0 0 0 4.1 15.4L194.6 232a30.5 30.5 0 0 0-10-5.5c1.4-17.8 4.1-34.8 8-50.4h90.3zM177.6 225l-2.8-.1c-15.3 0-28 11-30.7 25.6h-38.8c.6-27.2 8.6-52.7 22.1-74.4h58a308.4 308.4 0 0 0-7.8 48.9zm150.6 78.8c2.1-14.8 3.3-30.4 3.5-46.3h71.2c-.6 27.2-8.6 52.7-22.1 74.4h-35.6v-.4c0-12-6.9-22.5-17-27.7zm3.5-53.3c-.2-15.8-1.3-31.3-3.4-46a31.2 31.2 0 0 0 16.9-27.7v-.7h35.6a148.7 148.7 0 0 1 22.1 74.4h-71.2zm44.4-81.5h-31.9a31.2 31.2 0 0 0-30.2-23.4h-.8l-3.5-8.3a133.5 133.5 0 0 0-15.8-26.7 149.3 149.3 0 0 1 82.2 58.4zm-161.8-58.4c-5.7 7.3-11 16.2-15.8 26.7-4.4 9.7-8.2 20.3-11.3 31.7H132c19.6-28 48.5-49 82.3-58.4zM132 339.1h55.1c3.1 11.4 6.9 22 11.3 31.7a133.5 133.5 0 0 0 15.8 26.7 150.1 150.1 0 0 1-82.2-58.4zm161.9 58.3c5.7-7.3 11-16.2 15.8-26.7l3.4-8h.9a31.3 31.3 0 0 0 30.3-23.7h31.8a148.8 148.8 0 0 1-82.2 58.4z"></path></svg>