<svg xmlns="http://www.w3.org/2000/svg" viewBox="0 0 510.2 510.2"><path d="M156.2 330.4h-32.4v-149h32.4v149z"></path><path d="M297.2 278.1c0 17.2-5.1 30.6-15.4 40.2a57.9 57.9 0 0 1-41.3 14.4 57.4 57.4 0 0 1-41.2-14.3c-10-9.6-15.1-23-15.1-40.3 0-17 5.2-30.4 15.7-40a58.8 58.8 0 0 1 41.4-14.4c17.3 0 31 4.8 40.9 14.3 10 9.5 15 22.9 15 40.1zm-31.3.2c0-10-1.7-18.2-5.2-24.5-4.4-8-11.1-12-20.2-12-16.6 0-24.9 12.2-24.9 36.5 0 24.5 8.3 36.7 24.9 36.7 9.1 0 15.8-4.1 20.2-12.2a51.1 51.1 0 0 0 5.2-24.5z"></path><path d="M406.1 205.1h-46.6v125.4h-32.4V205.1h-46.6v-23.7h125.6v23.7z"></path></svg>