<svg xmlns="http://www.w3.org/2000/svg" viewBox="0 0 510.2 510.2"><ellipse cx="233.6" cy="136.9" rx="14.9" ry="14.9" transform="matrix(1 -.00494 .00494 1 -.7 1.2)"></ellipse><circle cx="260.4" cy="166" r="11.7"></circle><ellipse cx="278.2" cy="107.3" rx="23.5" ry="23.5" transform="matrix(1 -.00494 .00494 1 -.5 1.4)"></ellipse><path d="M342.4 172.4l-18.2-21.7-33.7 28.2-.3.3a35 35 0 0 0-11.8 26.2v.1l.3 20.2h-.1v73.6H257v11.5h21.6v23.5H257v11.5h21.6v28.9a22.6 22.6 0 0 1-45.2 0V227.8l.3-22.3v-.1c0-10-4.4-19.5-11.8-26.2l-34-28.5-18.2 21.7 33.5 28.1c1.4 1.3 2.2 3 2.2 4.9l-.2 17.8v151.5a51 51 0 0 0 101.8 0V225.5h-5.9l5.9-.1-.3-20c0-1.9.8-3.6 2.2-4.9l33.5-28.1z"></path></svg>