<svg xmlns="http://www.w3.org/2000/svg" viewBox="0 0 510.2 510.2"><path d="M325.5 348.6h28.3v-186h-28.3v79H113.9V114.1h84.6V85.7H99.7c-7.8 0-14.2 6.3-14.2 14.2V411c0 7.8 6.3 14.2 14.2 14.2h154.8v-28.3H113.9V270h131.4v50.1h-82.6v28.3h96.8c7.8 0 14.2-6.3 14.2-14.2V270h51.9v78.6z"></path><path d="M410.4 86.6L261.9 86h-.1a14.2 14.2 0 0 0-14.2 14.1v63.7h-86.2v28.3h100.4c7.8 0 14.2-6.3 14.2-14.2v-63.6l120.2.5V397h-91.5v28.3h105.7c7.8 0 14.2-6.3 14.2-14.2V100.8a14.3 14.3 0 0 0-14.2-14.2z"></path></svg>