<svg xmlns="http://www.w3.org/2000/svg" viewBox="0 0 510.2 510.2"><path d="M255.8 141A14.2 14.2 0 0 0 270 127V95.3a14.2 14.2 0 0 0-28.4 0V127A14.2 14.2 0 0 0 256 141z"></path><path d="M145.5 146.3l24.7 18a14.2 14.2 0 0 0 16.7-22.9l-24.7-18a14.2 14.2 0 0 0-16.7 23z"></path><path d="M334.7 166.5a14.1 14.1 0 0 0 8.3-2.7l24.7-18A14.2 14.2 0 1 0 351 123l-24.7 18a14.2 14.2 0 0 0 8.3 25.7z"></path><path d="M349.8 226.4a14.2 14.2 0 0 0 14.2 14.2h30.6a14.2 14.2 0 0 0 0-28.4H364a14.2 14.2 0 0 0-14.2 14.2z"></path><path d="M117.7 240.6h30.6a14.2 14.2 0 0 0 0-28.4h-30.6a14.2 14.2 0 1 0 0 28.4z"></path><path d="M255.8 287.2a14.7 14.7 0 1 0-14.7-14.7 14.7 14.7 0 0 0 14.7 14.7z"></path><path d="M315.8 240.6h4.7a14.2 14.2 0 0 0 0-28.4h-7.6a57.6 57.6 0 0 0-56.9-55.9 54.4 54.4 0 0 0-39.7 17.3 58 58 0 0 0-15.8 37.8h-.1l-.1.9H191a14.2 14.2 0 0 0 0 28.3h6L180 396h-1.8a14.2 14.2 0 0 0 0 28.4h152.8a14.2 14.2 0 0 0 0-28.4h-2.1zm-59.8-56c14.7 0 28 13.1 28.6 27.7h-55.8c.4-15 12.7-27.6 27.2-27.6zm-30.3 56h62.7v34.3a24.1 24.1 0 0 1-9.1 18.8l-40.6 31.8-24.7 19.9zM217 379.4l39.5-31.8 37.3-28.4 5.5 76.7h-90c1.2-7 4.1-13.6 7.7-16.5z"></path></svg>