<svg xmlns="http://www.w3.org/2000/svg" viewBox="0 0 510.2 510.2"><path d="M190.2 223.7v58.6c0 10.4 4 20.2 11.4 27.6l16.9 17 20.1-20-16.9-17c-2-2-3.1-4.7-3.1-7.6v-57.5a35.9 35.9 0 0 1 71.6-.5V282c0 2.9-1.2 5.8-3.3 7.8L273 303l-.2.2-.1.1-66.7 66.6 20 20 66.7-66.6 13.7-13.1a39 39 0 0 0 12-28.3v-57.2-1a64.2 64.2 0 0 0-128.2 0z"></path><path d="M215.4 391.3h89.4v28.3h-89.4z" transform="rotate(-45 260.1 405.5)"></path><path d="M321.2 129.8h65.6v28.3h-65.6z" transform="rotate(-40.7 354 144)"></path><path d="M142.1 111.2h28.3v65.6h-28.3z" transform="rotate(-49.3 156.2 144)"></path><path d="M240.1 66.1h28.3v64.5h-28.3z"></path></svg>