<svg xmlns="http://www.w3.org/2000/svg" viewBox="0 0 510.2 510.2"><path d="M426 313.6a39 39 0 0 0-13.2-26.5l-.7-.6a39 39 0 0 0-3.8-55 34.5 34.5 0 0 0-15-7.6 38.8 38.8 0 0 0-8.1-45.7 34.6 34.6 0 0 0-25.1-9.4l-38.1 1.5a35 35 0 0 0-11.7 2.6V126c0-10.7-4.2-21-11.5-28.3a35.5 35.5 0 0 0-25.2-10.5c-20.2.1-36.7 17.6-36.7 39.1V152l-.3 13.8v.1a36.3 36.3 0 0 1-13 27.5L205 207.9c-.9-2.1-2-4.1-3.4-5.9-4.5-6-11.1-9.4-18-9.4h-68.1c-13.5 0-24.1 12.5-24.1 28.4l-.1 161.5c0 7.1 2.2 13.8 6.1 19 4.5 6 11.1 9.4 18 9.4h68.1c13.5 0 24.1-12.5 24.1-28.4v-8.7l6.3 7.2a54.4 54.4 0 0 0 41.4 19.4l2.7-.1 46-.6a34.8 34.8 0 0 0 25.5 11.2h.1l38.1-.1a37 37 0 0 0 35.8-37.9c0-6.9-1.8-13.6-5.1-19.4a38 38 0 0 0 27.6-39.9zm-25.5-54c.7 9.3-5.5 17.5-13.7 18.2L373 279l-33.5.3-4.8.4-14.7.2h-.8a14 14 0 0 1-10.1-3.3 17.8 17.8 0 0 1-5.9-12.1c-.7-9.3 5.5-17.5 13.7-18.2l5-.4h2.6l37.5-1.4 21.7-.2h.8a14 14 0 0 1 10.1 3.3c3.4 2.9 5.6 7.3 5.9 12zm-77.7-68.3l19-.7 19-.7c3.6-.1 7.1 1.2 9.9 3.8 3.3 3.1 5.3 7.6 5.4 12.4.3 9.3-6.1 17.1-14.4 17.4h-.2l-26.7.3-13 1.1a14 14 0 0 1-8-3.7 17.6 17.6 0 0 1-5.4-12.4c-.3-9.4 6.1-17.2 14.4-17.5zM186.4 382.5c0 4.8-2.5 7.3-3.1 7.4h-68.1c-.6-.1-3.1-2.6-3.1-7.4l.1-161.5c0-4.8 2.5-7.3 3.1-7.4h68.1c.6.1 3.1 2.6 3.1 7.4l-.1 161.5zm71-3.2h-.4a33.5 33.5 0 0 1-27.4-12.1l-22-25.2-.2.2v-110l28.9-22.5.2-.2a57.3 57.3 0 0 0 20.8-43.5l.1-6.2h.2v-8.5l.4-12.3h-.2v-12.7c0-9.9 7.1-18.1 15.8-18.1 3.8 0 7.5 1.5 10.3 4.4a19 19 0 0 1 5.4 13.4v70.2a39.3 39.3 0 0 0 7.1 36.8 38.8 38.8 0 0 0-.9 59.5l.7.6a39 39 0 0 0 5.3 56.2 38.6 38.6 0 0 0-7.6 29.6l-36.5.4zm110 10.5l-38.1.1c-3.8 0-7.4-1.6-10.2-4.6-3-3.2-4.6-7.5-4.7-12.2 0-8.6 5.7-15.8 13.1-16.8l39.8-.4v.2c3.8 0 7.4 1.6 10.2 4.6 3 3.2 4.6 7.5 4.7 12.2.1 9.3-6.5 16.9-14.8 16.9zm23.9-56.5l-18.6 1.6-43.5.4v-.1l-2.9.1h-2.7a14 14 0 0 1-10.1-3.3 17.8 17.8 0 0 1-5.9-12.1c-.7-9.3 5.5-17.5 13.7-18.2l13.9-1.2 33.5-.3 4.8-.4 14.7-.2h.8a14 14 0 0 1 10.1 3.3c3.4 2.9 5.5 7.3 5.9 12 .8 9.6-5.4 17.7-13.7 18.4z"></path><path d="M157.4 336.8c-27.1-6.9-40.4 26-16.2 39.9 27.1 6.9 40.4-26 16.2-39.9z"></path></svg>