<svg xmlns="http://www.w3.org/2000/svg" viewBox="0 0 510.2 510.2"><path d="M123.2 260.1a24.2 24.2 0 0 1 21.4-2.3l10.5 3.9v.1l48.3 17.9a52.2 52.2 0 0 0 39.5-1.2v.1l.4-.2c2.2-1 4.3-2.1 6.4-3.4l29.2-18.4a24.5 24.5 0 0 1 17.1-.2l10.2 3.8v.1l21.3 7.8 16.8 6.2v-.1l10.2 3.8a53.1 53.1 0 0 0 46.3-5l31.7-20-15.1-24-31.7 20c-6.5 4.1-14.3 5-21.4 2.4l-27-9.9-31.5-11.7a52 52 0 0 0-39.5 1.3l-.1-.1-.6.4c-2.1 1-4.1 2.1-6.1 3.3l-29.4 18.5a23.7 23.7 0 0 1-17 .1l-10.4-3.9-48.4-18a52.3 52.3 0 0 0-46.3 4.9L76.4 256l15.1 24 31.7-19.9z"></path><path d="M417.4 307.7l-31.7 20c-6.5 4.1-14.3 5-21.4 2.4l-27-9.9-31.5-11.7a52 52 0 0 0-39.5 1.3l-.1-.1-.6.4c-2.1 1-4.1 2.1-6.1 3.3l-29.4 18.5a23.7 23.7 0 0 1-17 .1l-10.4-3.9-48.4-18A52.3 52.3 0 0 0 108 315l-31.7 19.9 15.1 24 31.7-19.9a24.2 24.2 0 0 1 21.4-2.3l10.5 3.9v.1l48.3 17.9a52.2 52.2 0 0 0 39.5-1.2v.1l.4-.2c2.2-1 4.3-2.1 6.4-3.4l29.2-18.4a24.5 24.5 0 0 1 17.1-.2l10.2 3.8v.1l21.3 7.8 16.8 6.3v-.1l10.2 3.8a53.1 53.1 0 0 0 46.3-5l31.7-20-15-24.3z"></path><path d="M123.2 181.2a24.2 24.2 0 0 1 21.4-2.3l10.5 3.9v.1l48.3 17.9a52.2 52.2 0 0 0 39.5-1.2v.1l.4-.2c2.2-1 4.3-2.1 6.4-3.4l29.2-18.4a24.5 24.5 0 0 1 17.1-.2l10.2 3.8v.1l21.3 7.8 16.8 6.2v-.1l10.2 3.8a53.1 53.1 0 0 0 46.3-5l31.7-20-15.1-24-31.7 20c-6.5 4.1-14.3 5-21.4 2.4l-27-9.9-31.5-11.7a52 52 0 0 0-39.5 1.3l-.1-.1-.6.4c-2.1 1-4.1 2.1-6.1 3.3L230.1 174a23.7 23.7 0 0 1-17 .1l-10.4-3.9-48.4-18a52.3 52.3 0 0 0-46.3 4.9L76.3 177l15.1 24 31.8-19.8z"></path></svg>