<svg xmlns="http://www.w3.org/2000/svg" viewBox="0 0 510.2 510.2"><path d="M410.5 190.1h-18.6v-61.9c0-7.8-6.3-14.2-14.2-14.2H136.4c-7.8 0-14.2 6.3-14.2 14.2v61.9h-21.8c-7.8 0-14.2 6.3-14.2 14.2V364c0 7.8 6.3 14.2 14.2 14.2h23.4c-.9 3.3-1.4 6.7-1.4 10.2v9.4h21v-9.4c0-3.8 1.3-7.4 3.5-10.2h228a17 17 0 0 1 3.5 10.2v9.4h21v-9.4c0-3.5-.5-7-1.4-10.2h12.7c7.8 0 14.2-6.3 14.2-14.2V204.3a14.6 14.6 0 0 0-14.4-14.2zm-259.9-47.7h213v47.7h-22.1c-7.8 0-14.2 6.3-14.2 14.2V270H189.6v-65.7c0-7.8-6.3-14.2-14.2-14.2h-24.9v-47.7zm-36 76.1h46.7v65.7c0 7.8 6.3 14.2 14.2 14.2h166c7.8 0 14.2-6.3 14.2-14.2v-65.7h40.7v131.4H114.6V218.5z"></path></svg>