<svg xmlns="http://www.w3.org/2000/svg" viewBox="0 0 510.2 510.2"><path d="M399 429.3a37.8 37.8 0 0 1-26.7-11.1L298 344.8l53.6-53.6 74.3 73.4a37.9 37.9 0 0 1-26.8 64.7zm-63.4-84.5l55.5 54.5a11.4 11.4 0 0 0 16 0 11.3 11.3 0 0 0 0-15.9L351.5 329z"></path><path d="M240.3 174.3a11 11 0 0 1-.8-3.4 57.7 57.7 0 0 0-16.8-37.4l-64.3-64.3-22.2 22.2 39.6 39.7-10.4 10.5-39.7-39.7-18.2 18.2 39.7 39.7-10.5 10.4L97 130.6l-20.3 20.3 64.3 64.3a57.7 57.7 0 0 0 37.3 16.8 10.8 10.8 0 0 1 3.5.8l8.7 3.5 53.3-53.3zM182.7 204l-2.7-.3a29.4 29.4 0 0 1-19-8.5l-4.3-4.4 24.6-24.6 17-17 4.3 4.4a29.4 29.4 0 0 1 8.6 19l.3 2.7z"></path><path d="M411.6 170.3l-49.9-49.7a26.1 26.1 0 0 0-36.9.3l-177 177.3a26.4 26.4 0 0 0-6.5 11L100.8 400a23 23 0 0 0 5 26 23.5 23.5 0 0 0 16.7 7 22.5 22.5 0 0 0 9.2-2l91.3-39.7a26.6 26.6 0 0 0 11.3-6.8l177-177.3a26.3 26.3 0 0 0 7.8-18.3 25.5 25.5 0 0 0-7.5-18.6zm-255 173.9l31.6 31.4-56.4 24.6zm59.1 18.9l-46.3-46.4 174-174.4 46.4 46.3z"></path></svg>