<svg xmlns="http://www.w3.org/2000/svg" viewBox="0 0 510.2 510.2"><path d="M225.3 258.3s0-.1 0 0a16.3 16.3 0 0 0-32.6 0v16.3a16.3 16.3 0 0 0 32.6 0v-16.3z"></path><path d="M306.4 258.2a16.3 16.3 0 0 0-32.6 0v16.3a16.3 16.3 0 0 0 32.6 0v-16.3z"></path><path d="M205.9 340.2h88.3v9.4h-88.3z"></path><path d="M127.4 176.7v25.7l.1.7a32 32 0 0 0-9.8 23.1v36.1c-22 .2-39.9 18-40.1 40.1v.4c.2 22 18.1 39.9 40.1 40.1v28a32.1 32.1 0 0 0 32.1 32.1h200.6a32.1 32.1 0 0 0 32.1-32.1v-31.4a40.5 40.5 0 0 0 39.4-40.1v-.2-.2a40.6 40.6 0 0 0-39.4-40.1v-32.8c0-8.5-3.3-16.2-8.7-22l.1-.7v-26.8l-11.5 2.5c-34.7 7.5-69.3 15-104.1 22.3-4 .8-9.3 1.2-13.2.4l-117.7-25.1zM97.7 302.6c.1-11 8.9-19.9 19.9-20v40.1a20.5 20.5 0 0 1-19.9-20.1zm258.1 68.2c0 3-2.5 5.5-5.5 5.5H149.8c-3 0-5.5-2.5-5.5-5.5V226.2c0-3 2.5-5.5 5.5-5.5h200.6c3 0 5.5 2.5 5.5 5.5v144.6zm26.6-51.6v-40c10.6.5 19.1 9.3 19.2 20a20.2 20.2 0 0 1-19.2 20z"></path><path d="M419.9 140.7c-54.2-11.6-108.4-23.3-162.6-34.7-3.8-.8-6.6-.5-10.6.3-32.1 6.7-64 13.6-96 20.5l-83.8 18.1c2.9.9 4.4 1.5 6.1 1.8 58.6 12.6 117.2 25.2 176 37.6 3.8.8 6.6.4 10.6-.4 34.4-7.2 68.7-14.6 103-22l31.7-6.8.9-.3-1.1 2.5a36.5 36.5 0 0 0-1.3 31.3l8.6 20.7-.9 1.6a18.7 18.7 0 0 0 7.9 25.1 18.7 18.7 0 0 0 25.1-7.9 18.7 18.7 0 0 0-18.3-27.1l-7.7-18.5a21.2 21.2 0 0 1 .8-17.9l7.3-14.1 24.1-5.2-19.8-4.6z"></path></svg>