<svg xmlns="http://www.w3.org/2000/svg" viewBox="0 0 510.2 510.2"><path d="M73.3 404.2h283.5a28.3 28.3 0 0 0 28.3-28.3V177.4a28.3 28.3 0 0 0-28.3-28.3H73.3A28.3 28.3 0 0 0 45 177.4v198.4a28.3 28.3 0 0 0 28.3 28.4zm0-28.4V205.7a10699 10699 0 0 0 124 103.3 28.2 28.2 0 0 0 35.4 0l124-103.6v170.5H73.3v-.1zm10.4-198.4H346L215 286.8c-27.3-21.9-99.4-82.6-131.3-109.4z"></path><path d="M154.10000000000002 164.6l.1-37.3a1209 1209 0 0 0 42.5 37.1h44.2l-78-65.4h262.3l-73.1 61 19.5 20.7 64.3-53.7v170.5h-64.1v31.2h65.1a28.3 28.3 0 0 0 28.3-28.3V101.9a28.3 28.3 0 0 0-28.3-28.3H153.4a28.3 28.3 0 0 0-28.3 28.3v62.6l29 .1z"></path></svg>