<svg xmlns="http://www.w3.org/2000/svg" viewBox="0 0 510.2 510.2"><path d="M252.6 79A177.4 177.4 0 0 0 75.4 256.2a177.4 177.4 0 0 0 240.2 165.6c-14-3-26.7-9.7-37-19.1a148 148 0 0 1-54-.3l-.3-.3-1.2-1.2-.6-.6-.9-1-.6-.7-.8-1-.7-.8-.8-1-.7-.9-.8-1-.7-.9-.8-1-.7-.9-.7-1.1-.6-1-.7-1.1-.6-1-.7-1.2-.6-1-.7-1.2a11 11 0 0 1-.6-1.1l-.7-1.3-.6-1.1-.7-1.3-.6-1.1-.7-1.4-.5-1-.8-1.6-.5-1-1.1-2.3-.2-.4-1.4-3.2-.4-.9-1-2.4-.4-1-.9-2.4-.4-1-1-2.6-.3-.7-1.1-3.2-.1-.2c-1.2-3.7-2.4-7.4-3.5-11.3H224a67.3 67.3 0 0 1-5.9-7.1H191c-1.8-7-3.3-14.3-4.6-21.8v-.2c-.8-4.5-1.4-9.1-2-13.7v-.1l-.5-4.4-.1-.5-.4-4.2v-.3l-.7-9.5v-.1l-.3-4.4v-.8l-.2-4v-.7l-.2-9.6h25c.8-2.4 1.8-4.8 2.9-7.1H182c.3-26.5 3.4-51.9 9.1-74.4H314a293 293 0 0 1 6.7 36.8c2.6 1.4 5.2 2.9 7.6 4.6a321.7 321.7 0 0 0-7-41.4h58a148.7 148.7 0 0 1 22.1 74.4h-44.9c1.1 2.3 2 4.7 2.9 7.1h42.1c-.3 11.8-1.9 23.2-4.8 34.1a80.3 80.3 0 0 1 16 38.4c11-23 17.2-48.8 17.2-76A177.6 177.6 0 0 0 252.6 79zM125.9 334.1a148.7 148.7 0 0 1-22.1-74.4H175l.2 9.7v.5l.2 4.1v.8l.2 3.9v.7a312.2 312.2 0 0 0 1.3 14.6l.4 3.8.1.9.5 3.6.1.8.6 4.2v.2l1.4 8.8.1.8.6 3.4.2 1 .7 3.3.2.9.8 3.8.1.3 1 4.2h-57.8zm4.6 7.1h55.1l1.1 4 .2.8 1 3.2.3.9 1.1 3.3.2.5 2.7 7.5.4 1 1 2.6.5 1.1 1 2.5.4 1 1.5 3.4 1.6 3.5.5.9 1.3 2.6.4.9 3.6 6.6.1.2 1.8 3 .2.3c2 3.1 4.1 6.1 6.2 8.8a151 151 0 0 1-82.2-58.6zm44.5-88.5h-71.2c.6-27.2 8.6-52.7 22.1-74.4h58c-5.6 22.6-8.7 48-8.9 74.4zm10.7-81.5h-55.2c19.6-28 48.5-49 82.2-58.4-5.7 7.3-11 16.2-15.8 26.7-4.3 9.6-8.1 20.3-11.2 31.7zm7.3 0c2.9-10.3 6.4-20 10.4-28.7a108.9 108.9 0 0 1 21.2-32.4 151.9 151.9 0 0 1 56 0c7.7 7.7 14.9 18.6 21.2 32.4 4 8.8 7.5 18.4 10.4 28.7H193zm126.5 0c-3.1-11.4-6.9-22-11.3-31.7a133.5 133.5 0 0 0-15.8-26.7 149.3 149.3 0 0 1 82.2 58.4h-55.1z"></path><path d="M349 278.7a66.4 66.4 0 0 0-132.1 7.7 66.6 66.6 0 0 0 49.9 64.3 66.4 66.4 0 1 0 82.2-72zm-104.1 7.7a38.4 38.4 0 1 1 76.7.1 38.4 38.4 0 0 1-76.7-.1zm87.8 94.9a38.3 38.3 0 0 1-37.3-29.7 66.5 66.5 0 0 0 50.8-44.5 38.4 38.4 0 0 1-13.5 74.2z"></path><path d="M282.7 307.5c-6.8 0-10.3-3.1-10.3-10.2h6.1c0 3.1.9 5.7 4.4 5.7 4.3 0 4.7-4.2 4.7-10.3 0-3.4-.3-8.2-4.5-8.2-2.5 0-4.1 1.7-4.5 4.1h-5.9l.8-23.2h19.2v4.6h-13.4l-.6 13.1c1.9-1.9 3.4-2.9 6.5-2.9 7.5 0 8.7 5.9 8.7 12.5.1 8.5-1.5 14.8-11.2 14.8z"></path></svg>