<svg xmlns="http://www.w3.org/2000/svg" viewBox="0 0 510.2 510.2"><path d="M372.4 183.4a14.1 14.1 0 0 0 8.4 2.8 14.3 14.3 0 0 0 11.4-5.7v-.2l31.3-41.7a14.2 14.2 0 0 0-22.7-17l-31.3 41.9a14.2 14.2 0 0 0 2.9 19.9z"></path><path d="M426.1 224.7l-45.5 1a14.2 14.2 0 0 0 .4 28.3h.3l45.4-.9a14.2 14.2 0 1 0-.5-28.3z"></path><path d="M423.5 340l-31.3-41.8a14.2 14.2 0 0 0-22.7 17l31.2 41.8v.1a14.3 14.3 0 0 0 11.5 5.7 14.2 14.2 0 0 0 11.3-22.6z"></path><path d="M125 386.1a14.2 14.2 0 0 0 13.4 9.9l46 .6h.2a14.2 14.2 0 0 0 13.5-18.5l-29.3-90.8 131.5 67 1.2.7.3.2a35 35 0 0 0 17.9 5 35.3 35.3 0 0 0 35.1-35.5V151a35.3 35.3 0 0 0-35.1-35.5 34.6 34.6 0 0 0-17.7 4.9l-.8.5-153 63.3h-42.7A21 21 0 0 0 84.6 205v48s.3 2.3.7 4.3l1 4.9zm-12-173.6h28v35.7h-28zm36 155.3l-28.8-91.2h15.3L165 368zM168.6 256V206l151.1-62.2a7 7 0 0 1 6.8 7v174a7 7 0 0 1-6.8 7 6.5 6.5 0 0 1-2.8-.6z"></path></svg>