<svg xmlns="http://www.w3.org/2000/svg" viewBox="0 0 510.2 510.2"><path d="M374.8 247a14.2 14.2 0 0 0-28.3 0 94 94 0 0 1-93.9 93.8 94 94 0 0 1-93.8-93.9 14.2 14.2 0 0 0-28.3 0c0 62.6 47.2 114.3 107.8 121.4v27.9h-34.8a14.2 14.2 0 1 0 0 28.3h98a14.2 14.2 0 0 0 0-28.3h-34.8v-27.9a122.3 122.3 0 0 0 108-121.4z"></path><path d="M252.6 313a72.2 72.2 0 0 0 72.2-72.1l.2-87.5a72.2 72.2 0 0 0-144.3 0l-.2 87.5a72.3 72.3 0 0 0 72.1 72.1zm.2-203.4a43.9 43.9 0 0 1 43.9 43.8l-.2 87.4a43.9 43.9 0 0 1-43.9 43.9 43.9 43.9 0 0 1-42-31.2h32a14.2 14.2 0 1 0 0-28.4h-33.8v-14.6h33.7a14.2 14.2 0 1 0 0-28.4H209v-14.6h33.6a14.2 14.2 0 1 0 0-28.4h-31a43.9 43.9 0 0 1 41.3-29.5z"></path></svg>