<svg xmlns="http://www.w3.org/2000/svg" viewBox="0 0 510.2 510.2"><path d="M116.3 253.6h80.3v5h-80.3z"></path><path d="M116.3 268.6h60.3v5h-60.3z"></path><path d="M297.1 175.7H116.3a30.1 30.1 0 0 0-30.1 30.1v100.4a30.1 30.1 0 0 0 30.1 30.1h180.8a30.1 30.1 0 0 0 30.1-30.1V205.9a30.2 30.2 0 0 0-30.1-30.2zm0 20.1a10 10 0 0 1 10 10v10h-113c-6 0-11.6-2.6-15.4-7.2l-10.8-12.9h129.2zm0 120.5H116.3a10 10 0 0 1-10-10V205.9a10 10 0 0 1 10-10h25.4l21.6 25.8a40.2 40.2 0 0 0 30.8 14.3h113v70.3a10 10 0 0 1-10 10z"></path><g><path d="M404 242.6l-5.5-5.5a63.4 63.4 0 0 0 18.7-45.2c0-17.1-6.6-33.1-18.7-45.2l5.5-5.5a71.2 71.2 0 0 1 21 50.7 70.6 70.6 0 0 1-21 50.7z"></path><path d="M389 229.1l-5.5-5.5a44.2 44.2 0 0 0 0-62.4l5.5-5.5a51.8 51.8 0 0 1 0 73.4z"></path><path d="M374 214.6l-5.5-5.5a24 24 0 0 0 0-34.2l5.5-5.5a31.8 31.8 0 0 1 0 45.2z"></path><path d="M359 202l-5.5-5.5a6.6 6.6 0 0 0 0-9.2l5.5-5.5a14.2 14.2 0 0 1 0 20.2z"></path></g></svg>