<svg xmlns="http://www.w3.org/2000/svg" viewBox="0 0 510.2 510.2"><path d="M231.9 351.3h3.7v52.5h-3.7z"></path><path d="M242.9 360h3.7v43.9h-3.7z"></path><path d="M281.1 351v52.6c0 4-3.3 7.3-7.3 7.3h-73.1c-4 0-7.3-3.3-7.3-7.3v-18.5l18.8-15.7a29.2 29.2 0 0 0 10.2-18.4h-14.9a15 15 0 0 1-4.6 7.2l-9.4 7.9v-15h-14.6v52.6c0 12.1 9.8 21.9 21.9 21.9h73.1c12.1 0 21.9-9.8 21.9-21.9V351h-14.7z"></path><path d="M312 339.2H165.4a21.2 21.2 0 0 1-21.2-21.2V107.3c0-11.7 9.5-21.2 21.2-21.2H312c11.7 0 21.2 9.5 21.2 21.2v210.6a21.2 21.2 0 0 1-21.2 21.3zM165.4 107.3v210.6H312V107.3H165.4z"></path><path d="M298.7 218.9H179.2v-99.1h119.6v99.1zm-111.3-8.3h103.1V128H187.4v82.6z"></path><path d="M263.2 252.2h-18.7a2.7 2.7 0 0 1-2.7-2.7v-13.6c0-1.5 1.2-2.7 2.7-2.7h18.7c1.5 0 2.7 1.2 2.7 2.7v13.6c0 1.5-1.2 2.7-2.7 2.7z"></path><path d="M263.2 278.5h-18.7a2.7 2.7 0 0 1-2.7-2.7v-13.6c0-1.5 1.2-2.7 2.7-2.7h18.7c1.5 0 2.7 1.2 2.7 2.7v13.6c0 1.5-1.2 2.7-2.7 2.7z"></path><path d="M263.2 304.9h-18.7a2.7 2.7 0 0 1-2.7-2.7v-13.6c0-1.5 1.2-2.7 2.7-2.7h18.7c1.5 0 2.7 1.2 2.7 2.7v13.6c0 1.5-1.2 2.7-2.7 2.7z"></path><path d="M231.4 252.2h-18.7a2.7 2.7 0 0 1-2.7-2.7v-13.6c0-1.5 1.2-2.7 2.7-2.7h18.7c1.5 0 2.7 1.2 2.7 2.7v13.6c0 1.5-1.2 2.7-2.7 2.7z"></path><path d="M231.4 278.5h-18.7a2.7 2.7 0 0 1-2.7-2.7v-13.6c0-1.5 1.2-2.7 2.7-2.7h18.7c1.5 0 2.7 1.2 2.7 2.7v13.6c0 1.5-1.2 2.7-2.7 2.7z"></path><path d="M231.4 304.9h-18.7a2.7 2.7 0 0 1-2.7-2.7v-13.6c0-1.5 1.2-2.7 2.7-2.7h18.7c1.5 0 2.7 1.2 2.7 2.7v13.6c0 1.5-1.2 2.7-2.7 2.7z"></path><path d="M200.1 252.2h-18.7a2.7 2.7 0 0 1-2.7-2.7v-13.6c0-1.5 1.2-2.7 2.7-2.7h18.7c1.5 0 2.7 1.2 2.7 2.7v13.6c0 1.5-1.3 2.7-2.7 2.7z"></path><path d="M200.1 278.5h-18.7a2.7 2.7 0 0 1-2.7-2.7v-13.6c0-1.5 1.2-2.7 2.7-2.7h18.7c1.5 0 2.7 1.2 2.7 2.7v13.6c0 1.5-1.3 2.7-2.7 2.7z"></path><path d="M200.1 304.9h-18.7a2.7 2.7 0 0 1-2.7-2.7v-13.6c0-1.5 1.2-2.7 2.7-2.7h18.7c1.5 0 2.7 1.2 2.7 2.7v13.6c0 1.5-1.3 2.7-2.7 2.7z"></path><path d="M295.4 304.2h-19.7a2.9 2.9 0 0 1-2.9-2.9V275c0-1.6 1.3-2.9 2.9-2.9h19.7c1.6 0 2.9 1.3 2.9 2.9v26.4a2.9 2.9 0 0 1-2.9 2.8z"></path><path d="M295.4 264.9h-19.7a2.9 2.9 0 0 1-2.9-2.9v-26.4c0-1.6 1.3-2.9 2.9-2.9h19.7c1.6 0 2.9 1.3 2.9 2.9V262c-.1 1.6-1.3 2.9-2.9 2.9z"></path><path d="M404.2 185.6l-5.5-5.5a63.4 63.4 0 0 0 18.7-45.2c0-17.1-6.6-33.1-18.7-45.2l5.5-5.5a71.6 71.6 0 0 1 0 101.4z"></path><path d="M389.2 172l-5.5-5.5a44.2 44.2 0 0 0 0-62.4l5.5-5.5a52 52 0 0 1 0 73.4z"></path><path d="M374.2 157.5l-5.5-5.5a24 24 0 0 0 0-34.2l5.5-5.5a31.8 31.8 0 0 1 0 45.2z"></path><path d="M359.2 145l-5.5-5.5a6.6 6.6 0 0 0 0-9.2l5.5-5.5a14.2 14.2 0 0 1 0 20.2z"></path></svg>