<svg xmlns="http://www.w3.org/2000/svg" viewBox="0 0 510.2 510.2"><circle cx="252.4" cy="368.2" r="14.2"></circle><path d="M323.3 84.8H181.5a28.3 28.3 0 0 0-28.3 28.3v283.5a28.3 28.3 0 0 0 28.3 28.3h141.7a28.3 28.3 0 0 0 28.3-28.3V113.1a28.2 28.2 0 0 0-28.2-28.3zm0 28.3v223.2H181.5V113.1h141.8zm0 283.5H181.6v-53.1h141.7v53.1z"></path><path d="M280.4 201.1a44.6 44.6 0 1 0-54.8 49.4 44.5 44.5 0 1 0 54.8-49.4zM269.7 274a29.7 29.7 0 1 1 0-59.4 29.7 29.7 0 0 1 0 59.4zm-63.2-66.8A29.7 29.7 0 0 1 265 200a44.7 44.7 0 0 0-39 35.1 29.9 29.9 0 0 1-19.5-27.9z"></path><path d="M269.3 259.3c-4.8 0-7.3-2.2-7.3-7.2h4.3c0 2.2.6 4 3.1 4 3.1 0 3.4-3 3.4-7.3 0-2.4-.2-5.8-3.2-5.8-1.8 0-2.9 1.2-3.2 2.9h-4.2l.5-16.5h13.6v3.3h-9.5l-.4 9.3c1.3-1.4 2.4-2.1 4.6-2.1 5.3 0 6.2 4.2 6.2 8.9.1 6-1 10.5-7.9 10.5z"></path></svg>