<svg xmlns="http://www.w3.org/2000/svg" viewBox="0 0 510.2 510.2"><path d="M349.1 298.6h28.3v127h-28.3z" transform="rotate(-45 363.3 362.07)"></path><path d="M220.3 332.8c62.4 0 113.3-50.8 113.3-113.3 0-62.4-50.8-113.3-113.3-113.3-62.4 0-113.3 50.8-113.3 113.3 0 62.4 50.8 113.3 113.3 113.3zm0-198.2c46.8 0 84.9 38.1 84.9 84.9 0 46.8-38.1 84.9-84.9 84.9-46.8 0-84.9-38.1-84.9-84.9 0-46.8 38.1-84.9 84.9-84.9z"></path><path d="M230.5 225.2v-10.3c0-5.7-4.6-10.3-10.3-10.3-5.7 0-10.3 4.6-10.3 10.3v10.3c0 5.7 4.6 10.3 10.3 10.3 5.6 0 10.3-4.6 10.3-10.3z"></path><path d="M222.2 257.8c39.4-1.4 66.2-31.8 67.3-33.1 1.4-1.6 1.7-3.7 1.1-5.6-.2-1.2-.7-2.3-1.6-3.2-22.6-22.6-46.8-33.7-71.9-32.8-39.4 1.4-66.2 31.8-67.3 33.1a5.75 5.75 0 0 0-1.1 5.6c.2 1.2.7 2.3 1.6 3.2 21.8 21.8 45 32.8 69.1 32.8h2.8zm-60.1-37.5c7.9-7.6 28.6-24.5 55.4-25.5 20.4-.7 40.5 8 59.7 25.9-8 7.6-28.7 24.6-55.5 25.5-20.4.7-40.4-8-59.6-25.9z"></path></svg>