<svg xmlns="http://www.w3.org/2000/svg" viewBox="0 0 510.2 510.2"><path d="M398.8 206.3a19.6 19.6 0 0 0-12.2 4.4L344.2 237v-13.3a27.9 27.9 0 0 0-24.7-27.6 70.5 70.5 0 1 0-120.8-69.5 49.8 49.8 0 0 0-70.5 69.3h-2.8a27.9 27.9 0 0 0-27.8 27.8v99a27.9 27.9 0 0 0 27.8 28h56.3l-41.2 62.1a14.2 14.2 0 1 0 23.6 15.7l51.7-77.9H231l51.7 77.9a14.2 14.2 0 0 0 11.8 6.3 14.2 14.2 0 0 0 11.8-22L265 350.7h51.3a27.9 27.9 0 0 0 27.8-27.8v-2.8l42.2 26.1a19.4 19.4 0 0 0 12.4 4.5c11.7 0 20.8-10.3 20.8-23.4v-97.6c0-13-9.1-23.3-20.9-23.3zm-134.4-96.2a42.2 42.2 0 1 1-42.2 42.2 42.2 42.2 0 0 1 42.2-42.2zm-96.7 34a21.5 21.5 0 1 1-21.5 21.6 21.5 21.5 0 0 1 21.5-21.5zm148.2 178.3H126v-98h189.9zm75.4-6.5l-38-23.5v-27.6l38-23.6z" /></svg>