<svg xmlns="http://www.w3.org/2000/svg" viewBox="0 0 510.2 510.2"><path d="M425.5 255.2A170 170 0 0 0 255.7 85.9h-.6A169.9 169.9 0 0 0 86 255.2v.6A169.9 169.9 0 0 0 255.7 425h.6a170 170 0 0 0 169.2-169.3v-.3-.2zM256.1 396.7h-.3a141.5 141.5 0 0 1-141.4-141.2c.1-77.8 63.4-141 141.1-141.2h.3c77.9 0 141.3 63.3 141.4 141.2-.1 77.7-63.4 141-141.1 141.2z"></path><path d="M310.2 182.6c-25.5 9.3-51 18.7-74.8 32A52.6 52.6 0 0 0 224 223l-.7.7-.5.6a43 43 0 0 0-6.2 8.2c-4.7 8-8.9 16.6-12.1 25.3-9.6 26.1-18.6 52.5-27.8 78.8l1.7 1.1 23.2-8.3c25.5-9.3 51-18.7 74.8-32 4.4-2.4 8.2-5.3 11.4-8.4l.7-.7.5-.6a43 43 0 0 0 6.2-8.2c4.7-8 8.9-16.6 12.1-25.3 9.6-26.1 18.6-52.5 27.8-78.8l-1.7-1.1c-7.7 2.7-15.5 5.4-23.2 8.3zm-29.9 97.2a34.1 34.1 0 1 1-48.7-47.8 34.1 34.1 0 0 1 48.7 47.8z"></path></svg>