<svg xmlns="http://www.w3.org/2000/svg" viewBox="0 0 510.2 510.2"><path d="M188.5 287.5c4.4-2.6 9.5-4 14.6-4h79.3a56.3 56.3 0 0 0 56-48.1l22.8-148.2-28-4.3-22.8 148.2a28.1 28.1 0 0 1-28 24h-79.3a56.6 56.6 0 0 0-29.2 8.1l-25.3 15.2 14.6 24.3 25.3-15.2z"></path><path d="M306.4 379.7l-30.1-13.4a17.7 17.7 0 0 1-10.5-16.2v-45.4h-21.3v45.4c0 3.7.5 7.4 1.5 10.8l-42.2 18.7a38.8 38.8 0 0 0-23.1 35.6v9.9H202v-9.9c0-7 4.1-13.3 10.5-16.2l45-20c3 2.7 6.4 4.9 10.2 6.6l30.1 13.4a17.7 17.7 0 0 1 10.5 16.2v9.9h21.3v-9.9a39.2 39.2 0 0 0-23.2-35.5z"></path></svg>