<svg xmlns="http://www.w3.org/2000/svg" viewBox="0 0 510.2 510.2"><path d="M388.1 257.8l-21 17.6 26.5 31.6H299.4a34.5 34.5 0 0 1-26.7-12.5l-19.5-23.3-21.7 18.2 19.5 23.3a63 63 0 0 0 48.5 22.6l94.2.1-26.6 31.6 18 15.1 3.7 3.1 53.5-64-53.5-64-.7.6z"></path><path d="M259.1 434.9c42 0 80.6-14.7 111-39.2l-15.9-13.3-6.4-5.3a147.3 147.3 0 0 1-49 24c5.7-7.3 11-16.2 15.8-26.7 2.7-6 5.2-12.3 7.4-19h-4.7v-.1h-2.8c-2 5.6-4.1 11-6.4 16.1a108.9 108.9 0 0 1-21.2 32.4 151.9 151.9 0 0 1-56 0 110.8 110.8 0 0 1-21.2-32.4c-4-8.8-7.5-18.4-10.4-28.7H255a83 83 0 0 1-9.7-7.1h-47.9a321.8 321.8 0 0 1-9.1-74.4h141c-.1 8.7-.5 17.3-1.2 25.8h7.1c.7-8.4 1.1-17 1.2-25.8h16.2l1.4-1.1 7.1-5.9h-24.6a329 329 0 0 0-8.9-74.4h58a147.3 147.3 0 0 1 21.8 68.8l27.1 32.4A177.4 177.4 0 0 0 258.8 80.5c-97.7 0-177.2 79.5-177.2 177.2s79.8 177.2 177.5 177.2zm-55.7-60.5a133.5 133.5 0 0 0 15.8 26.7 149.3 149.3 0 0 1-82.2-58.4h55.1c3.2 11.4 7 22.1 11.3 31.7zm126.2-120.3h-141c.3-26.5 3.4-51.9 9.1-74.4h122.9c5.6 22.6 8.7 48 9 74.4zm51.5-81.4H326c-3.1-11.4-6.9-22-11.3-31.7a133.5 133.5 0 0 0-15.8-26.7 149.3 149.3 0 0 1 82.2 58.4zm-122-63.8c9.6 0 18.9.9 28 2.6 7.7 7.7 14.9 18.6 21.2 32.4 4 8.8 7.5 18.4 10.4 28.7H199.5c2.9-10.3 6.4-20 10.4-28.7a108.9 108.9 0 0 1 21.2-32.4 151 151 0 0 1 28-2.6zm-39.9 5.4c-5.7 7.3-11 16.2-15.8 26.7-4.4 9.7-8.2 20.3-11.3 31.7H137c19.6-28 48.5-49 82.2-58.4zm-86.9 65.4h58a329.7 329.7 0 0 0-8.9 74.4h-71.2a149 149 0 0 1 22.1-74.4zm-22 81.5h71.2a329 329 0 0 0 8.9 74.4h-58a146.4 146.4 0 0 1-22.1-74.4z"></path></svg>