<svg xmlns="http://www.w3.org/2000/svg" viewBox="0 0 510.2 510.2"><path d="M253.2 256.6a14.2 14.2 0 0 1-5.2-1l-125.9-49.2a14.2 14.2 0 0 1-.4-26.2l126-55a14.2 14.2 0 0 1 10.8-.1l130 51.3a14.2 14.2 0 0 1 .1 26.3l-130 53a14.2 14.2 0 0 1-5.4 1zm-88.8-64.1l88.7 34.7 92.1-37.4-91.6-36.2z"></path><path d="M253.4 384.7a14 14 0 0 1-5.2-1L117 332.3l10.3-26.4 126 49.4 130.5-53 10.7 26.2-135.8 55.1a14.3 14.3 0 0 1-5.3 1z"></path><path d="M253.9 320.5a14.2 14.2 0 0 1-5.2-1l-131.3-51.4 10.4-26.4 126 49.4 130.5-53 10.6 26.2-135.7 55.2a14.3 14.3 0 0 1-5.3 1z"></path></svg>