<svg xmlns="http://www.w3.org/2000/svg" viewBox="0 0 510.2 510.2"><path d="M415 319l-37.8-37.3-.8-.7a156.7 156.7 0 0 0-46.6-30 51 51 0 0 0-41.4 2l-12.2-12 96-92.8a15 15 0 0 0 2-2.3l4.8 4.5a14.2 14.2 0 1 0 19.6-20.5L369.3 102a14.2 14.2 0 1 0-19.6 20.5l4.3 4.1a13 13 0 0 0-1.5 1.2L256.1 221l-94.6-94a13.8 13.8 0 0 0-1.7-1.3l3-3a14.2 14.2 0 1 0-20-20.1L114.2 131a14.2 14.2 0 0 0 19.9 20.1l5.9-5.8a15.3 15.3 0 0 0 1.5 1.9l94.3 93.5-13.5 13a51.3 51.3 0 0 0-43-2.4l-.7.2-.6.4a196.3 196.3 0 0 0-45 29.8l-.4.3-37.7 38.2a31.8 31.8 0 0 0 .3 44.9l38 37.6a31.6 31.6 0 0 0 22.3 9.2h.2a31.6 31.6 0 0 0 22.4-9.4l37.4-37.8.7-.8a156.5 156.5 0 0 0 29.9-46.7 50.9 50.9 0 0 0-3.4-43.8l13.2-12.7 11.8 11.6a51.3 51.3 0 0 0-3.8 45.4l.3.8.3.6a195.6 195.6 0 0 0 29.8 45l.4.4 38.1 37.8a31.8 31.8 0 0 0 45-.3l37.6-38a31.8 31.8 0 0 0-.3-44.9zm-195.5-12a129 129 0 0 1-24.7 38.1l-37 37.4a3.3 3.3 0 0 1-2.4 1 3.4 3.4 0 0 1-2.4-1L115 345a3.4 3.4 0 0 1 0-4.8l37-37.4c13-11.4 20.1-15.8 38.4-25.4a23 23 0 0 1 7.7-1.4h1l-40.3 39a14.2 14.2 0 0 0 19.7 20.4l42.2-40.8a22.9 22.9 0 0 1-1.1 12.5zm175.6 37l-37.6 38a3.4 3.4 0 0 1-4.8 0l-37.4-37a166.5 166.5 0 0 1-25.4-38.3 22.8 22.8 0 0 1-1.3-7.7 23.2 23.2 0 0 1 .5-5.3l41.3 41a14.2 14.2 0 0 0 20-20.1L311.5 276a23 23 0 0 1 8.1 1.5 129 129 0 0 1 38.1 24.7l37.4 37a3.4 3.4 0 0 1 0 4.9z"></path></svg>