<svg xmlns="http://www.w3.org/2000/svg" viewBox="0 0 510.2 510.2"><path d="M375.2 239.7l-66.9.1-110.9-.4h-.1l-61.4.7a38.3 38.3 0 0 1-29.6-13.5L84.7 245a66.5 66.5 0 0 0 51.4 23.4l61.2-.7 110.8.4 67-.1c11.4 0 22.1 5 29.5 13.8l21.7-18.2a66.2 66.2 0 0 0-51.1-23.9z"></path><circle cx="222.9" cy="194.1" r="6.5"></circle><circle cx="285.6" cy="194.1" r="6.5"></circle><path d="M255.4 169c35.6 0 66.6 20 82.4 49.4H369c-17.7-45.4-61.9-77.8-113.5-77.8s-95.8 32.3-113.5 77.8h31.1a93.3 93.3 0 0 1 82.3-49.4z"></path><path d="M352.1 318.4H156.8v-29.2h-28.3v43.3c0 7.8 6.3 14.2 14.2 14.2h223.6c7.8 0 14.2-6.3 14.2-14.2v-43.3h-28.3v29.2z"></path><circle cx="255.2" cy="212.8" r="6.5"></circle><circle cx="314.4" cy="221.9" r="6.5"></circle><circle cx="195.4" cy="221.9" r="6.5"></circle></svg>