<svg xmlns="http://www.w3.org/2000/svg" viewBox="0 0 510.2 510.2"><path d="M189 171.7l1.1 3.2v.1a66.1 66.1 0 0 0 15.4 23.6 75.5 75.5 0 0 0 24.7 16.1 7023 7023 0 0 0 37.2 15.1l24.9 10.1 15.3 6.2a39.6 39.6 0 0 1 25.7 32.2c.8 9.3-2.2 18.3-8.7 26.3h32.7a62.6 62.6 0 0 0 .2-46.5l-1.8-4.2-1-2a71 71 0 0 0-36.1-32.1l-40.3-16.4-37.1-15a41.6 41.6 0 0 1-24.3-23.6 41.9 41.9 0 0 1 2-33 45.3 45.3 0 0 1 37.8-25.8c18.9-2.3 39.5 2.7 54.3 7.8l2.9 1 9.6-26.7C305.4 81.9 278.8 74.9 253 78a73.6 73.6 0 0 0-59.8 41.4 71 71 0 0 0-6 45.8l1.8 6.5z"></path><path d="M199.7 292.9l40.9 16.1 37.1 14.7a41.2 41.2 0 0 1 24.7 23.4 39 39 0 0 1-2.2 31.6c-7.7 15.2-21.1 23.6-40.9 25.8-18.8 2.1-43.1-1.6-70.5-10.8l-9 26.9a220.1 220.1 0 0 0 68.5 12.7c36.6 0 63.2-14.1 77.2-41.9 8.5-16.8 9.9-36 3.9-53l-.5-1.4a64.7 64.7 0 0 0-14.6-22.6 76.4 76.4 0 0 0-26.1-17.1L251 282.6l-40.8-16.1c-14.8-5.9-24.7-18-25.8-31.5-.8-9.7 2.8-19 10.4-27.3a79 79 0 0 1-16.2-23.8 65.1 65.1 0 0 0-22.5 53.5 66.6 66.6 0 0 0 43.6 55.5z"></path></svg>