<svg xmlns="http://www.w3.org/2000/svg" viewBox="0 0 510.2 510.2"><path d="M105.3 153.9a34.8 34.8 0 0 0 15.4 3.6c3.9 0 7.8-.7 11.6-2 8.9-3.1 16.1-9.5 20.2-18 4.1-8.5 4.7-18.1 1.6-27-3.1-8.9-9.5-16.1-18-20.2a35.4 35.4 0 0 0-47.2 16.4 35.5 35.5 0 0 0 16.4 47.2z"></path><path d="M136.2 223.4A35.4 35.4 0 0 0 89 239.8a35.4 35.4 0 0 0 16.4 47.2 34.8 34.8 0 0 0 15.4 3.6c3.9 0 7.8-.7 11.6-2 8.9-3.1 16.1-9.5 20.2-18a35.4 35.4 0 0 0-16.4-47.2z"></path><path d="M105.3 423.2c5 2.4 10.2 3.5 15.4 3.5 13.1 0 25.8-7.3 31.9-19.9 4.1-8.5 4.7-18.1 1.6-27-3.1-8.9-9.5-16.1-18-20.2A35.4 35.4 0 0 0 89 376c-4.1 8.5-4.7 18.1-1.6 27a35.3 35.3 0 0 0 17.9 20.2z"></path><path d="M288.3 110.5c-3.1-8.9-9.5-16.1-18-20.2-8.5-4.1-18.1-4.7-27-1.6-8.9 3.1-16.1 9.5-20.2 18a35.4 35.4 0 0 0 16.4 47.2c5 2.4 10.2 3.5 15.4 3.5 13.1 0 25.8-7.3 31.9-19.9 4.1-8.5 4.6-18.1 1.5-27zm-20.7 17.7c-3.4 7-11.8 9.9-18.8 6.5A14.05 14.05 0 0 1 255 108a14.05 14.05 0 0 1 13.3 9.5c1.2 3.5 1 7.3-.7 10.7z"></path><path d="M422.2 110.5c-3.1-8.9-9.5-16.1-18-20.2a35.4 35.4 0 0 0-47.2 16.4 35.4 35.4 0 0 0 16.4 47.2 34.8 34.8 0 0 0 15.4 3.6c3.9 0 7.8-.7 11.6-2 8.9-3.1 16.1-9.5 20.2-18 4.2-8.5 4.7-18.1 1.6-27zm-20.7 17.7c-1.6 3.4-4.5 5.9-8.1 7.2-3.6 1.2-7.4 1-10.8-.6a14.05 14.05 0 0 1 6.2-26.7 14.05 14.05 0 0 1 13.3 9.5c1.3 3.4 1.1 7.2-.6 10.6z"></path><path d="M270.4 223.4c-8.5-4.1-18.1-4.7-27-1.6-8.9 3.1-16.1 9.5-20.2 18a35.4 35.4 0 0 0 16.4 47.2 34.8 34.8 0 0 0 15.4 3.6c3.9 0 7.8-.7 11.6-2 8.9-3.1 16.1-9.5 20.2-18a35.4 35.4 0 0 0-16.4-47.2zm-2.8 37.9c-3.4 7-11.8 9.9-18.8 6.5-7-3.4-9.9-11.8-6.5-18.8 1.6-3.4 4.5-5.9 8.1-7.2 1.5-.5 3.1-.8 4.6-.8 2.1 0 4.2.5 6.1 1.4 7 3.5 9.9 11.9 6.5 18.9z"></path><path d="M422.2 243.6c-3.1-8.9-9.5-16.1-18-20.2a35.4 35.4 0 0 0-47.2 16.4c-4.1 8.5-4.7 18.1-1.6 27 3.1 8.9 9.5 16.1 18 20.2a34.8 34.8 0 0 0 15.4 3.6c3.9 0 7.8-.7 11.6-2 8.9-3.1 16.1-9.5 20.2-18 4.2-8.5 4.7-18.1 1.6-27zm-20.7 17.7c-1.6 3.4-4.5 5.9-8.1 7.2-3.6 1.2-7.4 1-10.8-.6a14.05 14.05 0 0 1 6.2-26.7 14.05 14.05 0 0 1 13.3 9.5c1.3 3.4 1.1 7.3-.6 10.6z"></path><path d="M288.3 379.8c-3.1-8.9-9.5-16.1-18-20.2-8.5-4.1-18.1-4.7-27-1.6-8.9 3.1-16.1 9.5-20.2 18-4.1 8.5-4.7 18.1-1.6 27a35.3 35.3 0 0 0 33.4 23.7c13.1 0 25.8-7.3 31.9-19.9 4.1-8.5 4.6-18.1 1.5-27zm-20.7 17.7c-3.4 7-11.8 9.9-18.8 6.5-3.4-1.6-5.9-4.5-7.2-8.1a14.05 14.05 0 0 1 8.7-18c1.5-.5 3.1-.8 4.6-.8a14.05 14.05 0 0 1 13.3 9.5c1.3 3.7 1.1 7.5-.6 10.9z"></path><path d="M422.2 379.8c-3.1-8.9-9.5-16.1-18-20.2A35.4 35.4 0 0 0 357 376c-4.1 8.5-4.7 18.1-1.6 27 3.1 8.9 9.5 16.1 18 20.2a34.8 34.8 0 0 0 15.4 3.6c3.9 0 7.8-.7 11.6-2 8.9-3.1 16.1-9.5 20.2-18 4.2-8.5 4.7-18.1 1.6-27zm-20.7 17.7c-3.4 7-11.8 9.9-18.8 6.5-3.4-1.6-5.9-4.5-7.2-8.1-1.2-3.6-1-7.4.6-10.8a14.1 14.1 0 0 1 26 1.6c1.3 3.6 1.1 7.4-.6 10.8z"></path></svg>