<svg xmlns="http://www.w3.org/2000/svg" viewBox="0 0 510.2 510.2"><path d="M404.9 342.7L363.4 308l-26-21.7-18.1 21.8 25.9 21.7 41.5 34.7a28.3 28.3 0 0 1 10.1 21.7v39h28.3v-39a56.4 56.4 0 0 0-20.2-43.5z"></path><path d="M340.2 219.6V163a85 85 0 0 0-170 0V219.8c0 20.1 7.1 38.5 18.7 53.1l-42 35.2-41.5 34.7A56.2 56.2 0 0 0 85 386.2v39h28.3v-39c0-8.4 3.7-16.3 10.1-21.7l41.5-34.7 45.3-37.9a85.1 85.1 0 0 0 129.9-72.1v-.2zm-85.1 56.8a56.7 56.7 0 0 1-56.7-56.7V163a56.7 56.7 0 0 1 113.4 0v56.7a56.8 56.8 0 0 1-56.7 56.7z"></path><path d="M240.7 418.1l14.1 21.3 14.2-21.3V326h-28.3z"></path><path d="M254.8 439.4z"></path></svg>