<svg xmlns="http://www.w3.org/2000/svg" viewBox="0 0 510.2 510.2"><path d="M113.4 386.2c0-8.4 3.7-16.3 10.1-21.7l41.5-34.7 33.9-28.4c-7.9-5.4-14.9-12-21-19.4l-31.1 26-41.5 34.7A56.8 56.8 0 0 0 85 386.2v39h28.3v-39z"></path><path d="M354.3 177.2h28.3v49.6h-28.3z"></path><path d="M393.3 184.3h7.1v35.4h-7.1z"></path><path d="M170.4 226.8a85 85 0 0 0 84.4 77.9h.6a85.2 85.2 0 0 0 84.8-84.8V163a85.1 85.1 0 0 0-84.6-85h-.9a85 85 0 0 0-84.5 85v35.4h-17.7v-28.3h.5v-7.6c0-56.4 45.9-102.3 102.3-102.3v-7.1a109.6 109.6 0 0 0-109.4 109.4v7.6h-.5v56.7h25zm28-63.8a56.8 56.8 0 0 1 56.6-56.7h.1a56.8 56.8 0 0 1 56.6 56.7V219.7a56.8 56.8 0 0 1-56.6 56.7h-.1a56.8 56.8 0 0 1-56.2-49.6H255v-28.3h-56.7V163z"></path><path d="M363.4 308l-26-21.7-18.1 21.8 25.9 21.7 41.5 34.7a28.3 28.3 0 0 1 10.1 21.7v39h28.3v-39c0-16.8-7.4-32.6-20.3-43.4L363.4 308z"></path></svg>