<svg xmlns="http://www.w3.org/2000/svg" viewBox="0 0 510.2 510.2"><path d="M187.8 244.5c0-9.5 4.2-18.4 11.4-24.4l35.7-29.9a45.8 45.8 0 0 0 40.4 0L311 220a32 32 0 0 1 11.4 24.4v7.1h21.3v-7.1a53.2 53.2 0 0 0-19-40.8L292 176.4a45.6 45.6 0 0 0 9.2-27.6v-28.3a46.2 46.2 0 0 0-92.2 0v28.3c0 10.3 3.4 19.9 9.2 27.6l-32.7 27.4a53 53 0 0 0-19 40.7v7.1h21.3v-7.1zm42.5-124a24.8 24.8 0 1 1 49.6 0v28.3a24.8 24.8 0 1 1-49.6 0v-28.3z"></path><path d="M109.8 428.7c0-9.5 4.2-18.4 11.4-24.4l30.7-25.7a45.7 45.7 0 0 0 50.6 0l30.7 25.6a32 32 0 0 1 11.4 24.4v8.1h21.3v-8.1c0-9.5 4.2-18.4 11.4-24.4l30.7-25.7a45.7 45.7 0 0 0 50.6 0l30.7 25.6a32 32 0 0 1 11.4 24.4v8.1H422v-8.1c0-15.8-6.9-30.6-19-40.7l-30-24.7a46 46 0 0 0 6.2-23v-28.3a46.2 46.2 0 0 0-92.2 0v28.3a46 46 0 0 0 6.2 23L263.5 388a53.8 53.8 0 0 0-8.4 8.8 49.9 49.9 0 0 0-8.4-8.8L217 363.2a46 46 0 0 0 6.2-23v-28.3a46.2 46.2 0 0 0-92.2 0v28.3a46 46 0 0 0 6.2 23L107.6 388a53 53 0 0 0-19 40.7v8.1h21.3v-8.1zm198.5-116.9a24.8 24.8 0 1 1 49.6 0v28.3a24.8 24.8 0 1 1-49.6 0v-28.3zm-155.9 0a24.8 24.8 0 1 1 49.6 0v28.3a24.8 24.8 0 1 1-49.6 0v-28.3z"></path></svg>