<svg xmlns="http://www.w3.org/2000/svg" viewBox="0 0 510.2 510.2"><path d="M289 424.4h7.2a42.5 42.5 0 0 0 42.3-39.7V189.4a42 42 0 0 0-12.4-30l-.3-.2-51.6-46a14.1 14.1 0 0 1-4.8-10.5v-17h-28.2v17a42.4 42.4 0 0 0 14.1 31.6l51 45.4a14 14 0 0 1 4 9.7v193.5a14.2 14.2 0 0 1-14.2 13.3h-82a14.1 14.1 0 0 1-14.1-13.3V189.3a14 14 0 0 1 3.9-9.8l35.6-31.7-18.6-21.2-36.5 32.5-.3.3a42.1 42.1 0 0 0-12.3 29.9v195.3a42.5 42.5 0 0 0 42.2 39.8h75z"></path><path d="M230.8 227.3c0-2.6-.6-4.3-1.8-5.3-1-.8-3-1.3-5.5-1.3h-2.9v13.4h2.7a15.7 15.7 0 0 0 3.4-.3 5.5 5.5 0 0 0 2.4-1.1 4.4 4.4 0 0 0 1.3-2.1 11.2 11.2 0 0 0 .4-3.3m8-.1q0 7.9-4 10.7-3 2-10.5 2h-3.7v18.2h-8v-43.2h12.9q6.9 0 10 2.6c2.3 1.8 3.4 5 3.4 9.7"></path><path d="M244.5 258.1v-43.2h22.6v5.9h-14.7v11.8H266v5.9h-13.6v13.6h15.2v6h-23.1z"></path><path d="M288.8 220.8v37.3h-8v-37.3h-10v-5.9h28v5.9h-10z"></path></svg>