<svg xmlns="http://www.w3.org/2000/svg" viewBox="0 0 510.2 510.2"><circle cx="200.7" cy="242.2" r="15.4"></circle><path d="M409.5 221.9l11-18.7a56.5 56.5 0 0 0 4.9-47.6l-26.8 9.3a28.3 28.3 0 0 1-2.4 23.8l-5 8.5a132.6 132.6 0 0 0-16.5-14.4A177.2 177.2 0 0 0 270 150.4c-14.2 0-25 4.6-34.6 8.6-3 1.2-5.8 2.4-8.7 3.4l-48.4-8.8-14.7-2.6a21.3 21.3 0 0 0-24.2 26.7l9 31.7-15.5 24.3h-18.5A28.4 28.4 0 0 0 86 262.2v42.5a28.4 28.4 0 0 0 28.3 28.3h27.1l19.6 18.2-7 19.7a28.4 28.4 0 0 0 25.8 40.1h40.3a28.3 28.3 0 0 0 23.6-12.6l.8-1.2 5.6-13.7 68.5-5.7 6.1 17 .5 1a28.2 28.2 0 0 0 25.1 15.2h34.2a28.4 28.4 0 0 0 26.7-37.9L399.7 336a100 100 0 0 0 22.7-63.2 105.4 105.4 0 0 0-13-51zm-37.8 119.5l12.5 40.5.3.8h-34l-7.7-21.5-.4-1a21.2 21.2 0 0 0-18.8-11.4 21.4 21.4 0 0 0-4.7.5l-72 6a21.2 21.2 0 0 0-19.5 9.4l-.8 1.2-6.7 16.8h-40l.4-.8 8.5-24.2A21.4 21.4 0 0 0 183 333l-23.2-21.5a21.3 21.3 0 0 0-15.5-6.7h-30v-42.6H137a21.3 21.3 0 0 0 19.3-12.5l16.6-25.9a21.2 21.2 0 0 0 3.6-18.9l-6.8-23.9 50.6 9.2c6.6 1.2 9 1.6 12.6.2 4.9-1.6 9.2-3.4 13.4-5.2 8.5-3.5 15.2-6.3 23.7-6.3 32.8 0 64.9 9.7 87.9 26.7 16.5 12.2 36.2 33.7 36.2 67.1a73 73 0 0 1-18.7 48.3 21.3 21.3 0 0 0-3.7 20.4z"></path></svg>