<svg xmlns="http://www.w3.org/2000/svg" viewBox="0 0 510.2 510.2"><circle cx="199.7" cy="242.2" r="15.4"></circle><path d="M373.7 182.8l-3.6-2.6-18 22 4.8 3.3c16.5 12.2 36.2 33.7 36.2 67.2 0 17.4-5.9 32.7-18.7 48.2a21.4 21.4 0 0 0-3.7 20.5l12.5 40.5.3.8h-34l-7.6-21.5-.5-.9a21.3 21.3 0 0 0-23.5-11l-72.1 5.9c-7.6-.6-15 2.9-19.4 9.4l-.8 1.2-6.8 16.8h-40l.4-.8 8.5-24.2a21.3 21.3 0 0 0-5.8-24.7l-23.2-21.5c-4-4.3-9.6-6.7-15.5-6.7h-29.9v-42.5H136a21 21 0 0 0 19.3-12.5l16.5-25.9a21 21 0 0 0 3.6-18.9l-6.8-23.9a2184 2184 0 0 0 25.4 4.6l4.2-28-35.8-6.5a21.1 21.1 0 0 0-24.3 26.7l9.1 31.7-15.5 24.3h-18.5a28.3 28.3 0 0 0-28.3 28.3v42.5a28.3 28.3 0 0 0 28.3 28.3h27.1l19.5 18.1-6.9 19.7a28.2 28.2 0 0 0 25.8 40H219c9.5 0 18.3-4.7 23.6-12.6l.8-1.2 5.5-13.7 68.6-5.6 6.1 17.1.5.9a28.3 28.3 0 0 0 25.1 15.3h34.1a28.5 28.5 0 0 0 26.7-37.8L398.7 336a100.3 100.3 0 0 0 22.8-63.2c-.1-35.4-17-67.3-47.8-90z"></path><path d="M222.5 184.4l12.7-5.9 13-6.1a40.4 40.4 0 0 1-4.9-17l-.1-2.3a39.8 39.8 0 1 1 71.8 23.6l11.3 8.3 11.5 8.4a67.2 67.2 0 0 0 13.3-40.4c0-37.6-30.6-68.2-68.2-68.2a68.2 68.2 0 0 0-60.4 99.6z"></path><path d="M113.4 333.1h27.1l19.5 18.1-6.9 19.7a28.2 28.2 0 0 0 25.8 40h40.3c9.5 0 18.3-4.7 23.6-12.6l.8-1.2 5.5-13.7 68.6-5.6 6.1 17.1.5.9a28.3 28.3 0 0 0 25.1 15.3h34.1a28.5 28.5 0 0 0 26.7-37.8L398.7 336a100.3 100.3 0 0 0 22.8-63.2c0-35.3-16.9-67.3-47.7-90l-3.6-2.6-18 22 4.8 3.3c16.5 12.2 36.2 33.7 36.2 67.2 0 17.4-5.9 32.7-18.7 48.2a21.4 21.4 0 0 0-3.7 20.5l12.5 40.5.3.8h-34l-7.6-21.5-.5-.9a21.3 21.3 0 0 0-23.5-11l-72.1 5.9c-7.6-.6-15 2.9-19.4 9.4l-.8 1.2-6.8 16.8h-40l.4-.8 8.5-24.2a21.3 21.3 0 0 0-5.8-24.7l-23.2-21.5c-4-4.3-9.6-6.7-15.5-6.7h-29.9v-42.5H136a21 21 0 0 0 19.3-12.5l16.5-25.9a21 21 0 0 0 3.6-18.9l-6.8-23.9a2184 2184 0 0 0 25.4 4.6l4.2-28-35.8-6.5a21.1 21.1 0 0 0-24.3 26.7l9.1 31.7-15.5 24.3h-18.5a28.3 28.3 0 0 0-28.3 28.3v42.5a28.6 28.6 0 0 0 28.5 28.5z"></path><path d="M283.2 85a68.3 68.3 0 0 0-60.6 99.4l12.7-5.9 13-6.1a40.4 40.4 0 0 1-4.9-17l-.1-2.3a39.8 39.8 0 1 1 71.8 23.6l11.3 8.3 11.5 8.4a67.2 67.2 0 0 0 13.3-40.4 68 68 0 0 0-68-68z"></path><circle cx="199.7" cy="242.2" r="15.4"></circle></svg>