<svg xmlns="http://www.w3.org/2000/svg" viewBox="0 0 510.2 510.2"><path d="M351.1 277.4a100.4 100.4 0 0 1-75.3 76l-.3.1a101 101 0 0 1-102-35.6l-30.9 1.8a127.7 127.7 0 0 0 139 59.7l.4-.1a126.4 126.4 0 0 0 79.2-57.1c10.7-17.3 17-36.4 18.6-56l-28.7 11.2z"></path><path d="M365.3 195.4c-26.4-50-84.2-78-141.7-64.6l-.4.1A126.4 126.4 0 0 0 144 188a126.3 126.3 0 0 0-19 63l26.6-.5a100.4 100.4 0 0 1 77.7-93.7l.3-.1A100.4 100.4 0 0 1 340.8 206l24.5-10.6z"></path><path d="M428.3 183.1c-5.5-8.8-16.7-14.1-35.5-16.5a175 175 0 0 0-19.9-1.3l15.3 29c5.6.7 10.2 1.6 13.4 2.6-4 3.8-11.9 9.8-26.2 17.3-3.4 1.8-7.1 3.7-11.3 5.6-4.4 2.1-9.1 4.1-13.9 6.2a630.2 630.2 0 0 1-87 28.5 553.2 553.2 0 0 1-113.3 17.3l-3.7.1c-9.5.2-17.4 0-23.9-.4a85 85 0 0 1-26.5-4.9c1.5-1.7 6.4-7.7 10-10.5l3.3-31.7c-21.3 12.3-37.5 25.2-41 37.2-2 6.8-1.2 13.6 2.3 19.2 4.7 7.6 13.9 12.7 28.3 15.8a207 207 0 0 0 31.8 3.3l11.6.1c5.9-.1 12-.3 18.3-.7a659.8 659.8 0 0 0 190.9-43.8c8.7-3.5 16.9-7 24.4-10.6l3-1.4c29.3-14.2 46-27.4 51-40.2a22 22 0 0 0-1.4-20.2z"></path></svg>