<svg xmlns="http://www.w3.org/2000/svg" viewBox="0 0 510.2 510.2"><path d="M113.4 354.3h42.5v42.5a28.3 28.3 0 0 0 28.3 28.3H326a28.3 28.3 0 0 0 28.3-28.3v-42.5h42.5a28.3 28.3 0 0 0 28.3-28.3V184.3a28.3 28.3 0 0 0-28.3-28.3h-42.5v-42.5A28.3 28.3 0 0 0 326 85.2H184.3a28.3 28.3 0 0 0-28.3 28.3V156h-42.5a28.3 28.3 0 0 0-28.3 28.3V326a28.1 28.1 0 0 0 28.2 28.3zM326 396.9H184.3V269.3H326v127.6zM184.3 113.4H326v42.5H184.3v-42.5zm-70.9 70.9h283.5V326h-42.5v-56.7a28.3 28.3 0 0 0-28.3-28.3H184.3a28.3 28.3 0 0 0-28.3 28.3V326h-42.5V184.3z"></path><path d="M198.4 294.1h113.4v7.1H198.4z"></path><path d="M198.4 315.4h113.4v7.1H198.4z"></path><path d="M198.4 336.6h113.4v7.1H198.4z"></path></svg>