<svg xmlns="http://www.w3.org/2000/svg" viewBox="0 0 510.2 510.2"><path d="M255.1 83.6c-94.4 0-171.2 76.8-171.2 171.2S160.7 426 255.1 426s171.2-76.8 171.2-171.2S349.5 83.6 255.1 83.6zm0 314.1c-78.8 0-142.8-64.1-142.8-142.8 0-33.2 11.4-63.8 30.4-88l39 39c-32.4 17-52.3 39.5-53.6 41-2.4 2.8-2.5 7.6-2.3 9.2 0 1.5 1.1 6.2 3.2 8.4 39.5 39.5 81.5 59.4 125.1 59.4 1.7 0 3.4 0 5.1-.1 12.4-.4 24-2.5 34.9-5.5l49 49c-24.2 19-54.8 30.4-88 30.4zm16.6-142V246c0-10.9-8.9-19.8-19.8-19.8-2.9 0-5.6.6-8 1.7l-16.7-16.7c7.5-1.7 15.4-2.9 23.6-3.2 37.3-1.3 73.9 14.7 108.9 47.7-8.7 8.4-27.4 24.5-52.5 35.5l-35.5-35.5zm-39.7.4v9.6c0 10.9 8.9 19.8 19.8 19.8 2.8 0 5.5-.6 8-1.7l16.8 16.8c-5.9 1.1-12 1.8-18.3 2-37.3 1.3-73.8-14.8-108.8-47.7 8.2-7.9 25-22.5 47.9-33.4l34.6 34.6zm131.6 91.5l-40.5-40.5c35.1-17.2 56.6-41.7 58-43.3 2.4-2.8 2.5-6.9 2.5-8.9 0-1.8-1.2-6.5-3.4-8.7-41-41-84.8-61-130.2-59.3-14.3.5-27.7 3.1-40 7l-47.6-47.6c25-21.4 57.4-34.3 92.8-34.3C334 112 398 176.1 398 254.8c0 35.4-13 67.8-34.4 92.8z"></path></svg>