<svg xmlns="http://www.w3.org/2000/svg" viewBox="0 0 510.2 510.2"><path d="M324.1 296.9a55 55 0 1 1 0-109.9 55 55 0 0 1 0 109.9zm0-82.6a27.7 27.7 0 1 0 0 55.4 27.7 27.7 0 0 0 0-55.4z"></path><path d="M142.9 200h85v7.1h-85z"></path><path d="M142.9 227.3h85v7.1h-85z"></path><path d="M142.9 254.7h85v7.1h-85z"></path><path d="M396.6 142.8H113.1a28.3 28.3 0 0 0-28.3 28.3v141.7a28.3 28.3 0 0 0 28.3 28.3H124a38.9 38.9 0 0 0-3.8 16.6V368h21v-10.2c0-6.9 4.2-13.3 10.6-16.1l-.2-.4h206.1l-.2.4a17.7 17.7 0 0 1 10.6 16.1V368h21v-10.2c0-5.9-1.4-11.5-3.8-16.6h11.2a28.3 28.3 0 0 0 28.3-28.3V171.2a28.2 28.2 0 0 0-28.2-28.4zm0 170.1H113.1V171.2h283.5v141.7z"></path></svg>