<svg xmlns="http://www.w3.org/2000/svg" viewBox="0 0 510.2 510.2"><path d="M403.9 312.1h-28.3V184.5c0-3.9-3.2-7.1-7.1-7.1H141.7a7.1 7.1 0 0 0-7.1 7.1v127.6h-28.3V184.5a35.5 35.5 0 0 1 35.4-35.4h226.8a35.5 35.5 0 0 1 35.4 35.4v127.6z"></path><path d="M85 333.3v28.3h340.2v-28.3H85zM297.6 351h-85v-7h85v7z"></path><path d="M223.6 230.2c0 9.5-2.4 15.9-7.3 19.3-3.6 2.5-9.9 3.8-18.9 3.8h-6.7V286h-14.5v-78h23.2c8.3 0 14.4 1.6 18.2 4.7 4 3.4 6 9.2 6 17.5zm-14.5.1c0-4.5-1.1-7.7-3.3-9.5-1.9-1.5-5.2-2.3-9.9-2.3h-5.2v24.2h4.7c2.4 0 4.5-.2 6.3-.6 1.7-.4 3.1-1.1 4.3-2a7.8 7.8 0 0 0 2.4-3.8c.4-1.6.7-3.6.7-6z"></path><path d="M277.8 265.9c0 14.4-8.1 21.6-24.4 21.6-8.9 0-15.1-1.8-18.7-5.5-3.6-3.7-5.4-10-5.4-18.7v-.9H244v1c0 4.2.5 7.3 1.5 9.3 1.4 2.8 4 4.2 8 4.2 6.5 0 9.7-3.3 9.7-9.8 0-3.4-1.5-6.3-4.4-8.8-.7-.6-4.1-2.8-10.1-6.6l-8.1-5.4a38.4 38.4 0 0 1-4.7-3.9c-3.6-4-5.4-9-5.4-14.9 0-13.9 8.1-20.9 24.2-20.9 7.3 0 12.8 1.5 16.4 4.4 3.9 3.2 5.8 8.4 5.8 15.5v3h-14.3v-1.9c0-7-2.8-10.5-8.5-10.5-6 0-9 3.1-9 9.2 0 3.5 1.8 6.6 5.3 9.4l5.5 3.5 5.5 3.5c6.3 4 10.2 7 12 9.1 2.9 3.4 4.4 8.2 4.4 14.1z"></path><path d="M335.9 230.2c0 9.5-2.4 15.9-7.3 19.3-3.6 2.5-9.9 3.8-18.9 3.8H303V286h-14.5v-78h23.2c8.3 0 14.4 1.6 18.2 4.7 4 3.4 6 9.2 6 17.5zm-14.4.1c0-4.5-1.1-7.7-3.3-9.5-1.9-1.5-5.2-2.3-9.9-2.3H303v24.2h4.7c2.4 0 4.5-.2 6.3-.6 1.7-.4 3.1-1.1 4.3-2a7.8 7.8 0 0 0 2.4-3.8c.5-1.6.8-3.6.8-6z"></path></svg>