<svg xmlns="http://www.w3.org/2000/svg" viewBox="0 0 510.2 510.2"><path d="M275.7 88.1H170.1a42.6 42.6 0 0 0-42.5 42.5v255.1a42.6 42.6 0 0 0 42.5 42.5h212.6V210.3l-107-122.2zm7.8 51.9l53.8 61.5h-53.8V140zM170.1 399.9c-7.8 0-14.2-6.4-14.2-14.2V130.6c0-7.8 6.4-14.2 14.2-14.2h85v113.4h99.2v170.1H170.1z"></path><ellipse cx="203.6" cy="181.4" rx="15.8" ry="15.8" transform="rotate(-64.1 203.6 181.4)"></ellipse><ellipse cx="203.6" cy="267.7" rx="15.8" ry="15.8" transform="rotate(-64.1 203.6 267.7)"></ellipse><ellipse cx="203.6" cy="354.1" rx="15.8" ry="15.8" transform="rotate(-64.1 203.6 354)"></ellipse><ellipse cx="269.3" cy="311.6" rx="15.8" ry="15.8" transform="rotate(-64.1 269.3 311.6)"></ellipse></svg>