<svg xmlns="http://www.w3.org/2000/svg" viewBox="0 0 510.2 510.2"><path d="M326 85H184.2a28.4 28.4 0 0 0-28.3 28.4v283.4a28.4 28.4 0 0 0 28.4 28.4H326a28.4 28.4 0 0 0 28.4-28.3V113.4A28.4 28.4 0 0 0 326 85zm-141.8 28.4H326v223.2H184.2zM326 396.9H184.2v-53.2H326v53.1z"></path><path d="M302.1 212.4h9.4v-37a4.7 4.7 0 0 0-4.7-4.7h-37v9.3H302z"></path><path d="M208.8 180h32.4v-9.4h-37a4.7 4.7 0 0 0-4.7 4.7v37h9.4z"></path><path d="M302.2 273.4H270v9.4h37a4.7 4.7 0 0 0 4.7-4.7V241h-9.4z"></path><path d="M208.8 241h-9.3v37a4.7 4.7 0 0 0 4.7 4.8h37v-9.4h-32.4z"></path><circle cx="255.8" cy="370.5" r="14.2" transform="rotate(-7 255.7 370.4)"></circle><path d="M218 222.1h32.8v-32.8H218zm9.4-23.4h14v14h-14z"></path><path d="M231.3 202.6h6.2v6.2h-6.2z"></path><path d="M218 264.2h32.8v-32.8H218zm9.4-23.4h14v14h-14z"></path><path d="M231.3 244.7h6.2v6.2h-6.2z"></path><path d="M293.1 231.4h-32.8v32.8H293zm-9.4 23.4h-14v-14h14z"></path><path d="M273.6 244.7h6.2v6.2h-6.2z"></path><path d="M260.3 189.2V222H293v-32.8zm23.4 23.4h-14v-14h14z"></path></svg>