<svg xmlns="http://www.w3.org/2000/svg" viewBox="0 0 510.2 510.2"><path d="M395.9 211.2h28.3v-112c0-7.8-6.3-14.2-14.2-14.2H298v28.3h97.8v97.9z"></path><path d="M113.9 113.4h97.8V85.1h-112c-7.8 0-14.2 6.3-14.2 14.2v112h28.3v-97.9z"></path><path d="M396.2 297.6v97.8h-97.8v28.3h112c7.8 0 14.2-6.3 14.2-14.2v-112h-28.4z"></path><path d="M114 297.6H85.7v112c0 7.8 6.3 14.2 14.2 14.2h112v-28.3H114v-97.9z"></path><path d="M141.7 240.6h99.2v-99.2h-99.2v99.2zm28.4-70.8h42.5v42.5h-42.5v-42.5z"></path><path d="M182 181.7h18.7v18.7H182z"></path><path d="M141.7 367.8h99.2v-99.2h-99.2v99.2zm28.4-70.8h42.5v42.5h-42.5V297z"></path><path d="M182 308.9h18.7v18.7H182z"></path><path d="M368.6 268.6h-99.2v99.2h99.2v-99.2zm-28.3 70.9h-42.5V297h42.5v42.5z"></path><path d="M309.7 308.9h18.7v18.7h-18.7z"></path><path d="M368.6 141.1h-99.2v99.2h99.2v-99.2zm-28.3 70.8h-42.5v-42.5h42.5v42.5z"></path></svg>