<svg xmlns="http://www.w3.org/2000/svg" viewBox="0 0 510.2 510.2"><path d="M312 425c33.8-.1 59.4-20.4 65.2-51.7 5.2-27.8-7-55.1-29.5-68.7-.8-16.7-7.1-41.2-24.1-61l10.5-15.4a39.9 39.9 0 0 0 15 3.4c11.6.4 18.6-4.5 22.5-8.7a34.7 34.7 0 0 0 8-25.6v-1.5c0-13.6-6.3-33.6-8.8-39.2a103.9 103.9 0 0 0-23-31.5l-.3-.3a58.1 58.1 0 0 0-38.2-14c-18.2.5-34.6 13.5-44 35a201.5 201.5 0 0 0-10.2 31.5 198.7 198.7 0 0 0-10.3-31.6 200.5 200.5 0 0 0-23-40.2 78.4 78.4 0 0 0-33-27.9 40.2 40.2 0 0 0-14.3-2.6 36 36 0 0 0-14.3 3c-8 3.4-18 11.7-21.1 32a139.8 139.8 0 0 0 1.7 43.6c2.4 14.3 12 58.7 42.2 92.1a104.6 104.6 0 0 0-22.4 59 65.8 65.8 0 0 0-29.5 68.7c5.8 31.3 31.3 51.6 65.2 51.7zm-20.6-268c3.6-8.1 10.6-17.7 18.7-17.9 9.5-.2 17.1 5.6 18.4 6.6a75.9 75.9 0 0 1 16.5 22.4c1.9 4.2 6.3 20 6.3 27.6v3l.1.7a12.2 12.2 0 0 1-.4 3.8 8.7 8.7 0 0 1-1 0 12 12 0 0 1-5.5-1.5 114.3 114.3 0 0 0-7.3-3.8l-.9-.8c-13.5-12.9-17.1-26-17.2-26.1v.1l-27.5 6.8c.5 1.9 4.6 17.3 19.4 33.8-2.9 4-6.1 8.8-9.4 13.6a87 87 0 0 0-24.9-9.7 227.8 227.8 0 0 1 14.7-58.6zm-124.3-42.7c1-6.7 3-9.8 4.3-10.4a7.7 7.7 0 0 1 3.1-.6 12 12 0 0 1 4.2.9c4.3 1.6 11.3 6 20.6 18.3a171.3 171.3 0 0 1 19.6 34.5 231.9 231.9 0 0 1 14.5 58.3 87 87 0 0 0-29.3 11.5c-25.8-28.7-33.9-69.3-35.4-78-2.4-14.1-3-26-1.6-34.5zm29.3 282.4c-20.2 0-34.2-10.8-37.5-28.6-2.9-15.4 3.5-34.7 21.2-41.6a14.2 14.2 0 0 0 8.9-15 73.7 73.7 0 0 1 17.7-50 60 60 0 0 1 47.2-19.8h.5a60 60 0 0 1 47.2 19.8 73.8 73.8 0 0 1 17.7 50 14.2 14.2 0 0 0 9 15c17.6 6.9 24 26.2 21 41.6-3.2 17.8-17.2 28.5-37.4 28.6z"></path><path d="M217.9 319a10.5 10.5 0 0 0 10.5-10.4V298a10.5 10.5 0 0 0-21 0v10.5a10.5 10.5 0 0 0 10.5 10.5z"></path><path d="M291.8 319.4a10.5 10.5 0 0 0 10.5-10.5v-10.5a10.5 10.5 0 1 0-21 0v10.5a10.5 10.5 0 0 0 10.5 10.5z"></path><path d="M238.4 363.4c-6.6-6.6-10-13.4-10-16.8 0-3 .5-3.3 2.4-4.1 5.6-2.3 16.4-2.6 24-2.6s18.6.3 24 2.6c2 .8 2.5 1 2.5 4 0 3.5-3.4 10.3-10 16.9s-13.3 9.9-16.5 9.9-10.1-3.5-16.6-10z"></path></svg>