<svg xmlns="http://www.w3.org/2000/svg" viewBox="0 0 510.2 510.2"><path d="M386.6 147.5l37.2-43.8-21.6-18.4-35.6 41.8a169 169 0 0 0-111-41.4c-93.8 0-170.1 76.3-170.1 170.1s76.3 170.1 170.1 170.1 170.1-76.3 170.1-170.1c0-41.1-14.7-78.9-39.1-108.3zM270.5 396.8V346h-28.3v50.9a142 142 0 0 1-127.6-127.6h51.1V241h-51c7-66.8 60.5-119.9 127.4-126.2v51.1h28.3v-51a141.4 141.4 0 0 1 77.9 33.8L266 245.4a7 7 0 0 1-5.4 2.6c-1.2 0-3.6-.2-5.6-2.2l-59.1-59.1-20 20 59.1 59.1a36 36 0 0 0 25.3 10.5h1.4c10-.4 19.4-5 25.8-12.6l80.2-94.4a141 141 0 0 1 28.7 71.6h-51v28.3h51.1a141.5 141.5 0 0 1-126 127.6z"></path></svg>