<svg xmlns="http://www.w3.org/2000/svg" viewBox="0 0 510.2 510.2"><path d="M130.6 241.5H244v7.1H130.6z"></path><path d="M130.6 262.8h85v7.1h-85z"></path><path d="M385.7 131.7H130.6A42.6 42.6 0 0 0 88 174.2v141.7a42.6 42.6 0 0 0 42.5 42.5h122.1v-28.3H130.6a14.2 14.2 0 0 1-14.2-14.2V174.2a14.2 14.2 0 0 1 14.2-14.2h35.9l30.5 36.4a56.6 56.6 0 0 0 43.4 20.3h39v-28.4h-39a28.3 28.3 0 0 1-21.7-10L203.4 160h182.3a14.2 14.2 0 0 1 14.2 14.2V234h28.3v-60a42.6 42.6 0 0 0-42.5-42.4z"></path><path d="M395.5 256.5l-38.3 34.3 15.3 17.1 12.4-11c0 1 0 1.9-.2 2.8a48.6 48.6 0 1 1-48.4-53.5 48.8 48.8 0 0 1 5 .3 48.2 48.2 0 0 1 20 6.5l1 .6 17.4-15.7-1.5-1.1a71.6 71.6 0 1 0 29.4 65.2c.2-2.2.3-4.5.3-6.7l12 9.5 14.1-18z"></path></svg>