<svg id="Layer_1" enable-background="new 0 0 16 16" viewBox="0 0 16 16" xmlns="http://www.w3.org/2000/svg"><g id="XMLID_71_"><path id="XMLID_700_" d="m13.2 0v2.7h2.7c-.4-1.3-1.4-2.3-2.7-2.7z" /><path id="XMLID_723_" d="m6.4 3.7c0-1.3.5-2.6 1.2-3.5h-6.5c-.5 0-1 .4-1 1v13.8c0 .5.4 1 1 1h12.1c.5 0 1-.4 1-1v-5.9c-.6.2-1.3.4-2.1.4-3.1 0-5.7-2.6-5.7-5.8zm-1.3 9.3h-2v-4.7h2zm3.1 0h-2v-3.3h2zm3.1 0h-2v-1.9h2z" /><path id="XMLID_1313_" d="m11.2 4.7v-4.7c-1.9.5-3.2 2.4-2.7 4.6.3 1.4 1.4 2.5 2.8 2.8 2.2.5 4.1-.8 4.6-2.7z" /></g></svg>