<svg xmlns="http://www.w3.org/2000/svg" viewBox="0 0 510.2 510.2"><path d="M169.6 169.6c0-3.3 2.6-5.9 5.9-5.9h188.7c3.3 0 5.9 2.6 5.9 5.9v106.2h23.6V169.6a29.5 29.5 0 0 0-29.5-29.5H175.5a29.5 29.5 0 0 0-29.5 29.5v58.1h23.6v-58.1z"></path><path d="M411.4 293.5H209.2v23.6h202.3v-23.6zm-106.1 14.7h-70.8v-5.9h70.8v5.9z"></path><path d="M179.1 243.8h-60.7a12 12 0 0 0-12.1 12.1v121.5a12 12 0 0 0 12.1 12.1h60.7a12 12 0 0 0 12.1-12.1V256c0-6.7-5.4-12.2-12.1-12.2zm0 12.2v95.7h-60.7V256h60.7zm0 121.5h-60.7v-22.8h60.7v22.8z"></path><circle cx="148.7" cy="366.5" r="6.1"></circle></svg>