<svg xmlns="http://www.w3.org/2000/svg" viewBox="0 0 510.2 510.2"><path d="M209.3 308.7a13.5 13.5 0 0 0-27 0v13.5a13.5 13.5 0 0 0 27 0v-13.5z"></path><path d="M274.1 308.7a13.5 13.5 0 0 0-27 0v13.5a13.5 13.5 0 0 0 27 0v-13.5z"></path><path d="M190.8 376.3h73.1v8.3h-73.1z"></path><path d="M369.1 341.2a33.6 33.6 0 0 0-31.3-33.2V280.7a27.4 27.4 0 0 0-27.4-27.4h-43.2v-10.7c0-9.1-4-17.7-11-23.5l-10.9-9.1a15.4 15.4 0 1 0-8.2 10.3l10.6 8.9c4 3.3 6.3 8.2 6.3 13.4v10.7h-41.8V243c0-9.1-4-17.7-11-23.5l-10.9-9.1a15.4 15.4 0 1 0-8.2 10.3l10.6 8.9c4 3.3 6.3 8.2 6.3 13.4v10.3H144.3a27.4 27.4 0 0 0-27.4 27.4v27.6a33.4 33.4 0 0 0-31.3 33.2v.2c.1 17.6 13.9 32 31.3 33.2v25.6a27.4 27.4 0 0 0 27.4 27.4h166.1a27.4 27.4 0 0 0 27.4-27.4v-26a33.4 33.4 0 0 0 31.3-33.2v-.1zM117 358.1a16.6 16.6 0 0 1 0-33v33zm197.2-51v93.4c0 2.1-1.7 3.8-3.8 3.8h-166a3.8 3.8 0 0 1-3.8-3.8V280.7c0-2.1 1.7-3.8 3.8-3.8h166.1c2.1 0 3.8 1.7 3.8 3.8v26.4zm23.6 50.6v-32.9a16.6 16.6 0 0 1 0 32.9z"></path><path d="M327.7 220.9v-12.8c3.4 0 6.6-1.3 9-3.7L351 190a25.4 25.4 0 0 1 18.1-7.5h43.2v-83H284.6v83H336v12.8h-51.4c-7 0-12.8-5.7-12.8-12.8v-83c0-7 5.7-12.8 12.8-12.8h127.7c7 0 12.8 5.7 12.8 12.8v83c0 7-5.7 12.8-12.8 12.8h-43.2c-3.4 0-6.6 1.3-9 3.7l-14.3 14.3a25.4 25.4 0 0 1-18.1 7.6z"></path><path d="M310.3 124.8h76.6v3.2h-76.6z"></path><path d="M310.3 134.4h63.9v3.2h-63.9z"></path><path d="M310.3 143.9h70.3v3.2h-70.3z"></path><path d="M310.3 153.5h63.9v3.2h-63.9z"></path></svg>