<svg xmlns="http://www.w3.org/2000/svg" viewBox="0 0 510.2 510.2"><path d="M231.7 249.4a16.2 16.2 0 1 0-32.4 0v16.2a16.2 16.2 0 1 0 32.4 0v-16.2z"></path><path d="M309.4 249.4a16.2 16.2 0 1 0-32.4 0v16.2a16.2 16.2 0 1 0 32.4 0v-16.2z"></path><path d="M209.4 330.6h87.8v10h-87.8z"></path><path d="M423.4 288.4a40.3 40.3 0 0 0-37.6-39.8v-32.7a33 33 0 0 0-32.9-32.9H301v-12.9c0-10.9-4.8-21.2-13.2-28.2l-13.1-11a18.5 18.5 0 1 0-9.8 12.4l12.8 10.7a21 21 0 0 1 7.5 16.1V183H235v-12.4c0-10.9-4.8-21.2-13.2-28.2l-13.1-11a18.5 18.5 0 1 0-9.8 12.4l12.8 10.7a21 21 0 0 1 7.5 16.1V183h-65.7a33 33 0 0 0-32.9 32.9V249a40.2 40.2 0 0 0-37.5 39.8v.2a40.2 40.2 0 0 0 37.5 39.8v30.7a33 33 0 0 0 32.9 32.9H353a33 33 0 0 0 32.9-32.9v-31.2a40.2 40.2 0 0 0 37.5-39.8v-.1c0 .1 0 0 0 0zm-302.6 20.3a20.2 20.2 0 0 1-17.5-19.8 20.2 20.2 0 0 1 17.5-19.8v39.6zm236.7-61.2v112.2c0 2.5-2 4.5-4.5 4.5H153.7c-2.5 0-4.5-2-4.5-4.5V215.8c0-2.5 2-4.5 4.5-4.5H353c2.5 0 4.5 2 4.5 4.5v31.7zm28.4 60.8v-39.5a20.2 20.2 0 0 1 17.5 19.8c-.1 10-7.7 18.4-17.5 19.7z"></path></svg>