<svg xmlns="http://www.w3.org/2000/svg" viewBox="0 0 510.2 510.2"><path d="M370.6 120.9v-.4a37 37 0 0 0-39.5-35 37.3 37.3 0 0 0-35 39.1l-.4 33.9-80.5-.5-.4-33.5a37.4 37.4 0 0 0-74.5-4.1v.4l-1.2 61.9.7 27.8.2 39.3a42.4 42.4 0 0 0 13.8 31.1l31.7 39h-15.9c-11.1 0-20.1 9-20.1 20.1v64.6c0 11.1 9 20.1 20.1 20.1h162.6c11.1 0 20.1-9 20.1-20.1V340c0-11.1-9-20.1-20.1-20.1h-17.4l42.6-39.6a39.5 39.5 0 0 0 13.5-30.5l.2-39.3-.5-89.6zm-73.3 58.6l-.3 24.2v.3c.2 4-1.1 7.8-3.7 10.8a14.7 14.7 0 0 1-25.7-8.8l-.6-26.6 30.3.1zm-53.2-.3l-.3 23.6v.3c.2 4-1.1 7.8-3.7 10.8a14.7 14.7 0 0 1-25.7-8.8l-.6-26 30.3.1zm88.3 160.9v64.6l-.1.1H169.7l-.1-.1v-64.6l.1-.1 162.7.1c-.1-.1 0-.1 0 0zM286 320h-73.2l-41.2-48.2a42.7 42.7 0 0 1-10.6-21.6v-.1l-.2-39.6-.7-27.4 1.2-61.3a16.4 16.4 0 0 1 17.3-15.2c4.4.3 8.3 2.2 11.2 5.5 2.9 3.3 4.3 7.5 4.1 11.8v.4l.5 36.8 1.1 44.9v.3a33.6 33.6 0 0 0 60 19.2 33.3 33.3 0 0 0 26.8 13.5 31.6 31.6 0 0 0 12.8 29.4l24.9 18.3-34 33.3zm63.9-69.8c.1 5.5-2.2 10.8-6.3 14.4l-11.2 9.4-25.8-21-.3-.2a13.5 13.5 0 0 1-5.7-9.2c-.6-3.8.4-7.7 2.7-10.9 2.3-3.3 5.6-5.5 9.4-6.2 3.7-.8 7.5-.1 10.5 2l26.7 20v1.7zm.2-25.5l-15.4-11.6-.3-.2a30.9 30.9 0 0 0-18.4-5.5l.1-4.2.4-35.3.7-43.8v-.4a16.3 16.3 0 1 1 32.6-2.1l.5 88.8-.2 14.3z"></path><circle cx="204.1" cy="372.4" r="14.2"></circle></svg>