<svg xmlns="http://www.w3.org/2000/svg" viewBox="0 0 510.2 510.2"><ellipse cx="307.8" cy="200.8" rx="22.6" ry="22.6" transform="rotate(-44.2 307.8 200.8)"></ellipse><ellipse cx="254.4" cy="255.3" rx="22.6" ry="22.6" transform="rotate(-44.2 254.4 255.3)"></ellipse><path d="M408.8 119.8c-.7-5.4-3-10.2-6.6-13.8-4-4-9.3-6.2-15-6.3a214 214 0 0 0-86.2 8.1c-40.3 12.2-94.1 41.9-130.6 113.7l-17.9-3.3a50 50 0 0 0-44.7 12.7L84 254.3l19.8 20.3 23.8-23.3a22 22 0 0 1 19.8-5l38.5 7 .3-1.7 1.2.5c25.4-60.5 66-99.8 120.5-116.7a188.7 188.7 0 0 1 73.5-7.7 143 143 0 0 1-2.1 67.6c-6.1 23-17.7 44.4-34.3 63.7-21.2 24.6-50.8 45.9-87.9 63.2l.2.4-1.8.4 8.3 39.6c1.7 8.1.1 15.4-4.5 20.1l-23.1 23.9 20.4 19.7 23.1-23.9a49.7 49.7 0 0 0 11.9-45.6l-3.8-18.2a271 271 0 0 0 78.8-61.1 190.7 190.7 0 0 0 40.2-74.9 172 172 0 0 0 2-82.8z"></path><path d="M121.7 340.1h82.4v21h-82.4z" transform="rotate(-47.1 162.9 350.6)"></path><path d="M123.2 298.8H168v21h-44.8z" transform="rotate(-47.1 145.6 309.3)"></path><path d="M183.2 354.7H228v21h-44.8z" transform="rotate(-47.1 205.7 365.2)"></path></svg>