<svg xmlns="http://www.w3.org/2000/svg" viewBox="0 0 510.2 510.2"><path d="M255.4 85.6A170.3 170.3 0 0 0 85.3 255.7c0 93.8 76.3 170.1 170.1 170.1s170.1-76.3 170.1-170.1A170.4 170.4 0 0 0 255.4 85.6zm0 311.8c-78.2 0-141.7-63.6-141.7-141.7S177.3 114 255.4 114s141.7 63.6 141.7 141.7-63.6 141.7-141.7 141.7z"></path><path d="M212.7 247.3a21 21 0 0 0 21-21v-21a21 21 0 1 0-42 0v21a21 21 0 0 0 21 21z"></path><path d="M297.6 247.3a21 21 0 0 0 21-21v-21a21 21 0 1 0-42 0v21a21 21 0 0 0 21 21z"></path><path d="M206 321.8a12 12 0 0 1 9.3-4.4h79.1c3.6 0 7 1.6 9.3 4.4l15.5 18.5 21.7-18.2-15.5-18.5a40.4 40.4 0 0 0-31.1-14.5h-79c-12 0-23.3 5.3-31.1 14.5l-15.5 18.5 21.7 18.2 15.6-18.5z"></path></svg>