<svg xmlns="http://www.w3.org/2000/svg" viewBox="0 0 510.2 510.2"><path d="M201.5 276.2v-.2h-.1l-51.2-89.4L99.1 276H99v.2c.1 24.5 23 44.3 51.2 44.3 28.3 0 51.2-19.8 51.3-44.3zm-90.8-.2l39.6-69.1 39.6 69.1h-79.2z"></path><path d="M409.5 276.2v-.2h-.1l-51.2-89.4-51.1 89.4h-.1v.2c.1 24.5 23 44.3 51.2 44.3 28.3 0 51.2-19.8 51.3-44.3zm-90.8-.2l39.6-69.1 39.6 69.1h-79.2z"></path><path d="M306.6 137c8.4-.7 16.6 2.3 22.5 8.2l27.6 27.6 20-20-27.6-27.6a56.4 56.4 0 0 0-45-16.4l-36.9 3.3v-5.9a14.2 14.2 0 1 0-28.4 0v5.9l-36.9-3.3a56.4 56.4 0 0 0-45 16.4l-27.6 27.6 20 20 27.6-27.6a28.4 28.4 0 0 1 22.5-8.2l39.4 3.5v253h-86.3v34h201v-34h-86.4v-253l39.5-3.5z"></path></svg>