<svg xmlns="http://www.w3.org/2000/svg" viewBox="0 0 510.2 510.2"><path d="M127.6 326h255.1a42.6 42.6 0 0 0 42.5-42.5V141.7a42.6 42.6 0 0 0-42.5-42.5H127.6a42.6 42.6 0 0 0-42.5 42.5v141.7a42.5 42.5 0 0 0 42.5 42.6zm-14.2-184.3c0-7.8 6.4-14.2 14.2-14.2h255.1c7.8 0 14.2 6.4 14.2 14.2v141.7c0 7.8-6.4 14.2-14.2 14.2H127.6c-7.8 0-14.2-6.4-14.2-14.2V141.7z"></path><path d="M307.1 354.3H203.2a71 71 0 0 0-42.5 14.2l-41.6 31.2 17 22.7 41.6-31.2a42.7 42.7 0 0 1 25.5-8.5h103.9c9.1 0 18.2 3 25.5 8.5l41.6 31.2 17-22.7-41.6-31.2a71.6 71.6 0 0 0-42.5-14.2z"></path></svg>