<svg xmlns="http://www.w3.org/2000/svg" viewBox="0 0 510.2 510.2"><path d="M367.4 176.9l-7.6-5c-1.2-.8-1.9-3.3-1.2-4.6l4-8.2c3.9-8 3.9-16.6-.1-23.5-4-7-11.4-11.3-20.4-11.9l-9.1-.7c-1.4-.1-3.2-1.9-3.3-3.4l-.6-9.1a24.9 24.9 0 0 0-11.9-20.4c-7-4-15.6-4.1-23.5-.1l-8.1 4c-1.4.7-3.8 0-4.7-1.2l-5-7.6a24.7 24.7 0 0 0-20.5-11.7c-8.1 0-15.5 4.3-20.4 11.7l-5.1 7.6c-.8 1.2-3.3 1.9-4.6 1.2l-8.2-4.1c-8-3.9-16.6-3.9-23.6.2a24.5 24.5 0 0 0-11.8 20.3l-.6 9.1c-.1 1.5-1.9 3.3-3.4 3.4l-9.2.6c-8.9.6-16.3 4.9-20.3 11.9s-4.1 15.6-.1 23.5l4.1 8.2c.7 1.3 0 3.8-1.2 4.6l-8 5.3a24.6 24.6 0 0 0-11.6 20.5c0 8.1 4.2 15.5 11.7 20.5l7.6 5.1c1.2.8 1.9 3.3 1.2 4.6l-4 8.2c-4 8-3.9 16.6.1 23.6s11.4 11.3 20.4 11.9l5.4.3-.2 2.5v148.4a14.2 14.2 0 0 0 14.1 14.2c3.3 0 6.6-1.2 9.2-3.4l55.8-47.8 59.8 48.1a14.1 14.1 0 0 0 23-11.1V274.1l-.2-2.4 6.7-.4c8.9-.6 16.3-4.9 20.4-11.9 4-7 4.1-15.6.1-23.5l-4.1-8.2c-.6-1.3 0-3.8 1.2-4.6l7.6-5.1a24.7 24.7 0 0 0 11.7-20.5c.2-8.1-4.1-15.6-11.5-20.6zM261.4 356a14 14 0 0 0-18.1.3l-41.4 35.4v-84.1c4.9.6 10-.3 15-2.7l8.2-4c1.3-.7 3.8 0 4.6 1.2l5.1 7.6a24.7 24.7 0 0 0 20.5 11.7c8.1 0 15.5-4.3 20.5-11.7l5-7.6c.8-1.2 3.3-1.9 4.7-1.2l8.2 4.1c4.5 2.2 9.2 3.2 13.7 2.9v85.2l-46-37.1zM344 199.4a32.3 32.3 0 0 0-10.9 40.7l1.6 3.2-3.5.2a32.6 32.6 0 0 0-29.9 29.9l-.2 3.5-3.1-1.5a32.5 32.5 0 0 0-40.9 10.9l-1.9 2.9-2-3a32.4 32.4 0 0 0-40.8-10.9l-3.1 1.5-.2-3.5a32.6 32.6 0 0 0-29.9-29.9l-3.5-.2 1.6-3.2c7-14.1 2.2-32-10.9-40.8l-2.9-2 2.9-1.9a32.5 32.5 0 0 0 11-40.7l-1.6-3.2 3.5-.2a32.6 32.6 0 0 0 29.9-29.8l.2-3.5 3.2 1.6c14.1 7 32 2.1 40.7-10.9l2-3 1.9 2.9a32.4 32.4 0 0 0 40.8 10.9l3.1-1.6.2 3.5a32.4 32.4 0 0 0 29.8 29.9l3.5.2-1.6 3.2c-7 14.1-2.2 32 10.9 40.8l2.9 1.9-2.8 2.1z"></path><path d="M255.2 152.1a44.2 44.2 0 1 0 0 88.4 44.2 44.2 0 0 0 0-88.4zm0 60a15.8 15.8 0 0 1 0-31.6 15.8 15.8 0 0 1 0 31.6z"></path></svg>