<svg xmlns="http://www.w3.org/2000/svg" viewBox="0 0 510.2 510.2"><circle cx="361.4" cy="347.2" r="14.2"></circle><circle cx="361.4" cy="163" r="14.2"></circle><path d="M301.1 240.9h95.8a28.3 28.3 0 0 0 28.3-28.3v-99.2a28.3 28.3 0 0 0-28.3-28.3H113.4A28.4 28.4 0 0 0 85 113.4v99.2a28.3 28.3 0 0 0 28.3 28.3H218l9.4-8.9 20.6-19.5H113.4v-99.2h283.5v99.2h-95.8l-5.3.2a55.8 55.8 0 0 0-34.8 16.4l-11.7 11.7-20 20a28 28 0 0 1-20 8.3H113.5A28.7 28.7 0 0 0 85 297.6v99.2a28.3 28.3 0 0 0 28.3 28.3h283.5a28.3 28.3 0 0 0 28.3-28.3v-99.2a28.3 28.3 0 0 0-28.3-28.3H261l20-20a28.2 28.2 0 0 1 20.1-8.4zm-17.6 56.7H396.9v99.2H113.4v-99.2H283.5z"></path></svg>