<svg xmlns="http://www.w3.org/2000/svg" viewBox="0 0 510.2 510.2"><path d="M165 291.1a69.2 69.2 0 1 0-.2-138.4 69.2 69.2 0 0 0 .2 138.4zm58-70.5h-27.8c-.1-10.3-1.3-20.2-3.5-29h22.6a55.5 55.5 0 0 1 8.7 29zM165 280a65 65 0 0 1-10.9-1c-3-3-5.8-7.3-8.3-12.6a81.5 81.5 0 0 1-4.1-11.2h46.5c-1.1 4-2.5 7.8-4.1 11.2a40 40 0 0 1-8.3 12.6c-3.4.7-7.1 1-10.8 1zm24-27.6h-48c-2.2-8.8-3.4-18.7-3.5-29h55c-.1 10.3-1.3 20.2-3.5 29zm5.4-14.7l.2-1.5.3-3.1.2-3.1.1-3.2.1-3.4H223a57.3 57.3 0 0 1-8.6 29h-22.6c1.1-4.7 2-9.6 2.6-14.7zm-1.9-17.1h-55c.1-10.3 1.3-20.2 3.5-29h48c2.2 8.8 3.4 18.7 3.5 29zm-57.8 0h-27.8a57.3 57.3 0 0 1 8.6-29h22.6c-2.1 8.8-3.3 18.7-3.4 29zm0 2.8l.1 3.4.1 3.2.2 3.1.3 3.1.2 1.5c.6 5.1 1.5 10.1 2.6 14.7h-22.6a57.6 57.6 0 0 1-8.6-29h27.7zm-17.4 31.8h21.5a86 86 0 0 0 4.4 12.4c1.9 4.1 3.9 7.6 6.2 10.4a59.1 59.1 0 0 1-32.1-22.8zm63.2 22.7a53 53 0 0 0 6.2-10.4c1.7-3.8 3.2-7.9 4.4-12.4h21.5a57.4 57.4 0 0 1-32.1 22.8zm32.1-89.1h-21.5a86 86 0 0 0-4.4-12.4 48.5 48.5 0 0 0-6.2-10.4 58.4 58.4 0 0 1 32.1 22.8zm-36.7-23.9c3 3 5.8 7.2 8.3 12.6 1.6 3.4 2.9 7.2 4.1 11.2h-46.5c1.1-4 2.5-7.8 4.1-11.2a40 40 0 0 1 8.3-12.6 56 56 0 0 1 21.7 0zm-26.5 1.1a53 53 0 0 0-6.2 10.4 81.9 81.9 0 0 0-4.4 12.4h-21.5a59.1 59.1 0 0 1 32.1-22.8z"></path><path d="M384.8 170.5h-49.6v-56.7a28.3 28.3 0 0 0-28.3-28.3H179.3a28.3 28.3 0 0 0-28.3 28.3v22.3a83.3 83.3 0 0 1 28.3 0v-22.3h127.6v283.5H236v-63.8h-28.3v63.8h-28.3v-89a82.1 82.1 0 0 1-28.3 0v117.3H413.4V198.9a28.7 28.7 0 0 0-28.6-28.4zm0 226.8h-49.6V198.9h49.6v198.4z"></path></svg>