<svg xmlns="http://www.w3.org/2000/svg" viewBox="0 0 510.2 510.2"><path d="M422.5 402.1L363 307.3a130.9 130.9 0 0 0 24.2-76.2 14.2 14.2 0 1 0-28.4 0c0 17.9-4.6 34.8-12.6 49.5l-40.6-64.8-.4-.6a56.6 56.6 0 0 0-36.3-81.6V86.4h-28.3v47.5a56.9 56.9 0 0 0-35.6 81.2l-.6.8-40.6 64.8c-8-14.7-12.6-31.6-12.6-49.5a14.2 14.2 0 1 0-28.4 0c0 28.4 9 54.6 24.2 76.2l-59.5 94.8a14 14 0 0 0 4.5 19.5c2.3 1.5 4.9 2.2 7.5 2.2 4.7 0 9.3-2.4 12-6.6l55.1-87.8a132.1 132.1 0 0 0 74.1 33.2v9.6a14.2 14.2 0 1 0 28.4 0v-9.6c28.3-3 54-15.1 74.1-33.2l55.1 87.8a14.1 14.1 0 0 0 19.5 4.4 14 14 0 0 0 4.7-19.6zM255.2 160.3a28.3 28.3 0 1 1 0 56.7 28.3 28.3 0 0 1 0-56.7zm14.1 173.6V323a14.2 14.2 0 1 0-28.4 0v10.9a103.6 103.6 0 0 1-58.8-29.1l42.8-68.3a56.8 56.8 0 0 0 60.3.1l42.8 68.2c-15.5 15.5-36 26-58.7 29.1z"></path></svg>