<svg xmlns="http://www.w3.org/2000/svg" viewBox="0 0 510.2 510.2"><path d="M395.4 323.6a57 57 0 0 0-78.9-18.7c-5 3.1-9.5 6.9-13.3 11.3l-97.9-48.9a54.3 54.3 0 0 0 0-24.4l97.9-49a57.2 57.2 0 1 0-12.7-25.3l-97.9 49a57.2 57.2 0 1 0 0 75l97.9 49a57 57 0 0 0 42.8 67.9 57.5 57.5 0 0 0 62.1-85.9zm-48.8-196a29 29 0 1 1-28.9 29v-1.4a29 29 0 0 1 28.9-27.6zM165.7 279.1a29 29 0 1 1 12.7-25.4v2.8a29.2 29.2 0 0 1-12.7 22.6zm174.2 102.8a29 29 0 0 1-9.6-52.2l1.1-.7a28.1 28.1 0 0 1 21.8-3.5 29 29 0 0 1-13.3 56.4z"></path></svg>