<svg xmlns="http://www.w3.org/2000/svg" viewBox="0 0 510.2 510.2"><path d="M262.3 422.7c53.9-22.4 96.1-71.2 121.9-141a395.5 395.5 0 0 0 22.8-98.8V181v-.5c0-3.5-1.4-6.7-3.5-9-2-2.3-4.7-3.9-7.7-4.3l-.1.1-2-.2c-66 0-126.3-76.1-127-77.1-2.4-3.1-6-4.9-9.6-5.1-4.7 0-9.7.9-12.8 4.9-.6.8-61 77.1-127 77.1-7.4 0-13.4 6-13.4 13.4v2.5c.4 5 4.6 49.6 22.8 98.8 25.4 68.6 69.4 118.1 122 141.1l6.7 2.4 6.9-2.4zm-6.8-28.7a169.3 169.3 0 0 1-71.2-58.4l163.5-35.2c-22.6 45.7-53.5 77.1-92.3 93.6zm-87.4-84.3c-4.9-9-9.4-18.5-13.5-28.7l216.7-46.5a347 347 0 0 1-9.9 33.5l-193.3 41.7zm-23.5-57.1a444.4 444.4 0 0 1-12.9-59.7c56.2-7 103.8-52.8 123.8-74.8 19.9 21.9 67.6 67.9 123.9 75l-1.5 9.8-233.3 49.7z"></path></svg>