<svg xmlns="http://www.w3.org/2000/svg" viewBox="0 0 510.2 510.2"><circle cx="236.7" cy="408.1" r="23.4"></circle><circle cx="349.7" cy="408.1" r="23.4"></circle><path d="M424.8 223.1a14.2 14.2 0 0 0-11.3-5.7h-65.7v28.3h46.9l-9.1 31.6H219v28.3h158l-10.7 34.8-138.2.7c-17.2 0-23.2-4.4-28-16.5L167.4 227l-5-15.9c-9.9-39.4-28.6-42.1-41.7-43.1h-.5l-36.8.3v27.8l29.8.3c14 0 17 6.1 22.2 23.3l38 114.3.2.7c7.1 18.2 18.3 34.9 51.2 34.9 0 0 114.8-.1 143.1-.7a82 82 0 0 0 9.1-.5c3.1-.1 6.2-1.1 8.7-3 3.5-2.7 6.5-9.8 8.3-15.4 5.9-18.5 33.2-114.5 33.2-114.5 1.1-4.2.2-8.9-2.4-12.4z"></path><path d="M331.5 180.3l-41.2 34.5v-80.5a60 60 0 0 0-21.4-46l-24.1-20.1-12 14.4 24 20.1a41.1 41.1 0 0 1 14.7 31.6v80.5l-41.2-34.5-12 14.4 62.7 52.4 62.7-52.4-12.2-14.4z"></path></svg>