<svg xmlns="http://www.w3.org/2000/svg" viewBox="0 0 510.2 510.2"><circle cx="238.1" cy="363.7" r="23.4"></circle><circle cx="351.1" cy="363.7" r="23.4"></circle><path d="M426.2 178.7a14.2 14.2 0 0 0-11.3-5.7h-65.7v28.3H396l-9.1 31.6H220.4v28.3h158.1L367.8 296l-138.2.7c-17.2 0-23.2-4.4-28-16.5l-32.7-97.6-5-15.9c-9.9-39.4-28.6-42.1-41.7-43.1h-.5l-36.8.4v27.8l29.8.3c14 0 17 6.1 22.2 23.3l38 114.3.2.7c7.1 18.2 18.3 34.9 51.2 34.9 0 0 114.8-.1 143.1-.7a82 82 0 0 0 9.1-.5c3.1-.1 6.2-1.1 8.7-3 3.5-2.7 6.5-9.8 8.3-15.4 5.9-18.5 33.2-114.5 33.2-114.5 1-4.3.1-8.9-2.5-12.5z"></path><path d="M233.4 178c0 8.3-1.9 14.4-5.7 18.2-3.8 3.8-9.7 5.7-17.7 5.7-10.6 0-17.6-3.5-21-10.6a76.1 76.1 0 0 1-3.6-28.6c0-13.4 1.2-22.7 3.6-27.8 3.4-7.3 10.6-11 21.5-11 7.8 0 13.4 1.8 16.9 5.4 3.5 3.6 5.3 9.3 5.3 17v1.7h-13.6v-1.4c0-8.4-3-12.6-8.9-12.6-4.5 0-7.6 2.5-9.1 7.4a79.7 79.7 0 0 0-1.7 20.2c0 11.7.6 19.4 1.7 23.2 1.3 4.6 4.2 7 8.7 7 3.9 0 6.7-1.5 8.3-4.6a24 24 0 0 0 1.5-9.7v-1.8h13.8v2.3z"></path><path d="M277.2 200.4v-34h-19.7v34h-13.9v-75.1h13.9v31h19.7v-31h13.9v75.1h-13.9z"></path><path d="M319.7 135.7v20.9H342v10.2h-22.2v33.7H306v-75.1h37.2v10.4h-23.5z"></path></svg>