<svg xmlns="http://www.w3.org/2000/svg" viewBox="0 0 510.2 510.2"><path d="M142 233.7V371c0 14 10.8 25.3 24 25.3h178.2c13.3 0 24-11.4 24-25.3V233.5a47 47 0 0 0 31.8-44.4l-.1-7.2.1-39.9v-28.3H109.6v10.2l-.2 65.3a47 47 0 0 0 32.6 44.5zm192.6-91.8h37.2l-.1 47v1.7a18.6 18.6 0 0 1-37.1-1.6v-47.1zm-65.6 0h37.3l-.1 47v.4a18.6 18.6 0 0 1-37.2-.4h-.1l.1-47zm-65.7 47.5l.2-47.5h37.1l-.1 47.1h-.1a18.6 18.6 0 0 1-37.1.4zm18.6 46.6c12.8 0 24.4-5.1 32.9-13.5a47 47 0 0 0 65.6.1 46.8 46.8 0 0 0 19.6 11.5v134H226.7v-61.3h-28.3V368h-28V233.8a47.4 47.4 0 0 0 18.8-11.2 46.3 46.3 0 0 0 32.7 13.4zm-84-94.1h37.4L175 189a18.6 18.6 0 1 1-37.2 0l.1-47.1z"></path></svg>