<svg xmlns="http://www.w3.org/2000/svg" viewBox="0 0 510.2 510.2"><path d="M170.3 342.2l.5.4c2.1 1.6 4.3 6.2 4.3 8.8V383a31 31 0 0 0 31 31h95a31 31 0 0 0 31-31v-31.6c0-2.6 2.3-7.2 4.3-8.8l.5-.4L374 306a52.1 52.1 0 0 0 15.7-37.2V220h-.1A136.3 136.3 0 0 0 253.9 89.2h-.6a136.1 136.1 0 0 0-135.6 130.6h-.1v48.8c0 13.9 5.7 27.5 15.7 37.2l37 36.4zm-32.7-116.9c0-64 52.1-116.1 116.1-116.1 64 0 116.1 52.1 116.1 116.1v43.4a32 32 0 0 1-9.7 22.9L323.8 327a33.5 33.5 0 0 0-11.6 24.2v31.6a11 11 0 0 1-11 11h-21.5v-53h-10v53h-32v-53h-10v53h-21.5a11 11 0 0 1-11-11v-31.6c0-8.7-4.9-18.7-11.6-24.2l-36.3-35.4c-6.1-6-9.7-14.3-9.7-22.9v-43.4z"></path><path d="M190.6 256.8a21 21 0 1 0 42 0v-21a21 21 0 1 0-42 0v21z"></path><path d="M295.7 277.8a21 21 0 0 0 21-21v-21a21 21 0 1 0-42 0v21a21 21 0 0 0 21 21z"></path></svg>