<svg xmlns="http://www.w3.org/2000/svg" viewBox="0 0 510.2 510.2"><path d="M413.6 231.6a77.8 77.8 0 0 0-31.7-26.5 60.9 60.9 0 0 0-27.9-58.5 63.2 63.2 0 0 0-66.5-4.9c-27.6-27-59.8-34.8-91.8-21.9-33 13.4-51 42.4-50.7 80.8a75 75 0 0 0-42.6 27.2 72.5 72.5 0 0 0 11.4 100.5 77.9 77.9 0 0 0 49 17.5h15.1v-28.3h-15.1a46.6 46.6 0 0 1-46.6-37.8 44.6 44.6 0 0 1 8.6-34.6 48 48 0 0 1 33.5-18.1l17.4-1.8-1.6-14.2c-2.6-22.6.9-52.2 32.3-64.9 6.6-2.7 13.1-4 19.5-4 16.7 0 32.8 8.9 48.1 26.7l8.1 9.4 10.4-6.8c16.5-10.8 30.9-11.2 45.4-1.3 14 9.5 18.5 22.6 14.3 41.1l-2.8 12.2 11.8 4.3 1 .4 3.1 1.1c20.5 6.6 34.3 26.5 32.2 46.2a45.7 45.7 0 0 1-41.2 41.8c-2.3.3-4.7.4-6.9.4h-15.6v28.3h15.6a74 74 0 0 0 76.3-67.4 69.6 69.6 0 0 0-12.1-46.9z"></path><circle cx="225.1" cy="373" r="21.3"></circle><circle cx="225.1" cy="297.5" r="21.3"></circle><circle cx="283.7" cy="331.1" r="21.3"></circle></svg>