<svg xmlns="http://www.w3.org/2000/svg" viewBox="0 0 510.2 510.2"><path d="M432.8 237.8h-18.9l11.5-16.6a14 14 0 0 0-3.6-19.7 14 14 0 0 0-19.7 3.6l-22.7 32.7h-14.5v-4.7a14.2 14.2 0 1 0-28.4 0v4.7h-30a50.3 50.3 0 0 0-5.1-11.9l48.8-48.8 39.2 7.1c.9.2 1.7.2 2.5.2a14.2 14.2 0 0 0 2.5-28.2l-19.9-3.6 20.4-20.4a14.2 14.2 0 0 0 0-20 14.2 14.2 0 0 0-20 0l-20.4 20.4-3.6-19.9a14.2 14.2 0 0 0-27.9 5.1l7.1 39.2-49.1 49.1c-3.6-2-7.5-3.6-11.6-4.7v-23.7h5.9a14.2 14.2 0 1 0 0-28.4h-5.9v-12.7l32.7-22.7c6.4-4.5 8-13.3 3.6-19.7-4.5-6.4-13.3-8-19.7-3.6l-16.6 11.5V83.2a14.2 14.2 0 1 0-28.4 0v18.9l-16.6-11.5a14 14 0 0 0-19.7 3.6 14 14 0 0 0 3.6 19.7l32.7 22.7v12.7h-5.5a14.2 14.2 0 1 0 0 28.4h5.5v23.9a49 49 0 0 0-11.3 4.7l-49.2-49.2 7.1-39.2a14.2 14.2 0 0 0-27.9-5.1l-3.6 19.9-20.4-20.4a14.2 14.2 0 0 0-20 0 14.2 14.2 0 0 0 0 20l20.4 20.4-19.9 3.6a14.2 14.2 0 0 0 5 28l39.2-7.1 49.2 49.2a54 54 0 0 0-5.2 12.6h-27.3v-4.7a14.2 14.2 0 1 0-28.4 0v4.7h-17L109 206.3c-4.5-6.4-13.3-8-19.7-3.6-6.4 4.5-8 13.3-3.6 19.7L97.2 239H78.4a14.2 14.2 0 1 0 0 28.4h18.9L85.8 284a14 14 0 0 0 3.6 19.7 14.3 14.3 0 0 0 19.8-3.6l22.7-32.7h17v6.7a14.2 14.2 0 1 0 28.4 0v-6.7h27.6a54 54 0 0 0 4.8 11.3L161 327.4l-39.2-7.1a14.2 14.2 0 0 0-5.1 27.9l19.9 3.6L116 372a14.2 14.2 0 0 0 10 24.2 14 14 0 0 0 10-4.2l20.4-20.4 3.6 19.9a14.1 14.1 0 1 0 27.8-5l-7.1-39.2 48.7-48.7c3.8 2.2 8 3.9 12.3 5.1V329h-6.3a14.2 14.2 0 1 0 0 28.4h6.3v18.9L209.2 399c-6.4 4.5-8 13.3-3.6 19.7a14.2 14.2 0 0 0 19.8 3.6l16.6-11.5v18.9a14.2 14.2 0 1 0 28.4 0v-18.9l16.6 11.5a14.3 14.3 0 0 0 19.8-3.6 14 14 0 0 0-3.6-19.7l-32.7-22.7v-18.9h5.1a14.2 14.2 0 1 0 0-28.4h-5.1v-25.7a54 54 0 0 0 11.3-4.8l48.7 48.7-7.1 39.2a14.2 14.2 0 0 0 11.4 16.5c.9.2 1.7.2 2.5.2 6.7 0 12.7-4.8 13.9-11.7l3.6-19.9 20.4 20.4a14.1 14.1 0 0 0 20 0 14.2 14.2 0 0 0 0-20l-20.4-20.4 19.9-3.6a14.2 14.2 0 0 0-5.1-27.9l-39.2 7.1-48.7-48.7c2.2-3.8 3.9-8 5-12.3h29.8v6.7a14.2 14.2 0 1 0 28.4 0v-6.7h14.5l22.7 32.7a14.2 14.2 0 0 0 23.4-16.1L414 266.1h18.9c7.8 0 14.2-6.3 14.2-14.2s-6.5-14.1-14.3-14.1zm-177.2 40.9a24.6 24.6 0 1 1 0-49.2 24.6 24.6 0 0 1 0 49.2z"></path></svg>