<svg xmlns="http://www.w3.org/2000/svg" viewBox="0 0 510.2 510.2"><path d="M334.3 241.9c5.2-11.1 7.9-23.3 7.9-35.7 0-16.3-4.7-32.2-13.5-45.9l-1.1-2.2H357v-28.3h-35.8v-47H193v47h-34.5v28.3h28.2l-1.1 2.1a83.79 83.79 0 0 0-13.5 45.9c0 12.4 2.7 24.6 7.9 35.7-4.5 4.4-8.5 9.2-12.1 14.3-6.5-3-13.6-4.7-20.7-4.7l-45.2-.2-.2 28.3 45.2.2c2.6 0 5.2.6 7.7 1.5A109 109 0 0 0 148 319c0 60.2 49 109.3 109.3 109.3 60.2 0 109.2-49 109.2-109.3-.2-29.2-11.7-56.8-32.2-77.1zM221.4 111.1h71.4v18.7h-71.4v-18.7zm35.7 289c-44.6 0-80.9-36.3-80.9-80.9 0-5.5.6-11 1.6-16.3l26.7 28.9 20.8-19.2-35.5-38.4c4.6-6.8 10.2-12.9 16.8-18.1l10.1-8.1-7.1-10.8c-6-9.2-9.2-19.9-9.2-30.9 0-11.1 3.2-21.8 9.3-31l.4-.6 8.5-16.5h77l8.6 16.5.4.6c6.1 9.3 9.3 20 9.3 31s-3.2 21.7-9.3 30.9l-7.1 10.8 10.1 8.1a80.25 80.25 0 0 1 30.4 63.2c0 44.5-36.3 80.8-80.9 80.8z"></path><path d="M234.1 197.4a6.36 6.36 0 0 0 0-12.7c-3.5 0-6.4 2.9-6.4 6.3 0 3.6 2.8 6.4 6.4 6.4z"></path><path d="M276.5 185.1a6.36 6.36 0 0 0 0 12.7c3.5 0 6.4-2.9 6.4-6.4 0-3.5-2.9-6.3-6.4-6.3z"></path><path d="M255.1 276.5a6.36 6.36 0 0 0 0 12.7c3.5 0 6.4-2.9 6.4-6.3 0-3.5-2.9-6.4-6.4-6.4z"></path><path d="M255.1 315.9c-3.5 0-6.3 2.9-6.3 6.3a6.36 6.36 0 0 0 12.7 0c0-3.5-2.9-6.3-6.4-6.3z"></path><path d="M255.1 355.1a6.36 6.36 0 0 0 0 12.7c3.5 0 6.4-2.8 6.4-6.3s-2.9-6.4-6.4-6.4z"></path><path d="M264.1 228.3v-21l-37.4 11z"></path></svg>