<svg xmlns="http://www.w3.org/2000/svg" viewBox="0 0 510.2 510.2"><path d="M378.4 170.3h-49.6v-56.7c0-15.6-12.7-28.3-28.3-28.3H172.9c-15.6 0-28.3 12.7-28.3 28.3v22.3a83.31 83.31 0 0 1 28.3 0v-22.3h127.6V397h-70.9v-63.8h-28.3V397H173v-89a83.31 83.31 0 0 1-28.3 0v117.3H407V198.6c-.3-15.6-13-28.3-28.6-28.3zm0 226.7h-49.6V198.6h49.6V397z"></path><path d="M231.7 265.8h15.5v69.4h-15.5z" transform="rotate(-45 239.45 300.56)"></path><path d="M161.3 284.5c-34.1 0-61.9-27.8-61.9-61.9 0-34.1 27.8-61.9 61.9-61.9 34.1 0 61.9 27.8 61.9 61.9 0 34.2-27.8 61.9-61.9 61.9zm0-108.3c-25.6 0-46.4 20.8-46.4 46.4 0 25.6 20.8 46.4 46.4 46.4 25.6 0 46.4-20.8 46.4-46.4a46.5 46.5 0 0 0-46.4-46.4z"></path><path d="M130.7 210.1v37.4c2.5 3.4 5.5 6.3 8.9 8.7v-46.1h-8.9z"></path><path d="M148.5 224.8v36c2.8 1 5.8 1.7 8.9 2v-38h-8.9z"></path><path d="M166.4 197.7v65c3.1-.4 6.1-1.2 8.9-2.3v-62.6h-8.9z"></path><path d="M184.2 211.1v44.1c3.5-2.7 6.5-5.9 8.9-9.6v-34.5h-8.9z"></path></svg>