<svg xmlns="http://www.w3.org/2000/svg" viewBox="0 0 510.2 510.2"><path d="M405.3 131.6l-14.7 45-25.5-40.7-11.9-19a52.8 52.8 0 0 0-37.5-24.3l-27.4-3.8-2.3 16.4 27.4 3.8a36.3 36.3 0 0 1 25.8 16.7l11.7 18.7 25.7 41.1-46.9-6.5-2.3 16.4 71.3 9.8 22.3-68.4-15.7-5.2z"></path><path d="M191.4 402.2a36.2 36.2 0 0 1-24.2-18.9l-10-19.5-22.1-43.1 46.2 10.5 3.7-16.1-70.2-16-28.1 66.3 15.2 6.5 18.5-43.6 21.8 42.6 10.2 20c7.1 14 20 24 35.3 27.5l26.9 6.1 3.7-16.1-26.9-6.2z"></path><path d="M259.2 221.4l-21.5-18-10-8.4-12.7 15.3 10 8.4 21.4 17.9c2.7 2.3 4.3 5.7 4.3 9.2V266h19.8v-20.2c.1-9.4-4-18.3-11.3-24.4z"></path><path d="M180.1 83.9a46.6 46.6 0 0 0-46.6 46.6v29.3c0 10.1 3.2 19.5 8.7 27.1l-19.8 16.6-21.5 18a32 32 0 0 0-11.4 24.4v20.2h19.8v-20.2a12 12 0 0 1 4.3-9.2l21.5-18 22-18.4a46.6 46.6 0 0 0 69.5-40.5v-29.3a46.5 46.5 0 0 0-46.5-46.6zm26.7 75.9a26.8 26.8 0 0 1-53.4 0v-29.3a26.8 26.8 0 0 1 53.4 0v29.3z"></path><path d="M413.7 379.8l-21.5-18-10-8.4-12.7 15.2 10 8.4 21.4 17.9c2.7 2.3 4.3 5.7 4.3 9.2v20.2H425v-20.2c.1-9.3-4-18.2-11.3-24.3z"></path><path d="M334.6 242.3a46.6 46.6 0 0 0-46.6 46.6v29.3c0 10.1 3.2 19.5 8.7 27.1l-19.8 16.6-21.5 18a32 32 0 0 0-11.4 24.4v20.2h19.8v-20.2a12 12 0 0 1 4.3-9.2l21.5-18 22-18.4a46.6 46.6 0 0 0 69.5-40.5v-29.3a46.5 46.5 0 0 0-46.5-46.6zm26.7 75.9a26.8 26.8 0 0 1-53.4 0v-29.3a26.8 26.8 0 0 1 53.4 0v29.3z"></path></svg>