<svg xmlns="http://www.w3.org/2000/svg" viewBox="0 0 510.2 510.2"><path d="M404.9 342.7L363.4 308l-26-21.7-18.1 21.8 25.9 21.7 41.5 34.7a28.3 28.3 0 0 1 10.1 21.7v39h28.3v-39a56.4 56.4 0 0 0-20.2-43.5z"></path><path d="M255.2 78h-.2a85.2 85.2 0 0 0-84.9 85V219.8c0 20.1 7 38.6 18.7 53.1l-42 35.2-41.5 34.7A56.5 56.5 0 0 0 85 386.2v39h28.3v-39c0-8.4 3.7-16.3 10.1-21.7l41.5-34.7 45.3-37.9a84.3 84.3 0 0 0 44.8 12.8h.2a85.1 85.1 0 0 0 84.9-84.8V163a85 85 0 0 0-84.9-85zm56.6 141.7a56.7 56.7 0 0 1-113.4 0V163a56.7 56.7 0 0 1 113.4 0v56.7z"></path><path d="M305.3 425c-1.6 0-3.1-.6-4.2-1.7L273 395.2a23.2 23.2 0 1 1 32.2-33.3 23.2 23.2 0 1 1 32.2 33.3l-28.1 28.1a5.4 5.4 0 0 1-4 1.7z"></path></svg>