<svg xmlns="http://www.w3.org/2000/svg" viewBox="0 0 510.2 510.2"><path d="M209.4 418.2v-28.3c7.6 0 14.7-2.9 20-8.3l31.8-31.8a56.3 56.3 0 0 1 40.1-16.6h95.8V148.9H113.6v184.3h114v28.3h-114a28.3 28.3 0 0 1-28.3-28.3V148.9a28.3 28.3 0 0 1 28.3-28.3h283.5a28.3 28.3 0 0 1 28.3 28.3v184.3a28.3 28.3 0 0 1-28.3 28.3h-95.8c-7.6 0-14.7 2.9-20 8.3l-31.8 31.8a56.3 56.3 0 0 1-40.1 16.6z"></path><path d="M170.8 205h170.1v7.1H170.8z"></path><path d="M170.8 226.2h141.7v7.1H170.8z"></path><path d="M170.8 247.5h155.9v7.1H170.8z"></path><path d="M170.8 268.8h141.7v7.1H170.8z"></path></svg>