<svg xmlns="http://www.w3.org/2000/svg" viewBox="0 0 510.2 510.2"><ellipse cx="381" cy="301.7" rx="17.1" ry="16.8"></ellipse><path d="M439.4 285l-42-42.5a18.6 18.6 0 0 0-26-.4l-11 10.4-1.8 2a22.2 22.2 0 0 0 .3-4.8 21.7 21.7 0 0 0-7.2-15.1 21.4 21.4 0 0 0-4.7-3.3l13-14.5a25.2 25.2 0 0 0 6.3-18.9 26.8 26.8 0 0 0-8.7-17.9 26.3 26.3 0 0 0-13.7-6.7 27.5 27.5 0 0 0 0-3.6 28.3 28.3 0 0 0-8.8-18.6 26.2 26.2 0 0 0-18.7-7.3h-1a26.8 26.8 0 0 0-8.2-14 26.3 26.3 0 0 0-18.5-6.8 25.2 25.2 0 0 0-10 2.4l-5-7a20.9 20.9 0 0 0-18.7-8.3l-21.7 1.9a24 24 0 0 0-11.8 3.9A24.3 24.3 0 0 0 194 122a23 23 0 0 0-5.7 13.8 24.3 24.3 0 0 0-28.3 6 23 23 0 0 0-5.7 17 20.9 20.9 0 0 0 .4 2.8 27.1 27.1 0 0 0-2.8.1 23.9 23.9 0 0 0-16.3 8.1 23.2 23.2 0 0 0-.3 30.3 23.7 23.7 0 0 0-13.5 7.7 23.2 23.2 0 0 0 2.5 33l7.3 6.2-1.5 5.1a18.6 18.6 0 0 0-25.2 2.3L65.1 299a17.9 17.9 0 0 0 1.7 25.5L180.5 423a18.7 18.7 0 0 0 26-1.6l39.8-44.5a17.9 17.9 0 0 0-1.7-25.5l-6.1-5.3 23-4.5h.2c.3 0 3.3-.8 7.6-2.2l-6.8 6.4a17.9 17.9 0 0 0-.4 25.6l42 42.5a18.6 18.6 0 0 0 26 .4l108.8-103.6a17.9 17.9 0 0 0 .5-25.6zM228.8 130.3a8 8 0 0 1 5.5-2.6l22.1-2h.5a4.8 4.8 0 0 1 3.8 2l6.2 8.6-1.9 2.2-3.3 2.5-26.7 2.3a8 8 0 0 1-5.6-2 7.7 7.7 0 0 1-.6-11zm-22.7 2.1a8 8 0 0 1 5.5-2.7 22.9 22.9 0 0 0-.7 7 23.7 23.7 0 0 0 23.8 22.3h1.3l6.3-.6a7.6 7.6 0 0 1-1.7 3.2 8 8 0 0 1-11.2.8l-22.4-19a7.8 7.8 0 0 1-.9-11zm-34 19.7a8 8 0 0 1 11.3-.8l37.2 31.3a7.8 7.8 0 0 1 .8 11 8 8 0 0 1-11.2.9L173 163a7.8 7.8 0 0 1-.9-11zm-24.4 28a8.1 8.1 0 0 1 11.2-.8l37.3 31.4a7.7 7.7 0 0 1 .8 11 8 8 0 0 1-11.2.9L148.6 191a7.8 7.8 0 0 1-.9-11zM134 218a8 8 0 0 1 5.4-2.6h.7a8 8 0 0 1 5.1 1.9l22.4 18.9a7.8 7.8 0 0 1 .9 11 8 8 0 0 1-11.2.8l-22.5-18.9a7.8 7.8 0 0 1-.9-11zm96.7 148.5L194 407.3a4.2 4.2 0 0 1-5.8.3L81.3 315a4 4 0 0 1-.4-5.7l36.4-40.7a4.2 4.2 0 0 1 5.8-.4l107 92.6a4 4 0 0 1 .5 5.7zm27.6-40.3l-34.7 6.7-80.1-69.3 1.5-5.3 2 1.6a23.9 23.9 0 0 0 15.4 5.6h1.9a23.9 23.9 0 0 0 16.3-8.1 23 23 0 0 0 5.7-17.1l-.1-.8a24.5 24.5 0 0 0 4.9.5 24 24 0 0 0 18.1-8.2 23.2 23.2 0 0 0 5.3-20h1a24 24 0 0 0 18.1-8.1 23.4 23.4 0 0 0 4.1-6.8l35.7-39.3 13-15.6a7.3 7.3 0 0 1 3-.8 8.6 8.6 0 0 1 6 2.2 8.7 8.7 0 0 1 2.9 5.8 7.3 7.3 0 0 1-.8 4l-53.5 61 14.2 12.4 53.6-61.6a7 7 0 0 1 5.1-2.4 8.5 8.5 0 0 1 6 2.4 9.2 9.2 0 0 1 3 6 7.6 7.6 0 0 1-1.8 5.6l-53.3 61 14 12.2 24.8-28.4 25-28a7 7 0 0 1 5.1-2.3 8.6 8.6 0 0 1 6 2.3 8.7 8.7 0 0 1 2.9 5.8 7 7 0 0 1-1.7 5.3l-50 55.8 13.5 11.9 25.2-28.2a6.9 6.9 0 0 1 6.7 11.3l-26.7 29.5c-11 10.5-22.8 21.8-28.7 27.1a73.8 73.8 0 0 1-28.6 14.3zM424 301.8l-102.4 97.5a4.2 4.2 0 0 1-5.9-.1l-38.3-39a4 4 0 0 1 0-5.8L380 257a4.2 4.2 0 0 1 5.8 0l38.4 39a4 4 0 0 1-.1 5.8z"></path><ellipse cx="116.6" cy="306.8" rx="17.1" ry="16.8"></ellipse></svg>