<svg xmlns="http://www.w3.org/2000/svg" viewBox="0 0 510.2 510.2"><path d="M321.3 275.9H191h130.3z"></path><path d="M374.4 140.2q-7 0-7-8.9H361q0 14 13.3 13.9 8.6 0 12-5.7 2.5-4.4 2.5-14 0-8-2.2-11.9-2.8-5.3-10-5.3a11.5 11.5 0 0 0-9 4.1l.9-19.2h18.6v-5h-24.8l-1 30.6h6.2a6.2 6.2 0 0 1 2.5-4.1 7.7 7.7 0 0 1 4.8-1.6q7.4 0 7.4 12.4 0 7.7-1.4 10.7-1.6 4-6.4 4z"></path><path d="M410.3 145.2q8.8 0 11.8-7 2.1-5 2.1-18v-12.4q0-10.3-2-14.5-3-6-11.8-6-14.2 0-14.2 20.5v12.3q0 13.7 2.3 18.8 3 6.3 11.8 6.3zm-7.7-32.6q0-10.5 1.2-14.6 1.6-5.7 6.6-5.7 5.1 0 6.5 5.5.8 3.3.8 14.8v8.8q0 9.4-.6 12.4-1.5 6.6-6.9 6.6-4.8 0-6.4-5.1-1.2-3.8-1.2-14.2z"></path><path d="M213.9 213.4q6.1-5.7 3.8-12.5-1.8-4.9-10.1-13.9l-8-8.7q-6.7-7.2-10.8-8.8-6-2.3-12.1 3.4-10 9.2 3.2 23.5l8 8.6q8.8 9.6 13.7 11.6 6.2 2.5 12.3-3.2zm-20.9-12l-5.4-5.8q-6.8-7.4-8.7-11-2.5-5 1-8.2t8.1-.4q2.7 1.8 10.1 9.8l5.7 6.1q6 6.6 7.5 9 3.3 5.7-.5 9.1-3.4 3.2-7.8.6-3.3-1.8-10-9.1z"></path><path d="M166 202.3a15.6 15.6 0 0 1 4.4 7.7l6.8 27.6 4.6 4.2 17.6-19.3-4-3.7-12.4 13.6-4.7-20.8c-1-4.4-2.6-10.6-7-14.6-5.9-5.3-11.3-4.4-16.7 1.6-4.7 5-6 11.1-.9 16.7l1.9 1.7 4.8-5.3a20.3 20.3 0 0 1-2-2.1c-1.8-2.3-2.3-4.8 0-7.3 2.4-2.8 5.2-2.2 7.6 0z"></path><path d="M293.6 142.3q-4.6-4.3-12.3-1.5-12.6 4.6-6 22.6l4 10.8q4.3 12.1 8 15.8 4.7 4.6 12.4 1.8t8.2-10q.2-5-4-16.4l-4-11q-3.2-9-6.3-12.1zm4.6 45.3q-4.4 1.5-7.4-2.5-2.2-3-5.6-12.1l-2.7-7.4q-3.4-9.3-3.6-13.3-.4-5.6 4-7.1t7.4 2.8q1.8 2.6 5.5 12.6l2.8 7.8q3 8.3 3.5 11.1.8 6.3-4 8z"></path><path d="M135.8 260.7h40l-62.5-62.5 65.1-65.2 127.8 127.7h40L266 180.5l-10.7-29.3-5 1.8a35.6 35.6 0 0 1-4 7.8L227 141.4l73.2-26.6 53 145.6 27-8.8-53.6-147a28.1 28.1 0 0 0-36.2-16.4l-85.6 31.1-6.3-6.3a28.4 28.4 0 0 0-40.1 0l-65.2 65.1a28.4 28.4 0 0 0 0 40.1zM252 160.3l3.7 10-5.8-5.8a39.2 39.2 0 0 0 2.1-4.2z"></path><path d="M397.5 275.9H114.1a28.4 28.4 0 0 0-28.4 28.3v92.1a28.4 28.4 0 0 0 28.4 28.4h283.4a28.4 28.4 0 0 0 28.4-28.4v-92a28.4 28.4 0 0 0-28.4-28.4zm0 36.1v84.3H114.1v-92h283.4z"></path><path d="M182.3 351.7c2.8-4.1 6.6-10 6.6-16.6 0-8.7-4.8-12.4-13.6-12.4-7.5 0-13.4 3.4-14 11.7l-.1 2.8h7.8a21.4 21.4 0 0 1 .3-3.2c.5-3.1 2.1-5.5 5.8-5.5 4 0 5.6 2.6 5.6 6.2a17 17 0 0 1-2.9 9.4l-17.3 26v6.8H189v-6h-20z"></path><path d="M210.2 322.7c-12.1 0-14.3 9-14.3 19.3v13c0 13.6 1 23 14.1 23s14-10.5 14-23.2v-13.2c0-10.8-1.3-19-13.8-19zM210 372c-6 0-6.2-7-6.2-17.5v-7.8c0-10.7.3-18.4 6.3-18.4s6 7.5 6 18.4v8.1c0 8.4.4 17.2-6.1 17.2z"></path></svg>