<svg xmlns="http://www.w3.org/2000/svg" viewBox="0 0 510.2 510.2"><path d="M142.3 236.7a28.3 28.3 0 0 1 21.7-10.1l32.9.1h116.6l32.8.1c16.8 0 32.6-7.4 43.4-20.3l25.1-29.9-21.7-18.2-25.1 29.9a28.3 28.3 0 0 1-21.7 10.1l-32.9-.1H196.8l-32.9-.1a56.5 56.5 0 0 0-43.4 20.3l-25.1 29.9 21.7 18.2 25.2-29.9z"></path><path d="M142.3 321.9a28.3 28.3 0 0 1 21.7-10.1l32.9.1h116.6l32.8.1c16.8 0 32.6-7.4 43.4-20.3l25.1-29.9-21.7-18.2-25.1 29.8a28.3 28.3 0 0 1-21.7 10.1l-32.9-.1H196.8l-32.9-.1a56.5 56.5 0 0 0-43.4 20.3l-25.1 29.9 21.7 18.2 25.2-29.8z"></path></svg>