<svg xmlns="http://www.w3.org/2000/svg" viewBox="0 0 510.2 510.2"><path d="M164.8 251.1h170.1v7.1H164.8z"></path><path d="M164.8 272.4h170.1v7.1H164.8z"></path><path d="M277.1 396.4H164.8c-7.8 0-14.2-6.4-14.2-14.2V127.1c0-7.8 6.4-14.2 14.2-14.2h85v113.4H349v75.9h28.3v-95.4l-107-122.2H164.8a42.6 42.6 0 0 0-42.5 42.5v255.1a42.6 42.6 0 0 0 42.5 42.5h112.3v-28.3zm1-259.9l53.8 61.5h-53.8v-61.5z"></path><path d="M339.8 398.1c-13.8 0-26.2-6-34.7-15.5v69.8l34.7-27.5 34.7 27.5v-69.8a46.4 46.4 0 0 1-34.7 15.5z"></path><path d="M339.8 385.1a33.7 33.7 0 1 0 0-67.4 33.7 33.7 0 0 0 0 67.4z"></path><path d="M164.8 294.6h170.1v7.1H164.8z"></path></svg>