<svg xmlns="http://www.w3.org/2000/svg" viewBox="0 0 510.2 510.2"><path d="M303.6 346a82.3 82.3 0 0 0 20-20l-46.3-46.3a21.7 21.7 0 0 1-6.3-15.5v-88a104 104 0 0 0-28.4 0v88a49.9 49.9 0 0 0 14.7 35.4z"></path><path d="M360.8 126.7h28.4v48.1h-28.4z" transform="rotate(-47.2 375 150.7)"></path><path d="M115 136.8h48.1v28.4H115z" transform="rotate(-45 139 151)"></path><path d="M256.8 425.3c80.6 0 146.2-65.6 146.2-146.3 0-76.5-59.1-139.5-134-145.7l.2-19.6h10.5a14.2 14.2 0 1 0 0-28.3H231a14.2 14.2 0 1 0 0 28.3h10l-.4 20c-73 8-130.1 70.2-130.1 145.4 0 80.6 65.6 146.2 146.3 146.2zm0-264.2a118 118 0 1 1-118 118 118 118 0 0 1 118-118z"></path></svg>