<svg xmlns="http://www.w3.org/2000/svg" viewBox="0 0 510.2 510.2"><path d="M147.6 268.6c.7 15.4-.7 29.5 13.7 41l10.3 6.2c-3.6 1-7 2.6-9.9 4.8a21.9 21.9 0 0 0-9.1 17.4v64.1c0 13.1 12 23.3 27.4 23.3l151.9.1c6.8 0 13.3-2.1 18.3-5.9a21.9 21.9 0 0 0 9.1-17.4v-64.1c0-8.8-5.4-16.3-13.6-20.2 7.3-7.3 14-16.8 15-29.2v-.4l-.6-69.3.1-15.8-.1-33.6c0-.3-.1-8.4-3.7-16.8a29.2 29.2 0 0 0-28-19.1h-.1c-4.2 0-8.1.6-11.7 1.9v-9.5a31.8 31.8 0 0 0-32.9-31.7c-4.3 0-8.4 1-12.2 2.7-4-14.3-16.6-23.6-32.9-23.5h-.9c-17.9 1.7-30 16.9-28.9 36.1v2a33.7 33.7 0 0 0-11.2-1.8h-.5c-18.2.8-31 15.5-30.4 34.9l.9 50.4a30.7 30.7 0 0 0-19.4 29.6l-.6 43.8zM338 401.4c0 1.6-1.3 2.8-2.8 2.8H175a2.8 2.8 0 0 1-2.8-2.8v-64.2c0-1.6 1.3-2.8 2.8-2.8h160.2c1.6 0 2.8 1.3 2.8 2.8v64.2zM169.1 242.8l.2-17.8s-.5-10 9.3-10.5c9.5-.1 9.9 11.3 9.9 11.3V258h21v-32.2c0-9.1-2.6-17-7.5-22.9a26.8 26.8 0 0 0-13.4-8.7l-.9-49.8v-.1c-.2-7.9 3.7-13 10.2-13.4 4.1 0 10.6 2.3 11.1 12.1l.3 65.8h10.5l9.6.1.5-100.2c-.5-7.8 3.4-13.6 10.7-14.1 5.6.1 11.2 2.9 11.4 12.9l1.1 100.4 21 .1.4-78.5s-1-13.7 10.6-14.1c6.2-.2 10.2 3.4 10.7 13.4v79.1h20.7l.5-38.1s-1-15 11.1-15.1c11.7-.1 11.1 15.2 11.1 15.2v33.3l-.1 15.8.6 68.5c-.9 9.8-10.2 17.2-18.3 23.8l-4.2 3.5H205.4l-31-21.6c-4.9-4-5.5-10-5.7-21.8l.4-28.6z"></path><circle cx="301.2" cy="371.1" r="18.9"></circle></svg>