<svg xmlns="http://www.w3.org/2000/svg" viewBox="0 0 510.2 510.2"><circle cx="361.4" cy="318.9" r="14.2"></circle><path d="M113.4 396.8h283.5a28.3 28.3 0 0 0 28.3-28.3v-99.2a28.3 28.3 0 0 0-28.3-28.3h-49.6v28.3h49.6v99.2H113.4v-99.2h21V241h-21a28.3 28.3 0 0 0-28.3 28.3v99.2a28.3 28.3 0 0 0 28.3 28.3z"></path><path d="M187.8 305.1h106.3a32 32 0 0 0 31.9-31.9V202a31.9 31.9 0 0 0-31.5-31.9v-27.4a53.6 53.6 0 0 0-107 0v27.4A31.9 31.9 0 0 0 156 202v71.2a31.8 31.8 0 0 0 31.8 31.9zm27.9-162.4a25.2 25.2 0 0 1 50.4 0V170h-50.4v-27.3zM184.3 202c0-2 1.6-3.5 3.5-3.5h106.3c2 0 3.5 1.6 3.5 3.5v71.2c0 2-1.6 3.5-3.5 3.5H187.8c-2 0-3.5-1.6-3.5-3.5V202z"></path></svg>