<svg xmlns="http://www.w3.org/2000/svg" viewBox="0 0 510.2 510.2"><path d="M323.6 156.9h65.6v28.3h-65.6z" transform="rotate(-40.7 356.4 171)"></path><path d="M144.5 138.2h28.3v65.6h-28.3z" transform="rotate(-49.3 158.6 171)"></path><path d="M242.5 93.1h28.3v64.5h-28.3z"></path><path d="M122.7 325h65.6v28.3h-65.6z" transform="rotate(-40.7 155.5 339.2)"></path><path d="M339.1 306.4h28.3V372h-28.3z" transform="rotate(-49.3 353.2 339.2)"></path><path d="M241.7 352.6H270v64.5h-28.3z"></path><path d="M326 254.9a71 71 0 0 0-70.6-70.7h-.1-.1a71.3 71.3 0 0 0-70.9 70.7v.2a71 71 0 0 0 141.8 0l-.1-.2zm-70.9 42.5a42.5 42.5 0 1 1 0-85 42.5 42.5 0 0 1 0 85z"></path><path d="M93.1 239.5h64.5v28.3H93.1z"></path><path d="M352.3 240.1h64.5v28.3h-64.5z"></path></svg>