<svg xmlns="http://www.w3.org/2000/svg" viewBox="0 0 510.2 510.2"><path d="M416.4 197.7l-29.3-94a21.3 21.3 0 0 0-13-13.5 26 26 0 0 0-16.8-.4l-193.5 60.3L93 171.7l44.1 61 24.6-7.3 14.7 47.2a21.3 21.3 0 0 0 13 13.5c2.8 1.1 5.8 1.6 8.9 1.6 2.7 0 5.3-.4 8-1.2l193.5-60.3c12.8-4.1 20.2-16.8 16.6-28.5zm-214.7 60.5L176 176l185.8-57.9 25.6 82.2-185.7 57.9z"></path><path d="M345.2 341.5l-4.6-4a17.3 17.3 0 0 1-6-13.4l.3-47.8-36.7 11.4-.6 35.8a54.2 54.2 0 0 0 18.8 42l69.1 59.7 24.2-28-64.5-55.7z"></path></svg>