<svg xmlns="http://www.w3.org/2000/svg" viewBox="0 0 510.2 510.2"><path d="M128.4 276.1c-12 0-23.3-5.3-31-14.4l-11.9-14.3 16-13.4 11.9 14.3c3.7 4.4 9.2 7 15 7v20.8z"></path><path d="M388.1 219.7l-15.9 13.4 18.8 22.3h-29.1v20.9H390l-17.7 21.2 16 13.3 38-45.6z"></path><path d="M344 254c-2.4-24.3-18.6-51.4-49.5-57.5a64 64 0 0 0-34.9 3.4v-25.2c0-9.3-4.1-18-11.2-24l-16.7-14-18.2 21.7 16.7 14a3 3 0 0 1 1.1 2.3V200a64.8 64.8 0 0 0-35.4-3.6c-30.9 6.1-47.1 33.3-49.5 57.5-2.4 24.5 5.3 55.6 20.1 81.2 18.7 32.2 37.5 37.4 46.9 37.6h.8c7.1 0 13.6-2.6 19.3-4.8 4.2-1.7 8.6-3.4 11.7-3.4v.1c3.1 0 7.5 1.7 11.8 3.4a52.7 52.7 0 0 0 19.3 4.8h.8c9.5-.2 28.2-5.4 47-37.6 14.7-25.5 22.3-56.6 19.9-81.2zm-88-20.3c11.6-7.8 16.3-12.6 33.1-9.3 19 3.7 25.8 22.2 26.8 32.5 1.8 18.7-4.6 43.9-16.4 64.2-11.1 19.1-20.4 23.4-23.2 23.5h-.1a39 39 0 0 1-8.9-2.9 61.8 61.8 0 0 0-21.9-5.4v-.1h-.2c-8.5 0-16.1 3-22.2 5.4-2.9 1.1-7.2 2.9-8.9 2.9h-.1c-2.7-.1-12-4.4-23.1-23.5-11.8-20.3-18.2-45.5-16.4-64.2 1-10.3 7.8-28.7 26.8-32.5 16.7-3.3 33 9.3 33.1 9.4 0-.1 10 7.8 21.6 0z"></path></svg>