<svg xmlns="http://www.w3.org/2000/svg" viewBox="0 0 510.2 510.2"><path d="M297.9 254.5c-7.8 13.2-15.4 26.6-23.4 39.7a86.6 86.6 0 0 1-9.2 12.4 24.6 24.6 0 0 1-30.6 4.8 25.4 25.4 0 0 1 5.1-46.3c14.3-4.7 29.1-7 43.9-9.4l13.4-2 .8.8z"></path><path d="M424.9 326.8A170 170 0 0 0 255.1 157h-.6A170 170 0 0 0 85.3 326.7h-.1v28.6l339.6-.7.1-27.8zm-311.2-.2c0-11.2 1.3-22.1 3.8-32.6H149v-11h-28.4a141.4 141.4 0 0 1 42.3-63.4l21.8 21.8 7.8-7.8-20.9-20.9a140.8 140.8 0 0 1 75.5-27.2v30.1h11v-30.3c30.4.6 58.6 10.9 81.4 27.9l-21 21 7.8 7.8 21.8-21.8c19 16.6 33.6 38.3 41.6 62.8h-28.8v11h31.9c2.4 10.3 3.8 21 3.8 32l-282.9.6z"></path></svg>