<svg xmlns="http://www.w3.org/2000/svg" viewBox="0 0 510.2 510.2"><path d="M431.1 117.4l-35.8-1.2-.5-33.4-47.7 45.8 7.6 7.7-30.3 30.3-26.4 26.2-20.4 20.4-22.7 22.7a33 33 0 1 0 19.7 20.5l22.9-22.9L318 213l26.4-26.4 30.2-30.2 7.9 8 48.6-47z"></path><path d="M243.3 173.9a94 94 0 0 0-93.8 93.8 94 94 0 0 0 93.8 93.8 94 94 0 0 0 84.4-134.8l-22.2 22.2a65 65 0 1 1-42.3-43l22.1-22.1a94.8 94.8 0 0 0-42-9.9z"></path><path d="M373.8 179.7l-20.5 20.5a129.2 129.2 0 0 1-110 196.6c-71.2 0-129.1-57.9-129.1-129.1a129.2 129.2 0 0 1 197.4-109.5l20.5-20.5a157.7 157.7 0 0 0-246.2 130c0 86.8 70.6 157.5 157.5 157.5 86.8 0 157.5-70.6 157.5-157.5a158.4 158.4 0 0 0-27.1-88z"></path></svg>