<svg xmlns="http://www.w3.org/2000/svg" viewBox="0 0 510.2 510.2"><path d="M202.9 337.8l-1.7-17.5a720.9 720.9 0 0 1-.2-123.8l2.2-23.7a70.5 70.5 0 0 1 65.8-64.2l31.8-2.1L296 163h-24.8a42.4 42.4 0 0 0-42.4 38.8l-.5 6.2c-2.9 33.4-2.8 67.3.4 100.7a42.3 42.3 0 0 0 42.3 38.5h25l4.7 56.7-32.1-2.2A71.8 71.8 0 0 1 234 390l-19.8 20.7a99.3 99.3 0 0 0 52.5 19.4l33 2.2h1a28.3 28.3 0 0 0 28.3-30.7l-4.7-56.7a28.5 28.5 0 0 0-28.2-26h-25c-7.3 0-13.4-5.5-14.1-12.8-3-31.7-3.1-63.8-.4-95.5l.5-6.2a14 14 0 0 1 14.1-12.9H296c14.6 0 27-11.4 28.2-26l4.7-56.7a28 28 0 0 0-7.4-21.5c-5.4-5.8-13-9.2-20.9-9.2h-.5l-33.2 2.2a99 99 0 0 0-92.1 89.9l-2.2 23.8c-3.6 42.7-3.6 86.1.2 128.9l1.7 17.6c1.8 18.3 8.6 35.6 19.5 50.2l19.9-20.8a73.1 73.1 0 0 1-11-32.1z"></path></svg>