<svg xmlns="http://www.w3.org/2000/svg" viewBox="0 0 510.2 510.2"><path d="M422 122.4a17.7 17.7 0 0 0-17.7-17.3c-4.2 0-8.2 1.5-11.4 4.2l-141 .2A17.7 17.7 0 0 0 235 122l-78.2.1a17.3 17.3 0 0 0-15.3 8.9h-30.6a17.3 17.3 0 0 0-11.9-4.6 17.7 17.7 0 0 0-17.7 17.7l.1 40.6a17.7 17.7 0 0 0 17.7 17.7c4.5 0 8.7-1.7 11.9-4.7h30.6a17.9 17.9 0 0 0 15.3 8.9l75.9-.1-81.6 177.8a14.2 14.2 0 0 0 25.8 11.8l77.3-168.5L331.7 396a14.2 14.2 0 1 0 25.8-11.8l-75.9-165.7 111.5.1a17.6 17.6 0 0 0 29-13.2c4-7.8 11-23.9 11-41.5a95 95 0 0 0-11.1-41.5zm-266 46.8l-46.2.1v-10l46.2-.1v10zm28.4-18.8l58-.1V178l-58 .1v-27.7zM398 190.2l-127.4.2.1-1.2v-51.4l127.2-.2a63.7 63.7 0 0 1 6.8 26.2 62.8 62.8 0 0 1-6.7 26.4z"></path></svg>