<svg xmlns="http://www.w3.org/2000/svg" viewBox="0 0 510.2 510.2"><path d="M327 353.3c0-21.1-8.9-40.1-23.1-53.5V137.2c0-28.1-22.8-50.9-50.9-50.9-28.1 0-50.9 22.8-50.9 50.9v163.1a73.85 73.85 0 0 0-22.6 53c0 40.7 33.1 73.7 73.8 73.7 40.6 0 73.6-33 73.7-73.7zm-73.8 44.2c-24.4 0-44.2-19.8-44.3-44.2 0-16.1 8.6-30.2 21.5-37.9l-.1-178.1c0-12.4 10.1-22.6 22.6-22.6s22.6 10.1 22.6 22.6v177.9a44.54 44.54 0 0 1 22 38.2 44.34 44.34 0 0 1-44.3 44.1z"></path><path d="M258.1 327.7V163h-11v164.7a26.73 26.73 0 0 0-21.2 26.2 26.7 26.7 0 1 0 53.4 0c.1-12.9-9-23.7-21.2-26.2z"></path></svg>