<svg xmlns="http://www.w3.org/2000/svg" viewBox="0 0 510.2 510.2"><path d="M248.1 352.4h3.7v52.5h-3.7z"></path><path d="M259.1 361h3.7v43.9h-3.7z"></path><path d="M297.2 352v52.6c0 4-3.3 7.3-7.3 7.3h-73.1c-4 0-7.3-3.3-7.3-7.3v-18.5l18.8-15.7a29.2 29.2 0 0 0 10.2-18.4h-14.9a15 15 0 0 1-4.6 7.2l-9.4 7.9v-15H195v52.6c0 12.1 9.8 21.9 21.9 21.9H290c12.1 0 21.9-9.8 21.9-21.9V352h-14.7z"></path><path d="M328.2 340.2H181.6a21.2 21.2 0 0 1-21.2-21.2V108.3c0-11.7 9.5-21.2 21.2-21.2h146.6c11.7 0 21.2 9.5 21.2 21.2v210.6c0 11.7-9.5 21.3-21.2 21.3zM181.6 108.3v210.6h146.6V108.3H181.6z"></path><path d="M314.9 219.9H195.3v-99.1h119.6v99.1zm-111.3-8.3h103.1V129H203.6v82.6z"></path><path d="M279.4 253.2h-18.7a2.7 2.7 0 0 1-2.7-2.7v-13.6c0-1.5 1.2-2.7 2.7-2.7h18.7c1.5 0 2.7 1.2 2.7 2.7v13.6c0 1.5-1.2 2.7-2.7 2.7z"></path><path d="M279.4 279.5h-18.7a2.7 2.7 0 0 1-2.7-2.7v-13.6c0-1.5 1.2-2.7 2.7-2.7h18.7c1.5 0 2.7 1.2 2.7 2.7v13.6c0 1.5-1.2 2.7-2.7 2.7z"></path><path d="M279.4 305.9h-18.7a2.7 2.7 0 0 1-2.7-2.7v-13.6c0-1.5 1.2-2.7 2.7-2.7h18.7c1.5 0 2.7 1.2 2.7 2.7v13.6c0 1.5-1.2 2.7-2.7 2.7z"></path><path d="M247.6 253.2h-18.7a2.7 2.7 0 0 1-2.7-2.7v-13.6c0-1.5 1.2-2.7 2.7-2.7h18.7c1.5 0 2.7 1.2 2.7 2.7v13.6c0 1.5-1.3 2.7-2.7 2.7z"></path><path d="M247.6 279.5h-18.7a2.7 2.7 0 0 1-2.7-2.7v-13.6c0-1.5 1.2-2.7 2.7-2.7h18.7c1.5 0 2.7 1.2 2.7 2.7v13.6c0 1.5-1.3 2.7-2.7 2.7z"></path><path d="M247.6 305.9h-18.7a2.7 2.7 0 0 1-2.7-2.7v-13.6c0-1.5 1.2-2.7 2.7-2.7h18.7c1.5 0 2.7 1.2 2.7 2.7v13.6c0 1.5-1.3 2.7-2.7 2.7z"></path><path d="M216.2 253.2h-18.7a2.7 2.7 0 0 1-2.7-2.7v-13.6c0-1.5 1.2-2.7 2.7-2.7h18.7c1.5 0 2.7 1.2 2.7 2.7v13.6c0 1.5-1.2 2.7-2.7 2.7z"></path><path d="M216.2 279.5h-18.7a2.7 2.7 0 0 1-2.7-2.7v-13.6c0-1.5 1.2-2.7 2.7-2.7h18.7c1.5 0 2.7 1.2 2.7 2.7v13.6c0 1.5-1.2 2.7-2.7 2.7z"></path><path d="M216.2 305.9h-18.7a2.7 2.7 0 0 1-2.7-2.7v-13.6c0-1.5 1.2-2.7 2.7-2.7h18.7c1.5 0 2.7 1.2 2.7 2.7v13.6c0 1.5-1.2 2.7-2.7 2.7z"></path><path d="M311.6 305.3h-19.7a2.9 2.9 0 0 1-2.9-2.9V276c0-1.6 1.3-2.9 2.9-2.9h19.7c1.6 0 2.9 1.3 2.9 2.9v26.4c-.1 1.6-1.4 2.9-2.9 2.9z"></path><path d="M311.6 265.9h-19.7a2.9 2.9 0 0 1-2.9-2.9v-26.4c0-1.6 1.3-2.9 2.9-2.9h19.7c1.6 0 2.9 1.3 2.9 2.9V263c-.1 1.6-1.4 2.9-2.9 2.9z"></path></svg>