<svg xmlns="http://www.w3.org/2000/svg" viewBox="0 0 510.2 510.2"><path d="M425.4 190.7v-8.9a28.3 28.3 0 0 0-28.3-28.3H113.5a28.3 28.3 0 0 0-28.3 28.3v8.9c7.8.6 14.1 7.1 14.1 15.1S93 220.4 85.2 221h-.1v16.5h.1c7.8.6 14.1 7.1 14.1 15.1s-6.2 14.5-14.1 15.1h-.1l.1.6v14.9l-.1.9h.1c7.8.6 14.1 7.1 14.1 15.1s-6.2 14.5-14.1 15.1v8.9a28.3 28.3 0 0 0 28.3 28.3H397a28.3 28.3 0 0 0 28.3-28.3v-8.9a15.2 15.2 0 0 1 0-30.2v-16.5a15.2 15.2 0 0 1 0-30.2V221a15.2 15.2 0 0 1 .1-30.3zM113.5 323.6V181.8H397v141.7l-283.5.1z"></path><circle cx="328.6" cy="198.6" r="5.1"></circle><circle cx="328.6" cy="220.2" r="5.1"></circle><circle cx="328.6" cy="241.9" r="5.1"></circle><circle cx="328.6" cy="263.6" r="5.1"></circle><circle cx="328.6" cy="285.2" r="5.1"></circle><circle cx="328.6" cy="306.9" r="5.1"></circle></svg>