<svg xmlns="http://www.w3.org/2000/svg" viewBox="0 0 510.2 510.2"><path d="M126.6 251.9H240v7.1H126.6z"></path><path d="M126.6 273.2h85v7.1h-85z"></path><path d="M381.7 142.1H126.6a42.6 42.6 0 0 0-42.5 42.5v141.7a42.6 42.6 0 0 0 42.5 42.5h148.9l.1-28.3h-149c-7.8 0-14.2-6.4-14.2-14.2V184.6c0-7.8 6.4-14.2 14.2-14.2h35.9l30.5 36.4a56.5 56.5 0 0 0 43.4 20.3h39v-28.3h-39c-8.4 0-16.3-3.7-21.7-10.1l-15.3-18.2h182.3c7.8 0 14.2 6.4 14.2 14.2v59.9l28.3.1v-60c.1-23.5-19-42.6-42.5-42.6z"></path><path d="M385.5 290.4v-12.2a32 32 0 0 0-31.7-31.9h-.1a31.9 31.9 0 0 0-31.8 31.7v12.2a19.9 19.9 0 0 0-17.1 19.8l-.1 38.5c0 11.1 8.9 20.1 20 20.2l57.5.2h.1c11 0 20-9 20.1-20l.1-38.5c0-10.1-7.4-18.5-17-20zm-42.6-12.3c0-5.9 4.9-10.8 10.8-10.8 2.9 0 5.6 1.1 7.6 3.2s3.1 4.8 3.1 7.7v12l-21.6-.1.1-12zm38.4 69.8l-55.7-.2.1-36.7 55.7.2-.1 36.7z"></path></svg>