<svg xmlns="http://www.w3.org/2000/svg" viewBox="0 0 510.2 510.2"><path d="M173.7 194l18.8-9.3a56 56 0 0 1-5.7-27.3h.2l.3-5.1.8-4.7a58 58 0 0 1 9.2-21.1 56.2 56.2 0 0 1 45.1-22.4c18.7 0 35.3 9 45.3 22.6a57 57 0 0 1 10.1 30.6h.2v2.2a56 56 0 0 1-3.4 19.5l19.7 7.1A77.7 77.7 0 0 0 318 148a73.7 73.7 0 0 0-15.9-37l-.1.1a76.9 76.9 0 0 0-46.1-26.9l.1-.3a72.9 72.9 0 0 0-56.2 10.9 76.5 76.5 0 0 0-33.6 55.2 79 79 0 0 0 7.5 44z"></path><path d="M348 244.2a52.7 52.7 0 0 0-35.9-26l-.8-.1-36.9-4.4-.5-14.3-.1-48-.2-1.7a30.7 30.7 0 1 0-61.3-.5l-.3 2.4.2 102.3c-10.3-7.9-23.3-14.9-35-12.6-1.1.2-2.2.6-3.2 1.2-1.3.7-13 7.6-15.3 19.8-.9 4.8-.6 12.2 5.9 20a834.7 834.7 0 0 1 38.6 56.2h-9.9c-5.8 0-10.5 4.7-10.5 10.5v70.4c0 5.8 4.7 10.5 10.5 10.5H337c5.8 0 10.5-4.7 10.5-10.5V349c0-5.8-4.7-10.5-10.5-10.5h-7.2c6.4-10.2 16.6-24.8 22-40.9 10-30-.9-49.1-3.8-53.4zm-21.5 164.7H203.9v-49.4h122.6v49.4zm5.4-118c-7.3 21.9-22.9 41.3-27.3 47.5h-76.3a1000 1000 0 0 0-47.5-69.6c-.8-.9-1.5-2.1-1.4-2.8.2-1.1 1.7-2.9 3.3-4.2 6.4.6 20.1 9.5 32.2 23.2a10.5 10.5 0 1 0 18.4-6.9l-.3-125.8a9 9 0 0 0 .3-2.3 9.7 9.7 0 0 1 19.4 0l.1 1.7.1 48v.4l.9 23.5c.2 5.2 4.1 9.4 9.3 10l45.4 5.4a31.8 31.8 0 0 1 21.4 15.9l.9 1.4c.1 0 8.6 12 1.1 34.6z"></path><circle cx="228.7" cy="384.6" r="15.9"></circle></svg>