<svg xmlns="http://www.w3.org/2000/svg" viewBox="0 0 510.2 510.2"><path d="M385.8 170h-49.6v-56.7A28.4 28.4 0 0 0 307.8 85H180.3a28.4 28.4 0 0 0-28.4 28.4v40.2h28.4v-40.3h127.5v283.5H237V333h-28.4v63.8h-28.3V333h-28.4v92.1h262.2V198.4a28.4 28.4 0 0 0-28.3-28.4zm0 226.8h-49.6V198.4h49.6z"></path><path d="M125.5 285.4h-16v-67.1h-17v-13.8h50v13.8h-17z"></path><path d="M174.6 204.6q13.4 0 19.7 6.5t6.4 18.6a33.3 33.3 0 0 1-2.8 14 21 21 0 0 1-8.8 9.6q-6 3.5-15.4 3.5h-5.2v28.6h-16v-80.8zm-1 13.4h-5v25.3h3.5q6 0 9.3-3.1t3.3-10.3q0-11.9-11.1-11.9z"></path><path d="M234.8 204.6q13.3 0 19.7 6.5t6.3 18.6a33.3 33.3 0 0 1-2.8 14 21 21 0 0 1-8.8 9.6q-6 3.5-15.4 3.5h-5.2v28.6h-16v-80.8zm-1 13.4h-5.1v25.3h3.6q6 0 9.3-3.1t3.2-10.3q0-11.9-11-11.9z"></path></svg>