<svg xmlns="http://www.w3.org/2000/svg" viewBox="0 0 510.2 510.2"><circle cx="210.8" cy="330.3" r="15.5"></circle><circle cx="301.6" cy="330.4" r="15.5"></circle><path d="M315.4 283.3H196.2v-88.7h119.3v88.7zm-108.2-11h97.3v-66.7h-97.3v66.7z"></path><path d="M337.6 144.3h-61l22.4-26.8c5.3-6.4 13.2-10 21.5-10h44.3v-21h-44.3a49.2 49.2 0 0 0-37.6 17.5l-27.6 33-27.6-33a49 49 0 0 0-37.6-17.5h-43.3v21h43.3c8.3 0 16.1 3.7 21.5 10l22.5 26.8h-59.6a28.3 28.3 0 0 0-28.3 28.3v200.6a28.3 28.3 0 0 0 28.3 28.3h2.1a36 36 0 0 0-2.5 13.1v9.3h21v-9.3a15 15 0 0 1 7.8-13.1h105.3c4.9 2.7 7.8 7.6 7.8 13.1v9.3h21v-9.3c0-4.6-.9-9-2.5-13.1h3.1a28.3 28.3 0 0 0 28.3-28.3V172.7a28.4 28.4 0 0 0-28.3-28.4zm0 229H174.4V172.7h163.2v200.6z"></path></svg>