<svg xmlns="http://www.w3.org/2000/svg" viewBox="0 0 510.2 510.2"><path d="M376 230.5c0-2.4-.1-4.8-.2-7.2 2.7 12 13.5 21 26.3 21.1 14.9 0 27.1-12.3 27.1-27.3l-54 .2c-3.1-28-15.9-53.1-34.9-71.9a27.1 27.1 0 0 0 42.5-22.2l-54.1-.1c0 6.5 2.2 12.4 6 17.1a120.11 120.11 0 0 0-66.5-28.9c8.9-4.4 15-13.9 15-24.5l-54.1.2c0 10.6 6.1 19.8 15 24.3-25.5 2.5-48.7 13.1-67 29.1 3.3-4.5 5.3-10.3 5.3-16.3l-54.1.2a27.1 27.1 0 0 0 27 27.1c5.5 0 10.6-1.6 14.9-4.5a119.6 119.6 0 0 0-33.3 70.4l-53.8.2c0 14.9 12.1 26.8 27 26.8 12.7 0 23.3-8.6 26.3-20.4-.1 2.2-.2 4.3-.2 6.5m0 .1c0 30.5 11.4 58.3 30.2 79.5l-52 .2c0 14.9 12.1 26.8 27 26.8a27.1 27.1 0 0 0 27-24.8c6.6 7.1 14.1 13.4 22.3 18.8l-42.9 83.4h-33.5v11h283.5v-11h-33.2l-43.4-83.3c8.8-5.7 16.9-12.6 23.9-20.4.4 14.5 12.3 26.2 27 26.3 14.9 0 27.1-12.3 27.1-27.3l-53.3.2c18.7-21.2 30.1-49 30.1-79.4m-77.3-5c-.8-9.3-4.7-17.8-10.6-24.4l39.1-39c16 16.6 26.2 38.9 27.4 63.4h-55.9zm-141.1-.1a97.88 97.88 0 0 1 26.9-62.7l39.3 39.3c-5.5 6.5-9 14.6-9.9 23.5l-56.3-.1zm164.5-68.2l-39.1 39c-6.5-5.2-14.6-8.6-23.4-9.3v-55.1c24 .9 45.8 10.4 62.5 25.4zm-69.6 29.9c-9 .8-17.1 4.4-23.6 9.9l-39.3-39.2a98.3 98.3 0 0 1 62.9-25.8v55.1zm0 84.6V329a98.3 98.3 0 0 1-33.1-7l26.4-51.4c2.2.5 4.4.9 6.7 1.1zm7.1.1c2.1-.2 4.2-.5 6.2-.9l26.8 51.3a98.17 98.17 0 0 1-33 6.9v-57.3zm-102.1-39.3h56.4c.6 8.8 4 16.9 9.2 23.4l-40.4 40.3a98.06 98.06 0 0 1-25.2-63.7zm30.2 68.9l37.7-37.6-24.8 48.2c-4.6-3.2-8.9-6.7-12.9-10.6zm153 113H171.8l37.8-73.4c6.3 2.7 12.9 4.8 19.7 6.4 0 14.9 12.1 27 27 27a27.1 27.1 0 0 0 27.1-27h-.3c6.7-1.5 13.1-3.6 19.3-6.2l38.3 73.2zm-54.4-150.1l37.7 37.6c-3.9 3.8-8.2 7.2-12.7 10.3l-25-47.9zm42.7 32.5l-40.1-40.1c5.6-6.6 9.2-15 9.9-24.2h56a98.73 98.73 0 0 1-25.8 64.3z"></path></svg>