<svg xmlns="http://www.w3.org/2000/svg" viewBox="0 0 510.2 510.2"><path d="M337.2 350.4a15.3 15.3 0 1 1 0 30.6 15.3 15.3 0 0 1 0-30.6zm-79.8 0a15.3 15.3 0 1 1 0 30.6 15.3 15.3 0 0 1 0-30.6zm-79.1 0a15.3 15.3 0 1 1 0 30.6 15.3 15.3 0 0 1 0-30.6z"></path><path d="M409.5 145.1l-.4-60.3-28.3.2.4 60.3c0 8.4-3.6 16.3-10 21.8l18.3 21.6a56.7 56.7 0 0 0 20-43.6z"></path><path d="M125.1 188.6l18.3-21.7a28.3 28.3 0 0 1-10.1-21.7l.2-60.3-28.3-.1-.2 60.4a56 56 0 0 0 20.1 43.4z"></path><path d="M403.2 318.3c0-49.4-14.7-95.9-41.5-131.1-27.6-36.3-64.7-56.3-104.4-56.3s-76.8 20-104.4 56.3c-26.8 35.2-41.5 81.7-41.5 131.1v14.2h.1V424h291.8V318.3zM270.4 160.2c55.3 8.3 99.1 68.7 104.1 143.9H270.4V160.2zm-28.4.4v143.5H140.2c4.9-74.2 47.6-134 101.8-143.5zm132.9 235h-235v-63.2h235v63.2z"></path><circle cx="178.3" cy="365.7" r="15.3"></circle><circle cx="257.4" cy="365.7" r="15.3"></circle><circle cx="337.2" cy="365.7" r="15.3"></circle></svg>