<svg xmlns="http://www.w3.org/2000/svg" viewBox="0 0 510.2 510.2"><path d="M281 242.2s0-.1 0 0a25.2 25.2 0 0 0-50.4 0v25.2a25.2 25.2 0 0 0 50.4 0v-25.2z"></path><path d="M427.7 252.6c-.4-2.9-1.8-5.6-4-7.9a353 353 0 0 0-26-23.7l21.8-32.1-23.4-15.9-21.1 31c-12.4-8.4-25-15.5-37.6-21.2l13.1-35.1-26.6-9.9-13 35.2c-13.5-4-27.1-6.6-40.9-7.6v-36.7h-28.3v36.6c-14.6 1-28.5 3.7-41.4 7.4l-13-34.8-26.6 9.9 12.8 34.4a249.8 249.8 0 0 0-38.3 20.6L115 173.1 91.6 189l20.7 30.4c-17 13.7-26.8 24.9-27.9 26.1-3.4 3.9-4.2 9-2.8 13.6.4 2.9 1.8 5.6 4 7.8 53.1 53.1 109.8 80 168.4 80l6.9-.1c96.1-3.4 161.3-77.5 164-80.6a14 14 0 0 0 2.8-13.6zm-168.1 65.9c-49.8 1.7-98.6-19.5-145.2-63.2 19.3-18.4 69.7-59.8 135.1-62.1 49.8-1.8 98.7 19.5 145.5 63.1-19.5 18.5-70.1 60-135.4 62.2z"></path></svg>