<svg xmlns="http://www.w3.org/2000/svg" viewBox="0 0 510.2 510.2"><path d="M390.1 425.2H120.2c-14.9 0-28.5-7.6-36.3-20.4a42.28 42.28 0 0 1-1.5-41.6l135.1-262.4c7.4-14 21.8-22.8 37.7-22.8 15.9 0 30.3 8.7 37.7 22.8v.1l135 262.3c6.8 13.3 6.3 28.8-1.5 41.6a42.23 42.23 0 0 1-36.3 20.4zM242.6 114l-135 262.2c-3.3 6.4-.7 11.8.5 13.9 1.2 2 4.9 6.8 12.1 6.8h269.9c7.2 0 10.9-4.8 12.1-6.8 1.2-2 3.8-7.5.5-13.9L267.7 114c-2.5-4.7-7.2-7.6-12.5-7.6-5.4 0-10.1 2.8-12.6 7.6z"></path><path d="M240.9 170.1h28.3v134.6h-28.3z"></path><circle cx="255" cy="347.3" r="21.2"></circle></svg>