<svg xmlns="http://www.w3.org/2000/svg" viewBox="0 0 510.2 510.2"><path d="M83.2 150.5l17.4 21.3L152 130l-1.1 83.4h-.1l-.7 54.1A51.7 51.7 0 0 1 131 307l-31.5 25.7 17.4 21.3 31.5-25.7a79.3 79.3 0 0 0 29.2-60.4l.7-51.4h.1l1.2-86.1 50.3 43.2 17.9-20.8-81.3-69.9-83.3 67.6z"></path><path d="M340.2 82.9L257 150.5l17.4 21.3 51.4-41.9-1.1 83.4h-.1l-.7 54.1a51.7 51.7 0 0 1-19.1 39.5l-31.5 25.7 17.4 21.3 31.5-25.7a79.3 79.3 0 0 0 29.2-60.4l.7-51.4h.1l1.2-86.1 50.3 43.2 17.9-20.8-81.4-69.8z"></path><path d="M85.4 395.2h340.2v28.3H85.4z"></path></svg>