<svg xmlns="http://www.w3.org/2000/svg" viewBox="0 0 510.2 510.2"><path d="M208.6 202.6v60.3c0 15.8 6.9 30.6 19 40.7l28 23.5 13.6-16.3-28-23.5a32 32 0 0 1-11.4-24.4v-60.3h-21.2z"></path><path d="M240.5 188.3a39 39 0 0 0 39-39v-28.8a39 39 0 0 0-78 0v28.8a39 39 0 0 0 39 39zm-17.7-67.8a17.7 17.7 0 1 1 35.4 0v28.8a17.7 17.7 0 1 1-35.4 0v-28.8z"></path><path d="M229.9 428.7a99.4 99.4 0 0 0 99-92.1h9.9c5.9 0 11.4 2.9 14.7 7.9l34.1 51.2 17.7-11.8-34.1-51.2a38.8 38.8 0 0 0-32.4-17.4h-10.6a99.4 99.4 0 0 0-80.5-83.4v21.7a78 78 0 1 1-56.8 8.4v-23.8a99.4 99.4 0 0 0 39 190.5z"></path></svg>