<svg xmlns="http://www.w3.org/2000/svg" viewBox="0 0 510.2 510.2"><path d="M255.1 188.3a39 39 0 0 1-39-39v-28.8a39 39 0 0 1 78 0v28.8a39 39 0 0 1-39 39zm0-85.5c-9.8 0-17.7 7.9-17.7 17.7v28.8a17.7 17.7 0 1 0 35.4 0v-28.8c0-9.8-7.9-17.7-17.7-17.7z"></path><path d="M265.7 297.6H287v127.6h-21.3z"></path><path d="M223.2 297.6h21.3v127.6h-21.3z"></path><path d="M211.4 185.7l-4.6 3.9a53 53 0 0 0-19 40.7v67.4h21.3v-67.4c0-9.5 4.2-18.4 11.4-24.4l4-3.4-13.1-16.8z"></path><path d="M303.4 189.6l-4.5-3.8-14.1 15.9 5 4.2a32 32 0 0 1 11.4 24.4v67.4h21.3v-67.4c-.1-15.8-7-30.6-19.1-40.7z"></path></svg>