<svg xmlns="http://www.w3.org/2000/svg" viewBox="0 0 510.2 510.2"><path d="M255.1 188.3a39 39 0 0 0 39-39v-28.8a39 39 0 0 0-78 0v28.8a39 39 0 0 0 39 39zm-17.7-67.8a17.7 17.7 0 1 1 35.4 0v28.8a17.7 17.7 0 1 1-35.4 0v-28.8z"></path><path d="M265.7 311.8c0 7.9-.6 15.1-1.6 21.7 2.1 11.9 5.7 21.9 9.2 31.7l2.5 7.1a176 176 0 0 0 11.2-60.6v-14.2h-21.3v14.3z"></path><path d="M244.5 311.8v-14.2h-21.3v14.2c0 29.1 7.4 49.9 13.3 66.5 4.2 11.9 7.9 22.2 7.9 32.7v14.2h21.3V411a115 115 0 0 0-9.2-39.8c-5.6-15.9-12-33.9-12-59.4z"></path><path d="M208.3 230.3c0-9.5 4.2-18.4 11.4-24.4l4.4-3.7-13-16.8-5.1 4.3a53 53 0 0 0-19 40.7v67.4h21.3v-67.5z"></path><path d="M289.8 205.9a32 32 0 0 1 11.4 24.4v67.4h21.3v-67.4c0-15.8-6.9-30.6-19-40.7l-4.5-3.8-14.1 15.9 4.9 4.2z"></path></svg>