<svg xmlns="http://www.w3.org/2000/svg" viewBox="0 0 510.2 510.2"><path d="M305.3 341.3h-103a20.6 20.6 0 0 1-20.6-20.6V194.6c0-11.4 9.2-20.6 20.6-20.6h103c11.4 0 20.6 9.2 20.6 20.6v126.1c0 11.4-9.2 20.6-20.6 20.6zm0-146.7h-103v126.1h103V194.6z"></path><path d="M213.3 86.5h81v72.6h-81z"></path><path d="M214 355.3h79.6V427H214z"></path><path d="M266.6 305.1l-4.8-4.8a54.8 54.8 0 0 0 16.1-39c0-14.7-5.7-28.6-16.1-39l4.8-4.8a61.4 61.4 0 0 1 18.1 43.8c0 16.6-6.4 32.2-18.1 43.8z"></path><path d="M253.7 293.5l-4.8-4.8a38.3 38.3 0 0 0 0-53.9l4.8-4.8a45.1 45.1 0 0 1 0 63.5z"></path><path d="M240.7 281l-4.8-4.8a21 21 0 0 0 0-29.6l4.8-4.8a27.6 27.6 0 0 1 0 39.2z"></path><path d="M227.8 270.1l-4.8-4.8a5.6 5.6 0 0 0 0-7.9l4.8-4.8a12.4 12.4 0 0 1 0 17.5z"></path><path d="M332.2 241.8h12v33.1h-12z"></path><path d="M337.9 255.9h23.6v4.7h-23.6z" transform="matrix(.00621 -1 1 .00621 89.3 606.4)"></path></svg>