<svg xmlns="http://www.w3.org/2000/svg" viewBox="0 0 510.2 510.2"><path d="M403.9 312.1h-28.3V184.5c0-3.9-3.2-7.1-7.1-7.1H141.7a7.1 7.1 0 0 0-7.1 7.1v127.6h-28.3V184.5a35.5 35.5 0 0 1 35.4-35.4h226.8a35.5 35.5 0 0 1 35.4 35.4v127.6z"></path><path d="M85 333.3v28.3h340.2v-28.3H85zM297.6 351h-85v-7h85v7z"></path><circle cx="237.1" cy="300.9" r="9"></circle><circle cx="280.4" cy="300.9" r="9"></circle><path d="M309.1 230.2a5.3 5.3 0 0 0-4.3-2.2h-66.3v10.8h59.1l-3.5 12.1h-63.7v10.8h60.5l-4.1 13.3-52.9.3c-6.6 0-8.9-1.7-10.7-6.3l-12.5-37.3-1.9-6.1c-3.8-15.1-10.9-16.1-15.9-16.5h-.2l-14.1.1v10.6l11.4.1c5.4 0 6.5 2.3 8.5 8.9l14.5 43.7.1.3c2.7 7 7 13.3 19.6 13.3 0 0 43.9 0 54.7-.3l3.5-.2c1.2 0 2.4-.4 3.3-1.1 1.3-1 2.5-3.8 3.2-5.9 2.2-7.1 12.7-43.8 12.7-43.8.3-1.5 0-3.3-1-4.6z"></path></svg>