<svg xmlns="http://www.w3.org/2000/svg" viewBox="0 0 510.2 510.2"><path d="M160.2 142.4l-20-20a186.4 186.4 0 0 0-55 132.8c0 50.2 19.5 97.3 55 132.8l20-20c-30.1-30.1-46.7-70.2-46.7-112.8s16.6-82.7 46.7-112.8z"></path><path d="M181.4 173.1c-21.9 21.9-34 51-34 82s12.1 60.1 34 82l20-20a87 87 0 0 1 0-123.8l-20-20.2z"></path><path d="M370.1 122.3l-20 20c30.1 30.1 46.7 70.2 46.7 112.8s-16.6 82.6-46.7 112.8l20 20c35.5-35.5 55-82.6 55-132.8a187 187 0 0 0-55-132.8z"></path><path d="M328.9 173.1l-20 20a87.6 87.6 0 0 1 0 123.9l20 20a116 116 0 0 0 0-163.9z"></path><circle cx="255" cy="255.8" r="39.4"></circle></svg>